<svg viewBox="20 20 40 28" xmlns="http://www.w3.org/2000/svg">
<rect x="20" y="20" width="40" height="28" rx="14" fill="#1F72CD"/>
<path fill-rule="evenodd" clip-rule="evenodd" d="M27.1712 29.9167L23.4287 38.3713H27.909L28.4644 37.0233H29.734L30.2894 38.3713H35.2209V37.3424L35.6604 38.3713H38.2113L38.6508 37.3207V38.3713H48.907L50.1541 37.0583L51.3219 38.3713L56.5897 38.3822L52.8354 34.1676L56.5897 29.9167H51.4036L50.1896 31.2055L49.0586 29.9167H37.9012L36.9431 32.0989L35.9625 29.9167H31.4916V30.9106L30.9942 29.9167H27.1712ZM42.487 31.1172H48.3766L50.178 33.1036L52.0374 31.1172H53.8388L51.1018 34.1663L53.8388 37.1803H51.9557L50.1543 35.1709L48.2854 37.1803H42.487V31.1172ZM43.941 33.4808V32.3734V32.3723H47.616L49.2195 34.1434L47.5449 35.9242H43.941V34.7152H47.1541V33.4808H43.941ZM28.0382 31.1172H30.2221L32.7045 36.8503V31.1172H35.0969L37.0143 35.2278L38.7813 31.1172H41.1617V37.1839H39.7133L39.7015 32.4301L37.5898 37.1839H36.2941L34.1706 32.4301V37.1839H31.1909L30.626 35.8238H27.574L27.0103 37.1827H25.4138L28.0382 31.1172ZM28.0951 34.5665L29.1006 32.1436L30.105 34.5665H28.0951Z" fill="white"/>
</svg>
