<svg viewBox="0 0 24 24" xmlns="http://www.w3.org/2000/svg">
<path fill-rule="evenodd" clip-rule="evenodd" d="M19.2461 18.25C19.993 18.25 20.4961 17.6406 20.5 17C20.502 16.7051 20.3981 16.4035 20.1637 16.152C19.409 15.341 17.9969 14.1211 17.9969 10.125C17.9969 7.08984 15.8688 4.66014 12.9993 4.06406V3.25C12.9993 2.55977 12.4399 2 11.75 2C11.0602 2 10.5008 2.55977 10.5008 3.25V4.06406C7.63126 4.66014 5.50315 7.08984 5.50315 10.125C5.50315 14.1211 4.09103 15.341 3.33637 16.152C3.10199 16.4039 2.99808 16.7051 3.00003 17C3.00434 17.6406 3.50708 18.25 4.25392 18.25H19.2461ZM17.8621 16.375H5.63793C6.46682 15.2824 7.37308 13.4715 7.37735 10.1477L7.37503 10.125C7.37503 7.70858 9.33361 5.75 11.75 5.75C14.1664 5.75 16.125 7.70858 16.125 10.125L16.1227 10.1477C16.127 13.4719 17.0332 15.2828 17.8621 16.375ZM11.75 22C13.1297 22 14.2488 20.8808 14.2488 19.5H9.25121C9.25121 20.8808 10.3703 22 11.75 22Z"/>
</svg>
