<svg xmlns="http://www.w3.org/2000/svg" viewBox="0 0 16 16">
    <path fill-rule="evenodd"
        d="m12.842 6.455 1.642.8c.113.056.183.182.155.294a.325.325 0 0 1-.197.295l-2.035.842v1.923c0 .126-.07.239-.197.295l-4.098 1.698a.408.408 0 0 1-.126.028.408.408 0 0 1-.126-.028L3.76 10.904a.325.325 0 0 1-.196-.295V8.7L1.53 7.858a.34.34 0 0 1-.197-.295c0-.126.07-.252.183-.308l1.642-.8-1.642-.8a.325.325 0 0 1 .014-.59l4.112-1.712a.352.352 0 0 1 .267.014L8 4.39l2.091-1.01c.084-.042.183-.056.267-.014l4.112 1.698a.34.34 0 0 1 .197.295c0 .126-.07.238-.183.295l-1.642.8Zm-8.098 0L8 7.802l3.256-1.347L8 5.107 4.744 6.455Zm5.502-2.443 3.298 1.362-1.46.716-3.298-1.362 1.46-.716Zm-3.032.716-1.46-.716-3.298 1.362 1.46.716 3.298-1.362ZM3.902 6.805 7.2 8.167l-1.446.73-3.298-1.362 1.446-.73Zm.323 2.162v1.417l3.452 1.446V8.686l-1.768.87a.498.498 0 0 1-.14.028.41.41 0 0 1-.127-.028l-1.417-.59Zm7.55 1.417-3.452 1.432V8.672l1.768.87c.042.028.099.028.14.028.043 0 .085-.014.127-.028l1.417-.575v1.417ZM8.786 8.181l1.46.716 3.298-1.362-1.46-.716-3.298 1.362Z"
        clip-rule="evenodd" />
</svg>