<svg width="20" height="20" viewBox="0 0 20 20" fill="none" xmlns="http://www.w3.org/2000/svg">
<path d="M14.083 3.33301C15.0494 3.33301 15.8328 4.11666 15.833 5.08301V15.583C15.833 16.5495 15.0495 17.333 14.083 17.333H5.91699C4.95049 17.333 4.16699 16.5495 4.16699 15.583V5.08301C4.16717 4.11666 4.9506 3.33301 5.91699 3.33301H14.083ZM5.91699 4.5C5.59493 4.5 5.33318 4.76099 5.33301 5.08301V15.583C5.33301 15.9052 5.59483 16.167 5.91699 16.167H14.083C14.4052 16.167 14.667 15.9052 14.667 15.583V5.08301C14.6668 4.76099 14.4051 4.5 14.083 4.5H5.91699ZM7.66699 13.25C7.98893 13.2502 8.24987 13.5111 8.25 13.833C8.25 14.1551 7.98901 14.4168 7.66699 14.417C7.34483 14.417 7.08301 14.1552 7.08301 13.833C7.08314 13.511 7.34491 13.25 7.66699 13.25ZM10 13.25C10.3221 13.25 10.5829 13.511 10.583 13.833C10.583 14.1552 10.3222 14.417 10 14.417C9.67783 14.417 9.41699 14.1552 9.41699 13.833C9.41712 13.511 9.67792 13.25 10 13.25ZM12.333 13.25C12.6551 13.25 12.9169 13.511 12.917 13.833C12.917 14.1552 12.6552 14.417 12.333 14.417C12.011 14.4168 11.75 14.1551 11.75 13.833C11.7501 13.5111 12.0111 13.2502 12.333 13.25ZM7.66699 10.917C7.98898 10.9172 8.24996 11.178 8.25 11.5C8.25 11.8221 7.98901 12.0828 7.66699 12.083C7.34483 12.083 7.08301 11.8222 7.08301 11.5C7.08305 11.1779 7.34485 10.917 7.66699 10.917ZM10 10.917C10.3221 10.917 10.583 11.1779 10.583 11.5C10.583 11.8222 10.3222 12.083 10 12.083C9.67783 12.083 9.41699 11.8222 9.41699 11.5C9.41704 11.1779 9.67786 10.917 10 10.917ZM12.333 10.917C12.6551 10.917 12.9169 11.1779 12.917 11.5C12.917 11.8222 12.6552 12.083 12.333 12.083C12.011 12.0828 11.75 11.8221 11.75 11.5C11.75 11.178 12.011 10.9172 12.333 10.917ZM12.917 5.66699C13.239 5.66717 13.5 5.92796 13.5 6.25V9.16699C13.4998 9.48892 13.2389 9.74982 12.917 9.75H7.08301C6.76108 9.74983 6.50015 9.48892 6.5 9.16699V6.25C6.50002 5.92796 6.761 5.66716 7.08301 5.66699H12.917ZM7.66699 8.58301H12.333V6.83301H7.66699V8.58301Z" fill="#333132"/>
</svg>
