<svg viewBox="0 0 25 24" fill="none" xmlns="http://www.w3.org/2000/svg">
<path d="M14.9201 14.3746H12.9798V12.446C12.9798 12.0908 12.6904 11.8032 12.333 11.8032C11.9757 11.8032 11.6863 12.0908 11.6863 12.446V14.3746H9.74598C9.38864 14.3746 9.09922 14.6623 9.09922 15.0174C9.09922 15.3726 9.38864 15.6603 9.74598 15.6603H11.6863V17.5889C11.6863 17.9441 11.9757 18.2317 12.333 18.2317C12.6904 18.2317 12.9798 17.9441 12.9798 17.5889V15.6603H14.9201C15.2774 15.6603 15.5668 15.3726 15.5668 15.0174C15.5668 14.6631 15.2774 14.3746 14.9201 14.3746Z" fill="#333132"/>
<path d="M8.43963 3C8.08228 3 7.79287 3.28767 7.79287 3.64286V5.09732H6.24226C5.18966 5.09732 4.3335 5.9483 4.3335 6.99457V19.1036C4.3335 20.149 5.18964 21 6.24226 21H18.4247C19.4773 21 20.3335 20.149 20.3335 19.1028L20.3327 6.99459C20.3327 5.94835 19.4765 5.09734 18.4239 5.09734H16.8733V3.64288C16.8733 3.28769 16.5839 3.00002 16.2266 3.00002C15.8692 3.00002 15.5798 3.28769 15.5798 3.64288V5.09734H9.08632V3.64288C9.08632 3.28769 8.79616 3 8.43963 3ZM18.4239 19.7143H6.2423C5.90275 19.7143 5.62706 19.4403 5.62706 19.1028V10.3212H19.0393V19.1034C19.0393 19.4401 18.7635 19.7143 18.4239 19.7143ZM15.5799 6.38298V6.58307C15.5799 6.93826 15.8693 7.22593 16.2266 7.22593C16.584 7.22593 16.8734 6.93826 16.8734 6.58307V6.38298H18.424C18.7635 6.38298 19.0392 6.65699 19.0392 6.99451V9.03559H5.62698V6.99451C5.62698 6.65701 5.90265 6.38298 6.24222 6.38298H7.79282V6.58307C7.79282 6.93826 8.08224 7.22593 8.43958 7.22593C8.79693 7.22593 9.08635 6.93826 9.08635 6.58307V6.38298H15.5799Z" fill="#333132"/>
</svg>
