<svg xmlns="http://www.w3.org/2000/svg" viewBox="0 0 80 80">
  <path fill-rule="evenodd" d="M64.3748704 65.8332082c3.1054613 0 5.6249865-2.5195253 5.6249865-5.6249866V26.458302c0-3.1054613-2.5195252-5.6249865-5.6249865-5.6249865H54.0623949l-1.6757543-4.4531144c-.679663-1.8398623-2.4257984-3.0468678-4.3828478-3.0468678H32.6522669c-2.3437445 0-4.441327 1.4531673-5.2616376 3.6444768l-1.4531673 3.8555054H15.6249866C12.5195252 20.8333155 10 23.3528407 10 26.458302v33.7499196c0 3.1054613 2.5195252 5.6249866 5.6249866 5.6249866h48.7498838zm0-5.6249866H15.6249866V26.458302h14.214787l2.8124933-7.4999821H47.359263l2.8008204 7.4999821h14.214787v33.7499196zm-24.3749419-2.8124933c7.7578169 0 14.0624664-6.3046496 14.0624664-14.0624665 0-7.7578169-6.3046495-14.0624665-14.0624664-14.0624665S25.937462 35.5754449 25.937462 43.3332618c0 7.7578169 6.3046496 14.0624665 14.0624665 14.0624665zm0-5.6249866c-4.6523556 0-8.4374799-3.7851243-8.4374799-8.4374799 0-4.6523555 3.7851243-8.4374799 8.4374799-8.4374799 4.6523555 0 8.4374799 3.7851244 8.4374799 8.4374799 0 4.6523556-3.7851244 8.4374799-8.4374799 8.4374799z"/>
</svg>
