<svg viewBox="0 0 24 24" version="1.1" xmlns="http://www.w3.org/2000/svg">
  <path d="M17.5000187,19.9999869 C18.604571,19.9999869 19.500017,19.1045409 19.500017,17.9999886 C19.500017,17.4332471 19.2639027,16.9219865 18.8851494,16.5580647 L18.917498,16.4093832 C19.0191825,15.9418848 18.6630426,15.5 18.1846189,15.5 L9.36748747,15.5 L9.0740612,14 L18.836718,14 C19.1895314,14 19.4946459,13.7540814 19.5695665,13.4092941 L20.9825903,6.90929938 C21.0842137,6.4418315 20.7280739,6 20.2497112,6 L7.50875486,6 L7.23605,4.60598705 C7.16717189,4.2539976 6.85866994,4 6.5,4 L3.37499969,4 C3.16790758,4 3,4.16790758 3,4.37499969 L3,5.12499908 C3,5.3320912 3.16790758,5.5 3.37499969,5.5 L5.88250497,5.5 L8.05730788,16.6156513 C7.71236797,16.975026 7.5,17.4625439 7.5,17.9999886 C7.5,19.1045409 8.39544237,19.9999869 9.5,19.9999869 C10.604547,19.9999869 11.5,19.1045409 11.5,17.9999886 L11.5,17.9977913 C11.5,17.7025034 11.3798454,17.2554823 11.2317743,16.9999894 L15.7682391,16.9999894 C15.6201679,17.2554823 15.5000203,17.7025034 15.5000203,17.9977913 L15.5000203,17.9999886 C15.5000203,19.1045409 16.3954663,19.9999869 17.5000187,19.9999869 Z M18.2324399,12.4999971 L8.78063492,12.4999971 L7.80218113,7.49999714 L19.3192921,7.49999714 L18.2324399,12.4999971 Z M9.49999469,18.7499892 C9.0864208,18.7499892 8.7499953,18.4135624 8.7499953,17.9999886 C8.7499953,17.5864147 9.0864208,17.2499892 9.49999469,17.2499892 C9.91356857,17.2499892 10.2499953,17.5864147 10.2499953,17.9999886 C10.2499953,18.4135624 9.91356857,18.7499892 9.49999469,18.7499892 Z M17.4999881,18.7499892 C17.0864143,18.7499892 16.7499888,18.4135624 16.7499888,17.9999886 C16.7499888,17.5864147 17.0864143,17.2499892 17.4999881,17.2499892 C17.913562,17.2499892 18.2499888,17.5864147 18.2499888,17.9999886 C18.2499888,18.4135624 17.913562,18.7499892 17.4999881,18.7499892 Z" />
</svg>
