<svg viewBox="0 0 24 24" xmlns="http://www.w3.org/2000/svg">
    <path d="M9.4375,17.7486911 L4.21875,12.5340314 C4.07291651,12.3874344 4,12.1989527 4,11.9685864 C4,11.7382201 4.07291651,11.5497384 4.21875,11.4031414 L5.375,10.2722513 C5.52083349,10.1047122 5.703125,10.020952 5.921875,10.020952 C6.140625,10.020952 6.33333349,10.1047122 6.5,10.2722513 L10,13.7905759 L17.5,6.2513089 C17.6666665,6.08376979 17.859375,6 18.078125,6 C18.296875,6 18.4791665,6.08376979 18.625,6.2513089 L19.78125,7.38219895 C19.9270835,7.52879597 20,7.71727765 20,7.94764398 C20,8.17801031 19.9270835,8.36649199 19.78125,8.51308901 L10.5625,17.7486911 C10.4166665,17.9162302 10.2291665,18 10,18 C9.77083349,18 9.58333349,17.9162302 9.4375,17.7486911 Z" />
</svg>