<svg viewBox="0 0 16 16" xmlns="http://www.w3.org/2000/svg">
<path fill-rule="evenodd" clip-rule="evenodd" d="M8 14C11.3137 14 14 11.3137 14 8C14 4.68629 11.3137 2 8 2C4.68629 2 2 4.68629 2 8C2 11.3137 4.68629 14 8 14ZM6.75852 11.1769L4.24239 8.66081C4.09125 8.50965 4.09125 8.26452 4.24239 8.11336L4.78984 7.56593C4.941 7.41477 5.18613 7.41477 5.33729 7.56593L7.03226 9.26092L10.6627 5.63047C10.8139 5.47929 11.059 5.47929 11.2102 5.63047L11.7576 6.1779C11.9087 6.32906 11.9087 6.57419 11.7576 6.72535L7.306 11.177C7.15481 11.3281 6.90971 11.3281 6.75852 11.1769Z" />
</svg>
