<svg xmlns="http://www.w3.org/2000/svg" viewBox="0 0 24 24">
  <path d="M12 21c4.9705692 0 9-4.0294308 9-9 0-4.97056924-4.0294308-9-9-9-4.97056924 0-9 4.02943076-9 9 0 4.9705692 4.02943076 9 9 9zm0-1.7419355c-4.01125016 0-7.25806452-3.2462119-7.25806452-7.2580645 0-4.01125016 3.24621189-7.25806452 7.25806452-7.25806452 4.0112502 0 7.2580645 3.24621189 7.2580645 7.25806452 0 4.0112502-3.2462119 7.2580645-7.2580645 7.2580645zm-1.1776989-2.9597522l6.2633056-6.2130521c.1707134-.16940209.171812-.44515892.0024454-.61590772l-.8178436-.82443533c-.1693666-.1707488-.445088-.17184744-.6158368-.00244534l-5.1297292 5.08847739-2.16987073-2.1874843c-.16936665-.1707488-.44508805-.1718829-.61583685-.0025162l-.82447077.8178435c-.1707488.1693667-.17188287.4451235-.00248078.6159077l3.29448083 3.3211316c.1693667.1707488.4450881.1718829.6158369.0024808z"/>
</svg>
