<svg viewBox="0 0 19 12" xmlns="http://www.w3.org/2000/svg">
    <g transform="translate(-3.000000, -6.000000)">
        <path d="M7.32538288,11.2981651 L15.2159177,3.28899083 C15.4057246,3.09633007 15.6362037,3 15.9073563,3 C16.1785089,3 16.408988,3.09633007 16.5987949,3.28899083 L17.4935978,4.19724771 C17.6834047,4.38990847 17.7850869,4.623853 17.7986443,4.89908257 C17.8122017,5.17431214 17.7240776,5.40825667 17.5342707,5.60091743 L11.2299774,12 L17.5342707,18.3990826 C17.7240776,18.5917433 17.8122017,18.8256879 17.7986443,19.1009174 C17.7850869,19.376147 17.6834047,19.6100915 17.4935978,19.8027523 L16.5987949,20.7110092 C16.408988,20.9036699 16.1785089,21 15.9073563,21 C15.6362037,21 15.4057246,20.9036699 15.2159177,20.7110092 L7.32538288,12.7018349 C7.10846117,12.5091741 7,12.2752296 7,12 C7,11.7247704 7.10846117,11.4908259 7.32538288,11.2981651 Z" transform="translate(12.400000, 12.000000) rotate(90.000000) translate(-12.400000, -12.000000) "/>
    </g>
</svg>