<svg xmlns="http://www.w3.org/2000/svg" viewBox="0 0 24 24">
  <!-- left chevron -->
  <path
    d="M3.5,11.2981651 L11.3905348,3.28899083 C11.5803417,3.09633007 11.8108208,3 12.0819734,3 C12.353126,3 12.5836051,3.09633007 12.773412,3.28899083 L13.6682149,4.19724771 C13.8580218,4.38990847 13.959704,4.623853 13.9732614,4.89908257 C13.9868188,5.17431214 13.8986947,5.40825667 13.7088878,5.60091743 L7.40459452,12 L13.7088878,18.3990826 C13.8986947,18.5917433 13.9868188,18.8256879 13.9732614,19.1009174 C13.959704,19.376147 13.8580218,19.6100915 13.6682149,19.8027523 L12.773412,20.7110092 C12.5836051,20.9036699 12.353126,21 12.0819734,21 C11.8108208,21 11.5803417,20.9036699 11.3905348,20.7110092 L3.5,12.7018349 C3.28307829,12.5091741 3.17461712,12.2752296 3.17461712,12 C3.17461712,11.7247704 3.28307829,11.4908259 3.5,11.2981651 Z"
  />

  <!-- right chevron (shifted right for more gap) -->
  <path
    d="M10.5,11.2981651 L18.3905348,3.28899083 C18.5803417,3.09633007 18.8108208,3 19.0819734,3 C19.353126,3 19.5836051,3.09633007 19.773412,3.28899083 L20.6682149,4.19724771 C20.8580218,4.38990847 20.959704,4.623853 20.9732614,4.89908257 C20.9868188,5.17431214 20.8986947,5.40825667 20.7088878,5.60091743 L14.4045945,12 L20.7088878,18.3990826 C20.8986947,18.5917433 20.9868188,18.8256879 20.9732614,19.1009174 C20.959704,19.376147 20.8580218,19.6100915 20.6682149,19.8027523 L19.773412,20.7110092 C19.5836051,20.9036699 19.353126,21 19.0819734,21 C18.8108208,21 18.5803417,20.9036699 18.3905348,20.7110092 L10.5,12.7018349 C10.2830783,12.5091741 10.1746171,12.2752296 10.1746171,12 C10.1746171,11.7247704 10.2830783,11.4908259 10.5,11.2981651 Z"
  />
</svg>
