<svg viewBox="0 0 18 18" xmlns="http://www.w3.org/2000/svg">
  <g  transform="translate(-3.000000, -3.000000)">
    <path d="M12,3 C7.02822581,3 3,7.02822581 3,12 C3,16.9717742 7.02822581,21 12,21 C16.9717742,21 21,16.9717742 21,12 C21,7.02822581 16.9717742,3 12,3 Z M12,19.2580645 C7.98991935,19.2580645 4.74193548,16.0100806 4.74193548,12 C4.74193548,7.98991935 7.98991935,4.74193548 12,4.74193548 C16.0100806,4.74193548 19.2580645,7.98991935 19.2580645,12 C19.2580645,16.0100806 16.0100806,19.2580645 12,19.2580645 Z M14.2427348,15.4693407 L11.1617077,13.2302561 C11.0491865,13.14676 10.983871,13.016129 10.983871,12.8782329 L10.983871,6.91935484 C10.983871,6.67985289 11.1798529,6.48387097 11.4193548,6.48387097 L12.5806452,6.48387097 C12.8201471,6.48387097 13.016129,6.67985289 13.016129,6.91935484 L13.016129,12.0617006 L15.4403155,13.8253961 C15.6362974,13.9669426 15.6762026,14.23912 15.5346916,14.4350665 L14.8524052,15.375 C14.7108942,15.5673316 14.4387168,15.6108871 14.2427348,15.4693407 Z"></path>
  </g>
</svg>
