<svg xmlns="http://www.w3.org/2000/svg" viewBox="0 0 16 16" fill="none">
  <path fill-rule="evenodd" clip-rule="evenodd" d="M11.2812 15.5C12.0579 15.5 12.6875 14.8704 12.6875 14.0937V12.6875H14.0937C14.8704 12.6875 15.5 12.0579 15.5 11.2812V1.90625C15.5 1.1296 14.8704 0.5 14.0937 0.5H4.71874C3.94209 0.5 3.31249 1.1296 3.31249 1.90625V3.31249H1.90625C1.1296 3.31249 0.5 3.94209 0.5 4.71874V14.0937C0.5 14.8704 1.1296 15.5 1.90625 15.5H11.2812ZM13.9179 11.2812H4.89452C4.7975 11.2812 4.71874 11.2025 4.71874 11.1054V2.08203C4.71874 1.98501 4.7975 1.90625 4.89452 1.90625H13.9179C14.015 1.90625 14.0937 1.98501 14.0937 2.08203V11.1054C14.0937 11.2025 14.015 11.2812 13.9179 11.2812ZM11.1054 14.0937H2.08203C1.98501 14.0937 1.90625 14.015 1.90625 13.9179V4.89452C1.90625 4.7975 1.98501 4.71874 2.08203 4.71874H3.31249V11.2812C3.31249 12.0579 3.94209 12.6875 4.71874 12.6875H11.2812V13.9179C11.2812 14.015 11.2025 14.0937 11.1054 14.0937Z" />
</svg>