<svg viewBox="0 0 24 24" xmlns="http://www.w3.org/2000/svg">
    <path d="M19.4968872,19 C20.328125,19 21,18.328125 21,17.5 L21,6.5 C21,5.671875 20.328125,5 19.4968872,5 L4.50311279,5 C3.671875,5 3,5.671875 3,6.5 L3,17.5 C3,18.328125 3.671875,19 4.50311279,19 L19.4968872,19 Z M19.4968872,8 L4.50311279,8 L4.50311279,6.6875 C4.50311279,6.5843811 4.5874939,6.5 4.69061279,6.5 L19.3093872,6.5 C19.4125061,6.5 19.4968872,6.5843811 19.4968872,6.6875 L19.4968872,8 Z M19.3093872,17.5 L4.69061279,17.5 C4.5874939,17.5 4.50311279,17.4156189 4.50311279,17.3125 L4.50311279,12 L19.4968872,12 L19.4968872,17.3125 C19.4968872,17.4156189 19.4125061,17.5 19.3093872,17.5 Z M8.625,16 C8.83123779,16 9,15.8312378 9,15.625 L9,14.375 C9,14.1687622 8.83123779,14 8.625,14 L6.375,14 C6.16876221,14 6,14.1687622 6,14.375 L6,15.625 C6,15.8312378 6.16876221,16 6.375,16 L8.625,16 Z M14.625,16 C14.8312378,16 15,15.8312378 15,15.625 L15,14.375 C15,14.1687622 14.8312378,14 14.625,14 L10.375,14 C10.1687622,14 10,14.1687622 10,14.375 L10,15.625 C10,15.8312378 10.1687622,16 10.375,16 L14.625,16 Z"></path>
</svg>