<svg viewBox="0 0 16 16" xmlns="http://www.w3.org/2000/svg">
<path fill-rule="evenodd" clip-rule="evenodd" d="M8 14C11.3137 14 14 11.3137 14 8C14 4.68629 11.3137 2 8 2C4.68629 2 2 4.68629 2 8C2 11.3137 4.68629 14 8 14ZM10.0052 10.5774L10.5774 10.0052C10.6964 9.88623 10.6964 9.69382 10.5774 9.57481L9.0026 8L10.5774 6.42519C10.6964 6.30618 10.6964 6.11377 10.5774 5.99477L10.0052 5.42258C9.88623 5.30358 9.69382 5.30358 9.57481 5.42258L8 6.9974L6.42519 5.42258C6.30618 5.30358 6.11377 5.30358 5.99477 5.42258L5.42258 5.99477C5.30358 6.11377 5.30358 6.30618 5.42258 6.42519L6.9974 8L5.42258 9.57481C5.30358 9.69382 5.30358 9.88623 5.42258 10.0052L5.99477 10.5774C6.11377 10.6964 6.30618 10.6964 6.42519 10.5774L8 9.0026L9.57481 10.5774C9.69382 10.6964 9.88623 10.6964 10.0052 10.5774Z" />
</svg>
