<svg xmlns="http://www.w3.org/2000/svg" viewBox="0 0 16 16">
  <path fill-rule="evenodd" d="M10.1798063 8l5.5931305 5.6385432c.1513752.1211005.2270632.2876131.2270632.4995389 0 .2119259-.075688.3784384-.2270632.499539l-1.1353157 1.1353157C14.5165205 15.924312 14.350008 16 14.1380821 16c-.2119258 0-.3784384-.075688-.4995389-.2270632L8 10.1798063l-5.63854316 5.5931305C2.24035626 15.924312 2.07384374 16 1.86191789 16c-.21192584 0-.37843836-.075688-.49953895-.2270632L.22706316 14.6376211C.07568795 14.5165205 0 14.350008 0 14.1380821c0-.2119258.07568795-.3784384.22706316-.4995389L5.82020582 8 .22706316 2.36145684C.07568795 2.24035626 0 2.07384374 0 1.86191789c0-.21192584.07568795-.37843836.22706316-.49953895L1.36237894.22706316C1.48347953.07568795 1.64999205 0 1.86191789 0c.21192585 0 .37843837.07568795.49953895.22706316L8 5.82020582 13.6385432.22706316C13.7596437.07568795 13.9261563 0 14.1380821 0c.2119259 0 .3784384.07568795.499539.22706316l1.1353157 1.13531578C15.924312 1.48347953 16 1.64999205 16 1.86191789c0 .21192585-.075688.37843837-.2270632.49953895L10.1798063 8z"/>
</svg>
