<svg viewBox="0 0 40 28" xmlns="http://www.w3.org/2000/svg">
<rect width="40" height="28" rx="14" fill="white"/>
<path fill-rule="evenodd" clip-rule="evenodd" d="M18.1531 23.3334H21.4497C26.5956 23.3334 30.6963 19.1945 30.8571 14.0818V14.0007C30.7767 8.80677 26.5956 4.58674 21.4497 4.6679H17.751C12.8463 4.83021 8.98686 9.05024 9.14767 14.0818C9.14767 19.1134 13.1679 23.2523 18.1531 23.3334ZM10.7554 14.0006C10.7554 9.7806 14.2129 6.29096 18.3939 6.29096C22.575 6.29096 26.0324 9.7806 26.0324 14.0006C26.0324 18.2207 22.575 21.7103 18.3939 21.7103C14.2129 21.7103 10.7554 18.2207 10.7554 14.0006ZM19.6002 19.1946V8.88794C22.4144 9.61833 24.1833 12.4587 23.4597 15.2991C22.9772 17.2468 21.5299 18.7076 19.6002 19.1946ZM13.4095 12.7022C12.6858 15.5426 14.3743 18.4642 17.1885 19.1946V8.88794C15.3392 9.37487 13.8919 10.8356 13.4095 12.7022Z" fill="#0079BE"/>
</svg>
