<svg viewBox="0 0 24 24" xmlns="http://www.w3.org/2000/svg">
  <path d="M12.6254967,20.9999571 C12.9348641,20.9999571 13.1879954,20.7468258 13.1879954,20.4374584 L13.1879954,18.7499624 L13.2758858,18.7499624 C15.0055761,18.7499624 16.6016454,17.6320032 17.0165156,15.9515454 C17.5051657,13.9757619 16.3063542,12.0421728 14.4501155,11.5112941 L10.3614259,10.3441368 C9.80596535,10.1859341 9.35597329,9.73944392 9.26808287,9.16640528 C9.13096009,8.27342493 9.82354343,7.49998927 10.6919076,7.49998927 L13.2864258,7.49998927 C13.8454226,7.49998927 14.393845,7.6757701 14.8473733,7.99567748 C15.0723522,8.15388023 15.3747158,8.12929838 15.5680747,7.93593946 L16.3731303,7.13084953 C16.6122197,6.89179446 16.5876035,6.49100044 16.3203961,6.28359965 C15.4520662,5.61209628 14.3973813,5.24999464 13.2864258,5.24999464 L13.1879954,5.24999464 L13.1879954,3.56249866 C13.1879954,3.25313126 12.9348641,3 12.6254967,3 L11.5004994,3 C11.191132,3 10.9380008,3.25313126 10.9380008,3.56249866 L10.9380008,5.24999464 L10.8501103,5.24999464 C9.12042011,5.24999464 7.52435076,6.36795385 7.10948054,8.04841173 C6.62083042,10.0241951 7.81964196,11.9577843 9.67588067,12.488663 L13.7645703,13.6558202 C14.3200308,13.814023 14.7700229,14.2605132 14.8579133,14.8335518 C14.9950361,15.7265322 14.3024527,16.4999678 13.4340886,16.4999678 L10.8395704,16.4999678 C10.2805736,16.4999678 9.73215113,16.324187 9.27862286,16.0042796 C9.05364399,15.8460769 8.75128036,15.8706587 8.55792145,16.0640176 L7.75286584,16.8691076 C7.51377645,17.1081626 7.53839263,17.5089566 7.80560009,17.7163574 C8.67042805,18.3878608 9.72511303,18.7499624 10.8395704,18.7499624 L10.9380008,18.7499624 L10.9380008,20.4374584 C10.9380008,20.7468258 11.191132,20.9999571 11.5004994,20.9999571 L12.6254967,20.9999571 Z">
  </path>
</svg>
