<svg xmlns="http://www.w3.org/2000/svg" viewBox="0 0 20 24">
  <g fill-rule="evenodd">
    <path fill-rule="nonzero"
      d="M 17 0 H 2 C 1 0 0 1 0 2 v 14 c 0 0.943 1 2 2 2 h 6 v 4.164 h 4 v -4.164 h 5.62 c 1.142 0 2.38 -1 2.38 -2 V 2.121 c 0 -1.121 -1.238 -2.121 -2.238 -2.121 Z M 13.714 7.15 c -0.095 0.079 -0.19 0.157 -0.38 0.157 H 11.81 c -0.191 0 -0.381 -0.157 -0.477 -0.314 c -0.095 -0.236 -0.38 -0.472 -0.762 -0.472 H 9.333 c -0.666 0 -1.143 0.393 -1.238 0.865 c 0 0.235 0.095 0.55 0.286 0.785 c 0.19 0.236 0.571 0.315 0.857 0.315 h 1.048 c 0.952 0 1.904 0.314 2.571 0.943 c 0.667 0.628 0.953 1.414 0.857 2.2 c 0 1.178 -1.143 2.2 -2.666 2.435 v 1.022 c 0 0.235 -0.19 0.393 -0.477 0.393 H 9.238 c -0.286 0 -0.476 -0.158 -0.476 -0.393 v -0.943 c -1.429 -0.157 -2.572 -1.1 -2.667 -2.279 c 0 -0.078 0 -0.235 0.095 -0.314 c 0.096 -0.079 0.191 -0.157 0.381 -0.157 H 8 c 0.19 0 0.381 0.157 0.476 0.314 c 0.095 0.314 0.381 0.472 0.762 0.472 h 1.238 c 0.667 0 1.238 -0.393 1.238 -0.865 c 0 -0.235 -0.095 -0.55 -0.285 -0.785 c -0.19 -0.236 -0.572 -0.315 -0.858 -0.315 H 9.62 c -1.81 0 -3.429 -1.178 -3.619 -2.593 C 5.81 6.13 7.048 4.793 8.857 4.48 v -0.865 c 0 -0.235 0.19 -0.393 0.476 -0.393 h 1.334 c 0.285 0 0.476 0.158 0.476 0.393 v 0.943 c 1.428 0.157 2.571 1.1 2.667 2.279 c 0 0.078 0 0.235 -0.096 0.314 Z" />
  </g>
</svg>