<svg width="24" height="24" viewBox="0 0 24 24" fill="none" xmlns="http://www.w3.org/2000/svg">
<path fill-rule="evenodd" clip-rule="evenodd" d="M22.1451 12.3795C22.4213 12.3795 22.6451 12.6033 22.6451 12.8795V18.9433C22.6451 20.1518 21.6532 21.1446 20.4439 21.1446L3.55481 21.1436C2.94826 21.1436 2.39794 20.8971 1.99949 20.4986C1.99949 20.4799 1.35449 19.9333 1.35449 18.9433V12.8795C1.35449 12.6033 1.57835 12.3795 1.85449 12.3795H2.69668C2.97283 12.3795 3.19668 12.6033 3.19668 12.8795V18.9433C3.19668 19.0427 3.23606 19.1327 3.30075 19.1974L3.30262 19.1955C3.36731 19.2602 3.45731 19.3014 3.55575 19.3014H20.4448C20.6454 19.3014 20.8029 19.1439 20.8029 18.9433V12.8795C20.8029 12.6033 21.0268 12.3795 21.3029 12.3795H22.1451ZM16.6657 11.4995L15.3626 10.1964L12.9213 12.6386V2.85571H11.0791V12.6386L8.63595 10.1964L7.33282 11.4995L11.348 15.5147C11.708 15.8747 12.2911 15.8747 12.6511 15.5147L16.6657 11.4995Z" fill="#333132"/>
</svg>
