<svg viewBox="0 0 24 24"  xmlns="http://www.w3.org/2000/svg">
  <path d="M19.3124611,18.4999678 C20.2444428,18.4999678 20.9999571,17.7444536 20.9999571,16.8124718 L20.9999571,6.68749598 C20.9999571,5.75551425 20.2444428,5 19.3124611,5 L4.68749598,5 C3.75551425,5 3,5.75551425 3,6.68749598 L3,16.8124718 C3,17.7444536 3.75551425,18.4999678 4.68749598,18.4999678 L19.3124611,18.4999678 Z M11.9999785,13.4373426 C11.184074,13.4505261 10.0108742,12.3313653 9.41905589,11.8658207 C6.73287074,9.76242456 5.47586614,8.7640787 4.68749598,8.12203235 L4.68749598,6.68749598 L19.3124611,6.68749598 L19.3124611,8.12203235 C18.5241939,8.76397571 17.2674983,9.76211557 14.5809012,11.8658207 C13.9888425,12.3315369 12.8160205,13.4503888 11.9999785,13.4373426 Z M19.3124611,16.8124718 L4.68749598,16.8124718 L4.68749598,10.2874325 C5.49306657,10.9290668 6.63547031,11.8294286 8.3767305,13.1929317 C9.14511932,13.7977963 10.490804,15.1330783 11.9999785,15.1249415 C13.5017374,15.1330783 14.8303589,13.8171596 15.6229176,13.1932063 C17.3641435,11.8297376 18.5068562,10.9291355 19.3124611,10.2874325 L19.3124611,16.8124718 Z" />
</svg>
