<svg viewBox="0 0 24 24" xmlns="http://www.w3.org/2000/svg">
    <path d="M19.4981576,20 C20.650166,20 21.3742263,18.7502181 20.7974134,17.7504009 L13.2993032,4.74954262 C12.7232533,3.7510682 11.2778183,3.74923714 10.7007307,4.74954262 L3.20240694,17.7504009 C2.62672317,18.748326 3.34745703,20 4.50169321,20 L19.4981576,20 Z M19.1754036,18.4999739 L4.82463032,18.4999739 C4.68037368,18.4999739 4.59013318,18.3438154 4.66224623,18.2188154 L11.8376024,5.78149482 C11.9097765,5.65643375 12.0902575,5.65643375 12.1624316,5.78149482 L19.3377877,18.2187849 C19.4099313,18.3437849 19.3197213,18.4999739 19.1754036,18.4999739 Z M12.6463795,14.2500032 C12.8415699,14.2500032 13.0092641,14.091861 13.0207387,13.8970368 L13.2266103,10.3970357 C13.2392751,10.1816121 13.0680104,10.0000019 12.8522816,10.0000019 L11.1476607,10.0000019 C10.9319624,10.0000019 10.7606977,10.1816121 10.7733625,10.3970357 L10.9792342,13.8970368 C10.9908919,14.0952485 11.155046,14.2500032 11.3535934,14.2500032 L12.6463795,14.2500032 Z M12.000017,17.3125041 C12.7249012,17.3125041 13.3125173,16.724888 13.3125173,16.0000037 C13.3125173,15.2751195 12.7249012,14.6875033 12.000017,14.6875033 C11.2751327,14.6875033 10.6875166,15.2751195 10.6875166,16.0000037 C10.6875166,16.724888 11.2751327,17.3125041 12.000017,17.3125041 Z" />
</svg>