<svg viewBox="0 0 18 7" xmlns="http://www.w3.org/2000/svg">
    <path fill-rule="evenodd" clip-rule="evenodd"
        d="M17.3571 1.92857C17.7107 1.92857 18 1.63928 18 1.28571V0.642857C18 0.289294 17.7107 0 17.3571 0H0.642857C0.289294 0 0 0.289294 0 0.642857V1.28571C0 1.63928 0.289294 1.92857 0.642857 1.92857H17.3571ZM17.3571 6.42857C17.7107 6.42857 18 6.13928 18 5.78571V5.14286C18 4.78929 17.7107 4.5 17.3571 4.5H0.642857C0.289294 4.5 0 4.78929 0 5.14286V5.78571C0 6.13928 0.289294 6.42857 0.642857 6.42857H17.3571Z" />
</svg>