<svg viewBox="0 0 16 16" xmlns="http://www.w3.org/2000/svg">
<path fill-rule="evenodd" clip-rule="evenodd" d="M5.82077 11.0005C5.88525 11.0005 5.97449 10.9634 6.01999 10.9177L12.5558 4.38172L12.6041 4.42999L12.5403 6.15569L12.5402 6.16249C12.5402 6.3281 12.6597 6.46597 12.8171 6.49456L12.8778 6.5H13.6585C13.8448 6.5 13.996 6.3488 13.996 6.16249L14 2.33751C14 2.1512 13.8488 2 13.6625 2L9.83751 2.00398C9.6512 2.00398 9.5 2.15518 9.5 2.34149V3.12225C9.5 3.30856 9.6512 3.45976 9.83751 3.45976L9.84431 3.45969L11.57 3.39593L11.6183 3.44422L5.08249 9.98024C5.03683 10.0257 4.99977 10.115 4.99977 10.1795C4.99977 10.2439 5.03683 10.3332 5.08249 10.3787L5.62155 10.9177C5.66708 10.9634 5.75632 11.0005 5.82077 11.0005ZM11.375 14C11.996 14 12.5 13.496 12.5 12.875V9.125C12.5 8.918 12.332 8.75 12.125 8.75H11.75C11.543 8.75 11.375 8.918 11.375 9.125V12.7344C11.375 12.812 11.312 12.875 11.2344 12.875H3.26562C3.18801 12.875 3.125 12.812 3.125 12.7344V4.76562C3.125 4.68801 3.18801 4.625 3.26562 4.625H6.875C7.082 4.625 7.25 4.457 7.25 4.25V3.875C7.25 3.668 7.082 3.5 6.875 3.5H3.125C2.504 3.5 2 4.004 2 4.625V12.875C2 13.496 2.504 14 3.125 14H11.375Z" />
</svg>
