<svg viewBox="0 0 24 24" xmlns="http://www.w3.org/2000/svg">
  <path d="M12,18.0000407 C15.8415658,18.0000407 19.1975342,15.7612941 20.8912655,12.4559545 C20.9512938,12.3372407 21,12.1328943 21,11.9998678 C21,11.8668412 20.9512938,11.6624948 20.8912655,11.543781 C19.1965881,8.2371902 15.8415658,6 12,6 C8.15843424,6 4.80246583,8.2387466 3.1087345,11.5440862 C3.04870622,11.6628 3,11.8671464 3,12.0001729 C3,12.1331995 3.04870622,12.3375459 3.1087345,12.4562597 C4.80341188,15.7628505 8.15843424,18.0000407 12,18.0000407 Z M12,16.5000356 C8.91716484,16.5000356 6.09092235,14.7812798 4.56467205,12.0000203 C6.09092235,9.21876091 8.91685966,7.50000509 12,7.50000509 C15.0831403,7.50000509 17.9090777,9.21876091 19.4353279,12.0000203 C17.9093828,14.7812798 15.0831403,16.5000356 12,16.5000356 Z M12.0105286,15.4819047 C13.9375371,15.4819047 15.5014767,13.9179346 15.5014767,11.9909566 C15.5014767,10.0639481 13.9375371,8.49997796 12.0105286,8.49997796 L12,8.49997796 L12,8.49997796 C11.7243338,8.50431147 11.2869849,8.57431903 11.0237394,8.65625901 C11.1469087,8.87284299 11.2482579,9.25086552 11.2499975,9.50001187 C11.2499975,10.4660186 10.4659982,11.2500178 9.49999152,11.2500178 C9.25084517,11.2482783 8.87282265,11.1469291 8.65623866,11.0237597 C8.58079895,11.2853878 8.51958048,11.7186778 8.51958048,11.9909566 C8.51958048,13.9179346 10.0835201,15.4819047 12.0105286,15.4819047 Z"></path>
</svg>
