<svg viewBox="0 0 14 18" version="1.1" xmlns="http://www.w3.org/2000/svg">
    <g transform="translate(-5.000000, -3.000000)">
        <path d="M16.8124718,21.003459 C17.7441102,21.003459 18.4999678,20.2476014 18.4999678,19.315963 L18.4999678,7.64061394 C18.4999678,7.19412376 18.3206851,6.76170978 18.0042796,6.44530429 L15.0546635,3.49568821 C14.738258,3.17928271 14.3093459,3 13.8628558,3 L6.68749598,3 C5.75585757,3.00350188 5,3.75935946 5,4.69099786 L5,19.315963 C5,20.2476014 5.75585757,21.003459 6.68749598,21.003459 L16.8124718,21.003459 Z M16.8124718,19.315963 L6.68749598,19.315963 L6.68749598,4.69099786 L12.3124826,4.69099786 L12.3124826,8.34723914 C12.3124826,8.81480929 12.6886604,9.19098713 13.1562306,9.19098713 L16.8124718,9.19098713 L16.8124718,19.315963 Z M16.6753491,7.50349115 L13.9999785,7.50349115 L13.9999785,4.82812064 L16.6753491,7.50349115 Z"></path>
    </g>
</svg>