<svg viewBox="0 0 57 56"  xmlns="http://www.w3.org/2000/svg">
<path d="M26.0662 43.3804V43.166C26.0662 41.2366 24.4956 39.666 22.5662 39.666H10.9005C8.9711 39.666 7.40049 41.2366 7.40049 43.166V43.3804C6.04641 43.8638 5.06641 45.1457 5.06641 46.666V47.8319C5.06641 48.4772 5.58921 48.9978 6.23233 48.9978H27.2323C27.8754 48.9978 28.3982 48.4772 28.3982 47.8319V46.666C28.3982 45.1479 27.4204 43.8638 26.0642 43.3804H26.0662ZM10.9005 42.0001H22.5662C23.2093 42.0001 23.7321 42.5229 23.7321 43.166H9.73214C9.73214 42.5229 10.2549 42.0001 10.8981 42.0001H10.9005ZM7.40049 46.666C7.40049 46.0229 7.92329 45.5001 8.56641 45.5001H24.9007C25.5438 45.5001 26.0666 46.0229 26.0666 46.666H7.40049Z" />
<path d="M37.1617 25.7029L40.4517 22.4129C40.5458 22.4195 40.6355 22.4392 40.7295 22.4392C41.6636 22.4392 42.543 22.0761 43.2014 21.4154L43.4136 21.2054C43.4136 21.2054 43.4158 21.2054 43.4158 21.2032C44.7786 19.8382 44.7786 17.6179 43.4158 16.2528L35.3593 8.1963C33.9943 6.83569 31.774 6.8335 30.4089 8.19849L30.2011 8.40849C29.5404 9.0691 29.1751 9.94849 29.1751 10.8826C29.1751 10.9766 29.1948 11.0685 29.2014 11.1604L17.3667 22.9969C16.3801 22.9182 15.3673 23.2397 14.6126 23.9966L14.4048 24.2066C13.7442 24.8672 13.3789 25.7466 13.3789 26.6807C13.3789 27.6148 13.742 28.4941 14.4048 29.1548L22.4614 37.2113C23.1439 37.8938 24.0407 38.2351 24.9354 38.2351C25.8323 38.2351 26.7292 37.8938 27.4117 37.2113L27.6217 36.9991C28.3742 36.2466 28.6957 35.2338 28.617 34.2472L31.9092 30.955L43.5226 43.9358C44.3911 44.9049 45.5854 45.4605 46.887 45.4977C46.933 45.4977 46.9789 45.4999 47.0226 45.4999C48.2739 45.4999 49.4442 45.0143 50.3323 44.1261C51.2533 43.2052 51.7411 41.9824 51.7039 40.6808C51.6667 39.3793 51.1133 38.1849 50.1442 37.3164L37.1634 25.703L37.1617 25.7029ZM31.8525 10.0575L32.0603 9.84967C32.2878 9.62217 32.5875 9.50842 32.8872 9.50842C33.1868 9.50842 33.4843 9.62217 33.7118 9.84967L41.7684 17.9062C42.2234 18.3612 42.2234 19.1006 41.7706 19.5556L41.5584 19.7678C41.1187 20.2097 40.3487 20.2097 39.909 19.7678L31.8525 11.7112C31.6337 11.4925 31.5112 11.1994 31.5112 10.8866C31.5112 10.5737 31.6315 10.2828 31.8546 10.0597L31.8525 10.0575ZM30.2512 13.4109L38.2028 21.3624L27.5674 31.9978L19.6159 24.0462L30.2512 13.4109ZM25.9703 35.3517L25.7625 35.5617C25.3075 36.0167 24.5681 36.0189 24.1109 35.5617L16.0544 27.5052C15.5994 27.0502 15.5994 26.3108 16.0544 25.8536L16.2622 25.6436C16.4897 25.4161 16.7894 25.3023 17.0891 25.3023C17.3888 25.3023 17.6863 25.4161 17.9138 25.6436L25.9703 33.7001C26.4253 34.1551 26.4253 34.8945 25.9703 35.3495V35.3517ZM48.6811 42.4768C48.2174 42.9383 47.5983 43.1615 46.9508 43.1658C46.2967 43.1462 45.6974 42.8683 45.262 42.3805L33.5608 29.3036L35.5099 27.3545L48.5868 39.0557C49.0725 39.491 49.3525 40.0926 49.37 40.7445C49.3875 41.3986 49.1446 42.0133 48.6809 42.4748L48.6811 42.4768Z" />
</svg>
