<svg xmlns="http://www.w3.org/2000/svg" width="18" height="17" viewBox="0 0 18 17" fill="none">
<path fill-rule="evenodd" clip-rule="evenodd" d="M15.0258 16.875C16.0453 16.875 16.875 16.0453 16.875 15.0258V11.25H17.4375C17.7468 11.25 18 10.9968 18 10.6875V6.18749C18 5.25585 17.2441 4.49999 16.3125 4.49999H15.3949C15.6128 4.07461 15.75 3.60351 15.75 3.09374C15.75 1.38867 14.3613 0 12.6562 0C11.1937 0 10.248 0.748819 9.03513 2.40116C7.82225 0.748819 6.87653 0 5.41405 0C3.70898 0 2.32031 1.38867 2.32031 3.09374C2.32031 3.60351 2.45389 4.07461 2.67537 4.49999H1.6875C0.755858 4.49999 0 5.25585 0 6.18749V10.6875C0 10.9968 0.253131 11.25 0.562499 11.25H1.125V15.0258C1.125 16.0453 1.95467 16.875 2.9742 16.875H15.0258ZM8.43748 4.49999H5.41055C4.63358 4.49999 4.0043 3.87068 4.0043 3.09374C4.0043 2.31681 4.63358 1.6875 5.41055 1.6875C6.18398 1.6875 6.7289 1.95467 8.36717 4.39452L8.43748 4.49999ZM12.6562 4.49999H9.62929L9.6996 4.39452C11.3379 1.95467 11.8828 1.6875 12.6562 1.6875C13.4332 1.6875 14.0625 2.31681 14.0625 3.09374C14.0625 3.87068 13.4332 4.49999 12.6562 4.49999ZM8.15623 15.1875H2.9742C2.88631 15.1875 2.81249 15.1172 2.81249 15.0258V11.25H6.74998V9.56248H1.6875V6.18749H8.15623V15.1875ZM15.0258 15.1875H9.84373V6.18749H16.3125V9.56248H11.25V11.25H15.1875V15.0258C15.1875 15.1136 15.1172 15.1875 15.0258 15.1875Z" fill="#333132"/>
</svg>