<svg viewBox="0 0 68 68" xmlns="http://www.w3.org/2000/svg">
<path d="M68 0H0V68H68V0Z" fill="#CA113C"/>
<path d="M39.9344 32.9726C40.7296 33.7487 41.5057 34.4868 42.2605 35.2463C47.1651 40.1747 52.0625 45.1126 56.9719 50.0362C57.8694 50.9386 58.4385 52.0124 58.448 53.2647C58.4647 56.117 56.2505 58.2431 53.2744 57.986C52.1268 57.886 51.1625 57.4169 50.3483 56.6003C44.7866 51.0314 39.2201 45.4674 33.656 39.8985C33.556 39.7985 33.4965 39.658 33.4322 39.558C32.9608 40.0009 32.5608 40.3485 32.2013 40.7294C31.987 40.958 31.8608 40.9485 31.6561 40.7223C31.2466 40.2747 30.8085 39.8509 30.3728 39.4271C30.218 39.2771 30.1823 39.1723 30.3585 38.9985C33.3751 35.9963 36.3892 32.9892 39.3963 29.9774C39.5558 29.8179 39.6534 29.8274 39.801 29.9774C40.2486 30.4369 40.701 30.8917 41.1677 31.3321C41.3438 31.4988 41.3176 31.6059 41.1557 31.7583C40.7653 32.1321 40.3891 32.5178 39.9367 32.9702L39.9344 32.9726ZM35.1417 37.8319C35.2155 37.9105 35.2893 37.9914 35.3655 38.07C37.3868 40.0818 39.4082 42.096 41.4295 44.1079C45.0032 47.6649 48.5769 51.2195 52.1506 54.7766C52.4934 55.117 52.8672 55.3861 53.3577 55.4908C54.2458 55.6789 55.1124 55.3242 55.6433 54.5075C56.0981 53.8075 56.0957 53.029 55.5862 52.31C55.4172 52.0695 55.1814 51.8743 54.9696 51.6648C49.4507 46.1435 43.9318 40.6247 38.413 35.1058C38.3154 35.0082 38.2082 34.9201 38.1654 34.8796C37.1416 35.8796 36.1488 36.851 35.1417 37.8343V37.8319Z" fill="white"/>
<path d="M44.458 31.8036C44.0389 31.8394 43.708 31.6703 43.4199 31.3822C38.501 26.4348 33.5821 21.4897 28.6633 16.5423C28.1728 16.0471 27.9538 15.1042 28.6633 14.4114C30.4727 12.64 32.2512 10.8377 34.044 9.05206C34.6964 8.40208 35.3487 8.40446 36.0035 9.06158C40.9438 14.0019 45.8865 18.9422 50.8244 23.8825C51.4649 24.5253 51.4696 25.3967 50.8363 26.03C49.0626 27.8062 47.284 29.5775 45.5127 31.3537C45.2175 31.6489 44.8889 31.8441 44.458 31.806V31.8036ZM48.1483 24.9325C43.727 20.5064 39.3415 16.1161 34.975 11.7448C33.7393 12.99 32.4846 14.2566 31.2537 15.4995C35.6511 19.8826 40.0772 24.2944 44.5175 28.7228C45.7151 27.4728 46.946 26.1896 48.1507 24.9325H48.1483Z" fill="white"/>
<path d="M9.09254 34.544C9.02825 34.1464 9.21396 33.863 9.46395 33.6131C11.3401 31.7369 13.2138 29.8584 15.0971 27.9894C15.5423 27.549 16.278 27.5776 16.7732 28.0633C17.8232 29.0918 18.8612 30.1346 19.9041 31.1703C23.8015 35.044 27.6966 38.9176 31.5941 42.7889C32.5774 43.7651 32.5822 44.2841 31.606 45.2579C29.918 46.9459 28.2276 48.634 26.5395 50.322C25.8324 51.0267 25.0086 51.0291 24.3015 50.322C19.4065 45.4317 14.5114 40.539 9.61633 35.6487C9.30443 35.3392 9.00682 35.0249 9.0973 34.5464L9.09254 34.544ZM25.3324 47.8626C26.6014 46.5793 27.849 45.3174 29.0728 44.077C24.6682 39.6819 20.2398 35.2606 15.8733 30.9036C14.6352 32.1274 13.3662 33.3821 12.1305 34.6011C16.5161 39.0057 20.9183 43.4294 25.3301 47.8626H25.3324Z" fill="white"/>
<path d="M30.1347 20.3539C30.0609 20.4373 30.0013 20.5111 29.9323 20.5801C27.7919 22.7205 25.6491 24.8585 23.5063 26.9989C22.654 27.8489 21.7969 28.6965 20.954 29.556C20.785 29.7274 20.6755 29.7488 20.4993 29.5655C20.0636 29.1108 19.6231 28.6608 19.1565 28.237C18.9374 28.037 19.0089 27.9275 19.1755 27.7608C20.2112 26.7323 21.2374 25.699 22.2683 24.6657C24.2134 22.7181 26.1586 20.7753 28.0966 18.823C28.3038 18.6135 28.43 18.5778 28.6466 18.8135C29.0633 19.2706 29.5156 19.6944 29.9513 20.1349C30.0109 20.1968 30.0609 20.2682 30.1323 20.3539H30.1347Z" fill="white"/>
</svg>
