<svg viewBox="0 0 18 14.00001" xmlns="http://www.w3.org/2000/svg" >
  <path
     fill-rule="evenodd"
     clip-rule="evenodd"
     d="M 1,0 C 0.44772,0 0,0.44772 0,1 0,1.55228 0.44772,2 1,2 H 17 C 17.5523,2 18,1.55228 18,1 18,0.44772 17.5523,0 17,0 Z M 4,7 C 4,6.4477 4.44772,6 5,6 h 12 c 0.5523,0 1,0.4477 1,1 0,0.5523 -0.4477,1 -1,1 H 5 C 4.44772,8 4,7.5523 4,7 Z m 6,6 c 0,-0.5523 0.4477,-1 1,-1 h 6 c 0.5523,0 1,0.4477 1,1 0,0.5523 -0.4477,1 -1,1 h -6 c -0.5523,0 -1,-0.4477 -1,-1 z"
     fill="#000000"
     id="path2" />
</svg>
