<svg viewBox="0 0 18 14.00001" xmlns="http://www.w3.org/2000/svg" >
  <path
     style="color:#000000;fill:#000000"
     d="m 1,12 a 1,1 0 0 0 -1,1 1,1 0 0 0 1,1 H 7 A 1,1 0 0 0 8,13 1,1 0 0 0 7,12 Z"
     id="path172" />
  <path
     style="color:#000000;fill:#000000"
     d="M 1,6 A 1,1 0 0 0 0,7 1,1 0 0 0 1,8 H 13 A 1,1 0 0 0 14,7 1,1 0 0 0 13,6 Z"
     id="path174" />
  <path
     style="color:#000000;fill:#000000"
     d="M 1,0 A 1,1 0 0 0 0,1 1,1 0 0 0 1,2 H 17 A 1,1 0 0 0 18,1 1,1 0 0 0 17,0 Z"
     id="path176" />
</svg>
