<svg width="24" height="24" viewBox="0 0 24 24" fill="none" xmlns="http://www.w3.org/2000/svg">
<path fill-rule="evenodd" clip-rule="evenodd" d="M10.0002 19.3752C10.5507 19.3737 10.9987 18.9257 11.0002 18.3752V15.1252H13.0003V18.3752C13.0018 18.9257 13.4498 19.3737 14.0003 19.3752H18.0003C18.547 19.3741 18.995 18.9294 19.0003 18.3827V12.5524L19.8606 13.2592C19.9375 13.3235 20.0812 13.3757 20.1814 13.3757C20.3102 13.3757 20.4819 13.2955 20.5647 13.1967L20.8844 12.8127C20.9488 12.7358 21.0011 12.5919 21.0011 12.4916C21.0011 12.3619 20.9201 12.1895 20.8203 12.1067L19.0003 10.6101V7.62514C19.0003 7.48714 18.8883 7.37514 18.7503 7.37514H17.7503C17.6152 7.37596 17.5039 7.48628 17.5018 7.62138V9.37826L13.1212 5.78137C12.8523 5.5575 12.3501 5.37582 12.0002 5.37582C11.6504 5.37582 11.1482 5.5575 10.8793 5.78137L3.18018 12.1067C3.08133 12.1895 3.0011 12.3613 3.0011 12.4902C3.0011 12.5904 3.05331 12.7342 3.11768 12.8111L3.43769 13.1955C3.52042 13.2943 3.69214 13.3744 3.82099 13.3744C3.92118 13.3744 4.06489 13.3223 4.14176 13.258L5.0002 12.553V18.3752C5.00175 18.9257 5.44975 19.3737 6.0002 19.3752H10.0002ZM9.50039 17.8752H6.50037V11.3211L12.0004 6.80171L17.5004 11.3192L17.4957 17.8752H14.5004V14.6252C14.4989 14.0747 14.0509 13.6267 13.5004 13.6252H10.5004C9.94994 13.6267 9.50194 14.0747 9.50039 14.6252V17.8752Z" fill="#5C5A5B"/>
</svg>
