<svg viewBox="0 0 20 20" xmlns="http://www.w3.org/2000/svg">
  <path fill-rule="evenodd" clip-rule="evenodd" d="M17.1355 13.6484C17.9121 13.6484 18.5417 13.0188 18.5417 12.2422V4.74218C18.5417 3.96553 17.9121 3.33594 17.1355 3.33594H5.88549C5.10884 3.33594 4.47924 3.96553 4.47924 4.74218V12.2422C4.47924 13.0188 5.10884 13.6484 5.88549 13.6484H17.1355ZM16.9597 12.2422H6.06127C5.96425 12.2422 5.88549 12.1634 5.88549 12.0664V4.91797C5.88549 4.82095 5.96425 4.74218 6.06127 4.74218H16.9597C17.0567 4.74218 17.1355 4.82095 17.1355 4.91797V12.0664C17.1355 12.1634 17.0567 12.2422 16.9597 12.2422ZM8.22923 7.78905C8.87642 7.78905 9.40111 7.26437 9.40111 6.61718C9.40111 5.96999 8.87642 5.44531 8.22923 5.44531C7.58204 5.44531 7.05736 5.96999 7.05736 6.61718C7.05736 7.26437 7.58204 7.78905 8.22923 7.78905ZM14.323 16.4609C15.0996 16.4609 15.7292 15.8313 15.7292 15.0547V14.5859H14.323V14.8789C14.323 14.9759 14.2442 15.0547 14.1472 15.0547H3.24878C3.15176 15.0547 3.07299 14.9759 3.07299 14.8789V7.73046C3.07299 7.63344 3.15176 7.55468 3.24878 7.55468H3.54174V6.14843H3.07299C2.29634 6.14843 1.66675 6.77803 1.66675 7.55468V15.0547C1.66675 15.8313 2.29634 16.4609 3.07299 16.4609H14.323ZM15.7292 10.8359V8.49218L13.6341 6.39702C13.4968 6.25972 13.2742 6.25972 13.1369 6.39702L10.1042 9.42967L8.9466 8.27202C8.80928 8.13472 8.58669 8.13472 8.44939 8.27202L7.29173 9.42967V10.8359H15.7292Z" />
</svg>


