<svg xmlns="http://www.w3.org/2000/svg" viewBox="0 0 24 24">
  <path fill-rule="evenodd" d="M12 21c4.9702148 0 9-4.0283321 9-9 0-4.96876181-4.0297852-9-9-9-4.97021484 0-9 4.03123819-9 9 0 4.9716679 4.02978516 9 9 9zm0-1.7419355c-4.01125016 0-7.25806452-3.2454676-7.25806452-7.2580645 0-4.00990345 3.24695612-7.25806452 7.25806452-7.25806452 4.0097617 0 7.2580645 3.24692068 7.2580645 7.25806452 0 4.0111793-3.2454676 7.2580645-7.2580645 7.2580645zm0-9.2177419c.8418008 0 1.5241935-.68239275 1.5241935-1.52419357 0-.84180081-.6823927-1.52419355-1.5241935-1.52419355s-1.5241935.68239274-1.5241935 1.52419355c0 .84180082.6823927 1.52419357 1.5241935 1.52419357zm1.5967742 6.6048387c.2404943 0 .4354839-.1949896.4354839-.4354839v-.8709677c0-.2404943-.1949896-.4354839-.4354839-.4354839h-.4354839v-3.6290323c0-.2404942-.1949896-.4354838-.4354838-.4354838h-2.3225807c-.2404943 0-.43548386.1949896-.43548386.4354838v.8709678c0 .2404943.19498956.4354839.43548386.4354839h.4354839v2.3225806h-.4354839c-.2404943 0-.43548386.1949896-.43548386.4354839v.8709677c0 .2404943.19498956.4354839.43548386.4354839h3.1935484z"/>
</svg>
