<svg width="24" height="24" xmlns="http://www.w3.org/2000/svg"><rect width="24" height="24" rx="12" fill="#fff"/><rect width="24" height="24" rx="12" fill="#fff"/><path d="M9.815 12a2.185 2.185 0 1 1 4.37.001 2.185 2.185 0 0 1-4.37 0Zm-1.181 0A3.366 3.366 0 0 0 12 15.365 3.366 3.366 0 1 0 8.634 12Zm6.08-3.498a.787.787 0 1 0 .787-.786.787.787 0 0 0-.787.786Zm-5.362 8.832c-.64-.029-.987-.135-1.218-.225a2.038 2.038 0 0 1-.754-.49 2.022 2.022 0 0 1-.49-.754c-.09-.23-.197-.578-.226-1.217-.032-.69-.038-.898-.038-2.648s.006-1.957.038-2.648c.029-.639.136-.985.225-1.217.12-.306.261-.524.49-.754.23-.23.448-.371.755-.49.23-.09.578-.196 1.218-.225.69-.032.898-.038 2.649-.038 1.75 0 1.958.007 2.65.038.639.029.985.136 1.217.225.306.119.524.261.754.49.23.23.371.448.49.754.09.23.197.578.226 1.217.032.691.038.898.038 2.648s-.006 1.957-.038 2.648c-.029.64-.136.987-.226 1.217a2.03 2.03 0 0 1-.49.754c-.23.229-.448.37-.754.49-.23.09-.579.196-1.218.225-.69.032-.899.038-2.65.038-1.75 0-1.958-.006-2.648-.038ZM9.297 5.487c-.698.032-1.175.142-1.591.304a3.216 3.216 0 0 0-1.162.756c-.365.364-.589.73-.756 1.161-.162.417-.273.893-.305 1.59-.032.7-.04.923-.04 2.702 0 1.78.008 2.003.04 2.702.032.697.143 1.174.305 1.59.167.431.391.797.756 1.161s.73.588 1.162.756c.417.162.893.273 1.591.305.7.031.923.04 2.704.04 1.78 0 2.004-.008 2.703-.04.698-.032 1.175-.143 1.591-.305a3.224 3.224 0 0 0 1.162-.756 3.21 3.21 0 0 0 .756-1.16c.162-.417.273-.893.305-1.591.031-.7.039-.922.039-2.702 0-1.78-.008-2.003-.04-2.701-.031-.698-.142-1.175-.304-1.591a3.221 3.221 0 0 0-.756-1.16 3.208 3.208 0 0 0-1.161-.757c-.417-.162-.894-.273-1.592-.304-.699-.032-.922-.04-2.703-.04-1.78 0-2.004.008-2.704.04Z" fill="url(#a)"/><path d="M9.815 12a2.185 2.185 0 1 1 4.37.001 2.185 2.185 0 0 1-4.37 0Zm-1.181 0A3.366 3.366 0 0 0 12 15.365 3.366 3.366 0 1 0 8.634 12Zm6.08-3.498a.787.787 0 1 0 .787-.786.787.787 0 0 0-.787.786Zm-5.362 8.832c-.64-.029-.987-.135-1.218-.225a2.038 2.038 0 0 1-.754-.49 2.022 2.022 0 0 1-.49-.754c-.09-.23-.197-.578-.226-1.217-.032-.69-.038-.898-.038-2.648s.006-1.957.038-2.648c.029-.639.136-.985.225-1.217.12-.306.261-.524.49-.754.23-.23.448-.371.755-.49.23-.09.578-.196 1.218-.225.69-.032.898-.038 2.649-.038 1.75 0 1.958.007 2.65.038.639.029.985.136 1.217.225.306.119.524.261.754.49.23.23.371.448.49.754.09.23.197.578.226 1.217.032.691.038.898.038 2.648s-.006 1.957-.038 2.648c-.029.64-.136.987-.226 1.217a2.03 2.03 0 0 1-.49.754c-.23.229-.448.37-.754.49-.23.09-.579.196-1.218.225-.69.032-.899.038-2.65.038-1.75 0-1.958-.006-2.648-.038ZM9.297 5.487c-.698.032-1.175.142-1.591.304a3.216 3.216 0 0 0-1.162.756c-.365.364-.589.73-.756 1.161-.162.417-.273.893-.305 1.59-.032.7-.04.923-.04 2.702 0 1.78.008 2.003.04 2.702.032.697.143 1.174.305 1.59.167.431.391.797.756 1.161s.73.588 1.162.756c.417.162.893.273 1.591.305.7.031.923.04 2.704.04 1.78 0 2.004-.008 2.703-.04.698-.032 1.175-.143 1.591-.305a3.224 3.224 0 0 0 1.162-.756 3.21 3.21 0 0 0 .756-1.16c.162-.417.273-.893.305-1.591.031-.7.039-.922.039-2.702 0-1.78-.008-2.003-.04-2.701-.031-.698-.142-1.175-.304-1.591a3.221 3.221 0 0 0-.756-1.16 3.208 3.208 0 0 0-1.161-.757c-.417-.162-.894-.273-1.592-.304-.699-.032-.922-.04-2.703-.04-1.78 0-2.004.008-2.704.04Z" fill="url(#b)"/><defs><radialGradient id="a" cx="0" cy="0" r="1" gradientUnits="userSpaceOnUse" gradientTransform="matrix(17.1189 0 0 17.1087 7.186 18.615)"><stop offset=".09" stop-color="#FA8F21"/><stop offset=".78" stop-color="#D82D7E"/></radialGradient><radialGradient id="b" cx="0" cy="0" r="1" gradientUnits="userSpaceOnUse" gradientTransform="matrix(13.4921 0 0 13.484 13.396 19.202)"><stop offset=".64" stop-color="#8C3AAA" stop-opacity="0"/><stop offset="1" stop-color="#8C3AAA"/></radialGradient></defs></svg>