<svg width="24" height="24" xmlns="http://www.w3.org/2000/svg"><rect width="24" height="24" rx="12" fill="#fff"/><rect width="24" height="24" rx="12" fill="#fff"/><path d="M5.504 6.444c0-.518.434-.94.97-.94h11.175c.535 0 .97.422.97.94v11.235c0 .519-.435.94-.97.94H6.474c-.535 0-.97-.421-.97-.94V6.444Z" fill="#069"/><path d="M9.49 16.48v-5.905H7.526v5.904H9.49Zm-.981-6.71c.684 0 1.11-.454 1.11-1.02-.013-.58-.426-1.02-1.097-1.02-.672 0-1.11.44-1.11 1.02 0 .566.425 1.02 1.084 1.02h.012Zm2.067 6.71h1.962v-3.298c0-.176.013-.352.064-.478.142-.353.465-.718 1.007-.718.71 0 .994.541.994 1.335v3.158h1.963v-3.385c0-1.813-.968-2.657-2.26-2.657-1.058 0-1.523.591-1.781.994h.013v-.856h-1.962c.025.554 0 5.904 0 5.904Z" fill="#fff"/></svg>