<svg viewBox="0 0 68 32" xmlns="http://www.w3.org/2000/svg">
    <path
      d="M55.416968,28.0136462 C55.9467004,28.0136462 56.3307921,28.2137492 56.5845415,28.4744338 C56.9529268,28.8583216 57.0453291,29.350114 57.0453291,30.0028455 C57.0453291,30.6635322 56.9529268,31.1553246 56.5845415,31.5388044 C56.3307921,31.8003049 55.9467004,32 55.416968,32 C54.8868276,32 54.510487,31.8003049 54.2567377,31.5388044 C53.8883523,31.1553246 53.796358,30.6635322 53.796358,30.0028455 C53.796358,29.350114 53.8883523,28.8583216 54.2567377,28.4744338 C54.510487,28.2137492 54.8868276,28.0136462 55.416968,28.0136462 Z M52.1759927,28.0135034 C52.7132724,28.0135034 53.0904288,28.1673032 53.4586102,28.5589422 L52.9211266,29.0811274 C52.6755363,28.8122836 52.4831845,28.7125381 52.1759927,28.7125381 C51.8763482,28.7125381 51.6230067,28.8351292 51.4539085,29.0584858 C51.2850142,29.2734792 51.2236166,29.5494623 51.2236166,30.0031107 C51.2236166,30.4559432 51.2850142,30.7398814 51.4539085,30.9552828 C51.6230067,31.1782314 51.8763482,31.3010265 52.1759927,31.3010265 C52.4831845,31.3010265 52.6755363,31.201485 52.9211266,30.9324372 L53.4586102,31.4468712 C53.0904288,31.8385101 52.7132724,31.9998572 52.1759927,31.9998572 C51.3003126,31.9998572 50.4401348,31.4623736 50.4401348,30.0031107 C50.4401348,28.5438478 51.3003126,28.0135034 52.1759927,28.0135034 Z M67.8290047,2.84217094e-14 L67.8290047,31.9997552 L64.4788602,31.9997552 L64.4788602,30.2653252 L66.0941667,30.2653252 L66.0941667,1.73443006 L1.73443006,1.73443006 L1.73443006,30.2653252 L46.9385361,30.2653252 L46.9385361,31.9997552 L3.15544362e-30,31.9997552 L3.15544362e-30,2.84217094e-14 L67.8290047,2.84217094e-14 Z M49.6202428,30.6696108 L49.6202428,31.95386 L48.2629692,31.95386 L48.2629692,30.6696108 L49.6202428,30.6696108 Z M61.7837521,28.013381 C62.1827342,28.013381 62.5366371,28.1441313 62.7669289,28.366468 C63.0663695,28.6587693 63.1814135,29.0273586 63.1814135,29.4650967 L63.1814135,31.9538396 L62.3979317,31.9538396 L62.3979317,29.5805486 C62.3979317,28.9737123 62.0525959,28.7126196 61.6144498,28.7126196 C61.1924181,28.7126196 60.8081224,28.9814634 60.8081224,29.5422006 L60.8081224,31.9538396 L60.0248446,31.9538396 L60.0248446,29.5805486 C60.0248446,28.9737123 59.6788969,28.7126196 59.2413628,28.7126196 C58.8036247,28.7126196 58.4352393,28.9814634 58.4352393,29.5805486 L58.4352393,31.9538396 L57.6515536,31.9538396 L57.6515536,28.0592762 L58.419533,28.0592762 L58.419533,28.4513231 C58.6810336,28.1673848 59.0645133,28.013381 59.4565602,28.013381 C59.9403975,28.013381 60.316738,28.2053249 60.5625322,28.5820733 C60.8772712,28.1977777 61.2691141,28.013381 61.7837521,28.013381 Z M55.416968,28.7128848 C55.1864721,28.7128848 54.9945283,28.7891728 54.8484796,28.9354255 C54.6102326,29.1736725 54.5796358,29.5808138 54.5796358,30.0028455 C54.5796358,30.4254892 54.6102326,30.8324265 54.8484796,31.0704695 C54.9945283,31.2167222 55.1864721,31.3009653 55.416968,31.3009653 C55.6472598,31.3009653 55.8465469,31.2167222 55.9930035,31.0704695 C56.2310466,30.8324265 56.2614394,30.4254892 56.2614394,30.0028455 C56.2614394,29.5808138 56.2310466,29.1736725 55.9930035,28.9354255 C55.8465469,28.7891728 55.6472598,28.7128848 55.416968,28.7128848 Z M11.0220654,7.92001999 C12.3921897,7.92001999 13.2886756,8.29330083 14.1859775,9.29055222 L14.1859775,8.06892437 L17.3248002,8.06892437 L17.3248002,20.5773002 C17.3248002,23.6924615 15.1079608,25.9594797 11.6191108,25.9594797 C9.62623981,25.9594797 8.25631951,25.5607015 6.91046869,24.2654374 L8.9294489,22.2219797 C9.65071724,22.9193826 10.3742293,23.2180072 11.4700024,23.2180072 C13.4133065,23.2180072 14.086232,21.847883 14.086232,20.5279374 L14.086232,19.2073799 C13.2391088,20.1534327 12.2675587,20.5020321 10.9965681,20.5020321 C9.72557739,20.5020321 8.62939638,20.0787765 7.90731212,19.3566923 C6.68670416,18.1358803 6.58634669,16.4657035 6.58634669,14.1984814 C6.58634669,11.9310552 6.68670416,10.2875996 7.90731212,9.06515587 C8.62939638,8.34368355 9.74985084,7.92001999 11.0220654,7.92001999 Z M42.0390313,8.06896517 L44.7315489,16.0924635 L47.3220771,8.06896517 L50.7352511,8.06896517 L45.17867,23.1437998 C44.9053386,23.866088 44.606306,24.4135666 44.2073239,24.8131607 C43.4597423,25.5607423 42.4879882,25.8100041 41.4173045,25.8100041 L40.1457019,25.8100041 L40.1457019,22.8951499 L40.8947113,22.8951499 C41.8146548,22.8951499 42.1895675,22.6709774 42.5132816,21.7237008 L43.0605561,20.129404 L38.6262653,8.06896517 L42.0390313,8.06896517 Z M55.8849765,7.91959163 C57.9033447,7.91959163 59.597795,8.26859902 60.8436963,9.43882427 L58.8508253,11.4580085 C58.1032438,10.7848791 56.957496,10.5859999 55.8360216,10.5859999 C54.5397376,10.5859999 53.992055,11.1840652 53.992055,11.8321052 C53.992055,12.3047236 54.1917501,12.8530181 55.3372939,12.9525597 L57.3803436,13.1528667 C59.9472103,13.4021285 61.2426784,14.7720488 61.2426784,16.9633909 C61.2426784,19.8301062 58.8002387,21.2000265 55.7356641,21.2000265 C53.6926144,21.2000265 51.8494638,20.976262 50.2045803,19.3307666 L52.3226941,17.2128568 C53.3939898,18.2857842 54.7892034,18.4342806 55.7854349,18.4342806 C56.9073172,18.4342806 58.0787663,18.0609998 58.0787663,17.0890418 C58.0787663,16.4407978 57.729351,15.9926568 56.7074182,15.8931152 L54.6643685,15.6936241 C52.3226941,15.4698596 50.8777097,14.4479268 50.8777097,12.0558697 C50.8777097,9.36498401 53.2446774,7.91959163 55.8849765,7.91959163 Z M32.569855,7.92081551 C36.2084253,7.92081551 38.1029786,9.46636138 38.1029786,12.5070704 L38.1029786,12.5070704 L38.1029786,21.0556097 L34.9378426,21.0556097 L34.9378426,19.9341353 C34.0654261,20.8063478 33.2427804,21.1800366 31.7478213,21.1800366 C30.2771355,21.1800366 29.205228,20.8063478 28.432965,20.0332689 C27.7351542,19.3107767 27.3610574,18.2635506 27.3610574,17.1173948 C27.3610574,15.0486438 28.7819724,13.3543975 31.797796,13.3543975 L31.797796,13.3543975 L34.8629825,13.3543975 L34.8629825,12.7063575 C34.8629825,11.2854426 34.1651717,10.6628999 32.445836,10.6628999 C31.3086553,10.6628999 30.7318038,10.9129776 30.1290471,11.5426596 L30.1290471,11.5426596 L28.4870193,9.13081658 C29.5711656,8.20658953 30.7428187,7.92081551 32.569855,7.92081551 Z M25.5802222,7.9208767 C26.4038878,7.9208767 27.0702859,8.05795032 27.6820178,8.39818663 L27.6820178,8.39818663 L25.9404484,11.3660753 C25.5410583,11.0246151 25.1384046,10.8369548 24.4840412,10.8369548 C23.4869938,10.8369548 22.3902009,11.5845364 22.3902009,13.2298278 L22.3902009,13.2298278 L22.3902009,21.0554669 L19.1502047,21.0554669 L19.1502047,8.07039302 L22.3155447,8.07039302 L22.3155447,9.31670228 C22.9386993,8.56891672 24.1843967,7.9208767 25.5802222,7.9208767 Z M34.8629825,15.5722569 L32.2955038,15.5722569 C31.1240547,15.5722569 30.4762186,16.1205514 30.4762186,17.0433506 C30.4762186,17.9400405 31.0746919,18.5376978 32.3460905,18.5376978 C33.2427804,18.5376978 33.8163683,18.4632456 34.3893442,17.9149511 C34.7383515,17.5910331 34.8629825,17.068032 34.8629825,16.2700677 L34.8629825,16.2700677 L34.8629825,15.5722569 Z M11.9438447,10.8348742 C10.025222,10.8348742 9.82634282,12.4797577 9.82634282,14.1984814 C9.82634282,15.917817 10.025222,17.5869739 11.9438447,17.5869739 C13.8618555,17.5869739 14.086232,15.917817 14.086232,14.1984814 C14.086232,12.4797577 13.8618555,10.8348742 11.9438447,10.8348742 Z"
    />
</svg>