<svg xmlns="http://www.w3.org/2000/svg" viewBox="0 0 12 12">
  <path fill-rule="evenodd" d="M 11.386719 11.917969 L 11.917969 11.386719 C 12.027344 11.277344 12.027344 11.101562 11.917969 10.988281 L 9.074219 8.144531 C 9.019531 8.089844 8.949219 8.0625 8.875 8.0625 L 8.5625 8.0625 C 9.8125 6.621094 10.105469 4.582031 9.308594 2.847656 C 8.515625 1.109375 6.78125 0 4.875 0 C 2.183594 0 0 2.183594 0 4.875 C 0 6.78125 1.109375 8.515625 2.847656 9.308594 C 4.582031 10.105469 6.621094 9.8125 8.0625 8.5625 L 8.0625 8.875 C 8.0625 8.949219 8.09375 9.019531 8.144531 9.074219 L 10.988281 11.917969 C 11.101562 12.027344 11.277344 12.027344 11.386719 11.917969 Z M 4.875 8.625 C 2.804688 8.625 1.125 6.945312 1.125 4.875 C 1.125 2.804688 2.804688 1.125 4.875 1.125 C 6.945312 1.125 8.625 2.804688 8.625 4.875 C 8.625 6.945312 6.945312 8.625 4.875 8.625 Z M 4.875 8.625" clip-rule="evenodd"/>
</svg>