<svg viewBox="0 2 20 20" xmlns="http://www.w3.org/2000/svg">
    <path d="M13.181808,20.2062654 C17.6588634,13.0277471 18.4999678,12.2496766 18.4999678,9.74998391 C18.4999678,6.0200314 15.4760569,3 11.7499839,3 C8.0200314,3 5,6.02391094 5,9.74998391 C5,12.2501916 5.843439,13.0314893 10.3181254,20.2062654 C10.9785052,21.2651389 12.5221836,21.2638687 13.181808,20.2062654 Z M11.7499839,19.3124611 C7.27025063,12.1295482 6.68749598,11.676123 6.68749598,9.74998391 C6.68749598,6.95403873 8.95403873,4.68749598 11.7499839,4.68749598 C14.5459291,4.68749598 16.8124718,6.95403873 16.8124718,9.74998391 C16.8124718,11.6678489 16.2792929,12.0500692 11.7499839,19.3124611 Z M11.7499839,12.5624772 C13.3032753,12.5624772 14.5624772,11.3032753 14.5624772,9.74998391 C14.5624772,8.19669247 13.3032753,6.93749061 11.7499839,6.93749061 C10.1966925,6.93749061 8.93749061,8.19669247 8.93749061,9.74998391 C8.93749061,11.3032753 10.1966925,12.5624772 11.7499839,12.5624772 Z"></path>
</svg>