<svg viewBox="20 20 40 28" xmlns="http://www.w3.org/2000/svg"><rect x="20" y="20" width="40" height="28" rx="14" fill="#fff"/><path fill-rule="evenodd" clip-rule="evenodd" d="M40.285 40.016a7.624 7.624 0 0 1-5.058 1.924c-4.307 0-7.798-3.605-7.798-8.053s3.491-8.054 7.798-8.054c1.93 0 3.697.724 5.059 1.924a7.624 7.624 0 0 1 5.058-1.924c4.307 0 7.799 3.606 7.799 8.054s-3.492 8.053-7.799 8.053a7.624 7.624 0 0 1-5.059-1.924Z" fill="#ED0006"/><path fill-rule="evenodd" clip-rule="evenodd" d="M40.286 40.016a8.145 8.145 0 0 0 2.74-6.13 8.145 8.145 0 0 0-2.74-6.129 7.624 7.624 0 0 1 5.058-1.924c4.307 0 7.799 3.606 7.799 8.054s-3.492 8.053-7.799 8.053a7.625 7.625 0 0 1-5.058-1.924Z" fill="#F9A000"/><path fill-rule="evenodd" clip-rule="evenodd" d="M40.285 40.017a8.145 8.145 0 0 0 2.74-6.13 8.145 8.145 0 0 0-2.74-6.13 8.145 8.145 0 0 0-2.74 6.13 8.145 8.145 0 0 0 2.74 6.13Z" fill="#FF5E00"/></svg>