<svg version="1.1" id="Layer_1_xA0_Image_00000059310149682323455240000013890203343768689031_" xmlns="http://www.w3.org/2000/svg" x="0" y="0" viewBox="0 0 54 58" style="enable-background:new 0 0 54 58" xml:space="preserve">
  <style>
    .st0{fill:#fff}
  </style>
  <path class="st0" d="m6.3 39-.2.4c-.2.4-.3.7-.5.9-.1.2-.3.4-.4.5s-.2.1-.4.1-.3-.1-.4-.2c-.2-.2-.4-.7-.5-1.4-.1-.5-.2-1-.2-1.4 0-.3 0-.5.1-.7l.4-.4c.2-.1.3-.1.6-.1.1 0 .2 0 .3.1.1 0 .1.1.1.3v.6c0 .5 0 1 .1 1.4v.3s0-.1.1-.1 0 0 0-.1V39c.2-.3.3-.8.5-1.2.2-.5.3-.8.4-1l.1-.1c.1-.1.3-.2.6-.2.1 0 .2 0 .3.1.1 0 .1.1.1.3 0 .1 0 .3.1.6 0 .2 0 .5.1.9s.1.8.2 1c0 .1.1.3.1.6.1-.2.1-.3.1-.5.1-.4.1-.9.1-1.6v-.2c0-.2 0-.4.1-.5s.1-.2.2-.3c.1-.1.2-.2.4-.2.1-.1.2-.1.4-.1.1 0 .2 0 .3.1s.1.2.1.5c0 .5-.1 1.1-.3 1.8-.2.6-.4 1.2-.7 1.7-.1.2-.2.3-.3.4s-.2.2-.3.2c-.1 0-.2.1-.3.1-.4 0-.8-.3-1-.8-.1-.2-.2-.3-.2-.6-.1-.2-.1-.5-.2-.7V39zm4.2 1.9c-.1 0-.2-.1-.4-.2-.1-.1-.2-.2-.2-.4-.1-.1-.1-.3-.1-.5 0-.5.1-1 .3-1.6s.4-1 .6-1.3c.1-.1.2-.2.4-.2s.3.1.4.2.2.4.2.6c0 .4-.1.8-.2 1.3s-.3 1-.4 1.6c-.1.2-.2.4-.3.4-.1.1-.2.1-.3.1zm.6-4.4c-.3 0-.4-.2-.4-.5 0-.2 0-.3.1-.6.1-.2.2-.4.3-.5.1-.1.1-.1.2-.1h.2c.1 0 .2 0 .3.1s.1.2.1.4 0 .4-.1.6c-.1.2-.2.3-.3.5-.2 0-.3.1-.4.1zm2.9 2 .3-.3c.3-.3.5-.5.6-.7s.3-.2.4-.3.2-.1.4-.1.4.1.4.2c.1.1.1.3.1.6v2c0 .1 0 .2.1.3v.3c-.1.1-.2.2-.4.2-.1.1-.3.1-.4.1-.2 0-.3-.1-.5-.2-.1-.1-.2-.3-.3-.5-.1-.2-.1-.4-.1-.7 0-.2 0-.4.1-.6l-.3.3c-.1.1-.1.2-.2.2-.3.4-.6.7-.8 1-.1.1-.2.2-.2.3-.2.4-.3.4-.4.4-.2 0-.3-.1-.5-.2s-.2-.3-.2-.5c0-.1 0-.3.1-.5 0-.2.1-.4.1-.6s.1-.5.2-.7.2-.5.2-.7c.1-.4.3-.6.5-.8.1-.1.3-.2.5-.2.3 0 .5.2.5.6 0 .2-.1.6-.2 1.1zm4.3 1.1c0 .2.1.3.3.3.2 0 .5-.1.9-.4.2-.2.3-.2.4-.2.1 0 .2 0 .2.1s.1.1.1.2c0 0 0 .1-.1.2l-.5.5c-.2.2-.4.3-.6.4s-.4.2-.6.2c-.2.1-.4.1-.5.1-.4 0-.7-.1-.9-.3-.2-.2-.3-.5-.3-.8 0-.3.1-.6.2-.9.1-.3.3-.7.5-.9.2-.3.5-.6.9-.9.4-.3.8-.4 1.2-.4.3 0 .5.1.6.3s.2.4.2.7c0 .2-.1.5-.2.7-.1.3-.3.5-.5.7-.2.2-.4.4-.6.5s-.4.2-.5.2c-.1-.2-.2-.2-.2-.3zm-.1-.1.3-.3c.2-.2.3-.4.4-.7.1-.2.1-.3.2-.5 0-.2.1-.4.1-.6 0-.2 0-.2-.1-.2s-.2.2-.4.6c-.1.2-.2.5-.3.8-.1.2-.1.5-.1.6-.1.1-.1.2-.1.3zm6.9-1.5.1-.3c.1-.2.2-.4.4-.6s.2-.3.3-.3c.1-.1.2-.1.3-.2.1 0 .2-.1.3-.1.2 0 .4.1.6.2s.3.3.4.6c.1.2.1.5.1.8 0 .5-.1.9-.3 1.3s-.5.8-.8 1c-.3.3-.7.4-1 .4-.2 0-.4 0-.5-.1-.1-.1-.3-.2-.4-.5v.2c-.2.6-.3 1.1-.5 1.3s-.2.5-.3.5c-.1.1-.1.1-.2.1-.2 0-.3-.1-.4-.2s-.2-.3-.2-.5c0-.3 0-.7.1-1.2s.2-.9.3-1.4.3-.9.4-1.3l.3-.6c.1-.2.2-.3.3-.4.1 0 .2-.1.2-.1.1 0 .2 0 .3.1s.1.2.1.3v.4c.1.2.1.4.1.6zm-.4 1.8c.1.2.2.4.5.4.2 0 .3-.1.5-.2.1-.1.2-.3.3-.6s.1-.5.1-.8V38c0-.2-.1-.2-.1-.2l-.2.2c-.1.2-.2.3-.4.5-.2.4-.4.8-.6 1.1 0 .1 0 .2-.1.2zm6.3-.2c-.3.3-.5.6-.8.8s-.4.4-.6.5c-.2 0-.4.1-.6.1-.3 0-.6-.1-.8-.3s-.3-.5-.3-.8c0-.2 0-.5.2-.7.1-.3.2-.6.4-.8.3-.5.7-.8 1.2-1.1.5-.3.9-.5 1.4-.5.4 0 .7.1.9.2.2.2.4.3.4.6 0 .2-.1.4-.2.5h.3s.1.1.1.2V40c0 .1.1.3.1.4-.2.2-.3.3-.5.4-.2.1-.3.1-.5.1-.5 0-.7-.4-.7-1.1v-.2zm.2-1c-.3.1-.4.1-.5.1-.1 0-.2 0-.2-.1 0 0 0-.1.1-.2.2-.2.2-.5.2-.7 0-.1 0-.2-.1-.3 0-.1-.1-.2-.1-.2s-.1 0-.2.2c-.3.3-.5.6-.6.9s-.2.6-.2.8c0 .2 0 .3.1.4s.1.2.2.2.2-.1.5-.3c.2-.2.5-.4.8-.7v-.1zm3.8-.1.3-.3c.3-.3.5-.5.6-.7.2-.2.3-.2.4-.3.1-.1.2-.1.4-.1s.3.1.4.2.1.3.1.6v2c0 .1 0 .2.1.3v.3c-.1.1-.2.2-.4.2s-.3.1-.4.1c-.2 0-.3-.1-.5-.2s-.2-.3-.3-.5c-.1-.2-.1-.4-.1-.7v-.6l-.3.3-.2.2c-.3.4-.6.7-.8 1-.1.1-.2.2-.2.3-.1.4-.2.4-.4.4s-.3-.1-.5-.2-.2-.3-.2-.5v-.5c0-.2.1-.4.1-.6s.1-.5.2-.7.2-.5.2-.7c.1-.4.3-.6.5-.8.1-.1.3-.2.5-.2.3 0 .5.2.5.6.1.2.1.6 0 1.1zm4.2 1.1c0 .2.2.3.3.3.2 0 .5-.1.9-.4.2-.2.3-.2.4-.2.1 0 .2 0 .2.1s.1.1.1.2c0 0 0 .1-.1.2l-.5.5c-.2.2-.4.3-.6.4-.2.1-.4.2-.6.2-.2.1-.4.1-.5.1-.4 0-.7-.1-.9-.3-.2-.2-.3-.5-.3-.8 0-.3.1-.6.2-.9.1-.3.3-.7.5-.9.2-.3.5-.6.8-.9.4-.3.8-.4 1.2-.4.3 0 .5.1.7.3s.2.4.2.7c0 .2-.1.5-.2.7-.1.3-.3.5-.5.7-.2.2-.4.4-.6.5s-.4.2-.5.2c-.1-.2-.1-.2-.2-.3zm0-.1.3-.3c.2-.2.3-.4.4-.7.1-.1.1-.3.1-.5s.1-.4.1-.6c0-.2 0-.2-.1-.2s-.2.2-.4.6c-.1.2-.2.5-.3.8s-.1.5-.1.6v.3zm4.7-1.9c.1-.3.2-.7.3-1 .1-.4.1-.6.1-.8v-.1s-.1.1-.2.3l-.3.6c-.2.5-.3.9-.4 1.2-.1.3-.2.6-.2.8v.7c0 .2 0 .3.1.4 0 .1.1.1.2.1.2 0 .3-.1.5-.2s.4-.3.5-.6c.1-.2.2-.3.3-.3.1 0 .1.1.1.2 0 .3-.1.6-.3.9-.2.3-.5.5-.8.7s-.6.3-1 .3-.7-.1-1-.4-.4-.6-.4-1c0-.3.1-.7.2-1.2s.3-.9.6-1.3.5-.8.8-1.2c.3-.4.6-.6.8-.8.2-.1.4-.2.6-.2.2 0 .3 0 .4.2.1.1.2.2.3.4.1.2.1.4.1.6 0 .5-.1.9-.3 1.3s-.4.8-.8 1.1l-.4.4c-.1.1-.3.1-.4.1-.1 0-.2 0-.2-.1 0 0 0-.1.1-.2.1-.2.2-.4.4-.7v-.1c.3 0 .3-.1.3-.1zm-28.2 8.9v1.4h-.8v-4h1.6c.3 0 .6 0 .8.2.2.1.4.3.5.5.1.2.2.4.2.7 0 .4-.1.7-.4.9-.3.2-.6.3-1.1.3h-.8zm0-.7h.7c.2 0 .4 0 .5-.2.1-.1.2-.2.2-.4s-.1-.3-.2-.5c-.1-.1-.3-.2-.5-.2h-.8v1.3zm6 .2c0 .4-.1.7-.2 1-.1.3-.3.5-.6.7s-.5.2-.9.2c-.3 0-.6-.1-.9-.2-.3-.2-.5-.4-.6-.7-.1-.3-.2-.6-.2-1v-.2c0-.4.1-.7.2-1s.3-.5.6-.7.5-.2.9-.2.6.1.9.2.5.4.6.7c.1.3.2.6.2 1v.2zm-.8-.2c0-.4-.1-.7-.2-1-.1-.2-.4-.3-.6-.3-.3 0-.5.1-.6.3s-.2.5-.2.9v.3c0 .4.1.7.2 1 .1.2.4.3.6.3.3 0 .5-.1.6-.3.1-.2.2-.5.2-1v-.2zm2.3 2.1h-.8v-4h.8v4zm4 0h-.8l-1.6-2.6v2.6H24v-4h.8l1.6 2.6v-2.6h.8v4zm3.7-3.4h-1.2v3.3h-.8v-3.3h-1.2v-.7h3.2v.7zm2.5 2.3c0-.2 0-.3-.2-.4s-.3-.2-.6-.3c-.3-.1-.5-.2-.7-.3-.5-.2-.7-.6-.7-1 0-.2.1-.4.2-.6.1-.2.3-.3.5-.4.2-.1.5-.1.8-.1.3 0 .5 0 .8.2.2.1.4.2.5.4s.2.4.2.6h-.8c0-.2-.1-.3-.2-.4-.1-.1-.3-.2-.5-.2s-.4 0-.5.1-.2.2-.2.3c0 .1.1.2.2.3s.3.2.6.2c.5.1.8.3 1 .5s.3.5.3.8c0 .3-.1.6-.4.8-.3.2-.6.3-1 .3-.3 0-.6-.1-.8-.2s-.4-.3-.6-.5c-.1-.2-.2-.4-.2-.7h.9c0 .4.3.7.8.7.2 0 .3 0 .5-.1.1.3.1.2.1 0z"/>
  <circle class="st0" cx="27.2" cy="28.9" r="24"/>
  <linearGradient id="SVGID_1_" gradientUnits="userSpaceOnUse" x1="21.855" y1="-9.337" x2="31.147" y2="63.746" gradientTransform="matrix(1 0 0 -1 0 60)">
    <stop offset="0" style="stop-color:#f3e868"/>
    <stop offset=".125" style="stop-color:#d18420"/>
    <stop offset=".202" style="stop-color:#fac73b"/>
    <stop offset=".232" style="stop-color:#eaab2d"/>
    <stop offset=".27" style="stop-color:#d28319"/>
    <stop offset=".366" style="stop-color:#e7a632"/>
    <stop offset=".446" style="stop-color:#f4bc41"/>
    <stop offset=".497" style="stop-color:#f9c447"/>
    <stop offset=".648" style="stop-color:#fff5c3"/>
    <stop offset=".669" style="stop-color:#fef0b4"/>
    <stop offset=".71" style="stop-color:#fde18c"/>
    <stop offset=".764" style="stop-color:#facb4b"/>
    <stop offset=".791" style="stop-color:#f9bf2a"/>
    <stop offset=".796" style="stop-color:#f9c232"/>
    <stop offset=".83" style="stop-color:#f9d15e"/>
    <stop offset=".865" style="stop-color:#f9de82"/>
    <stop offset=".898" style="stop-color:#f9e79f"/>
    <stop offset=".932" style="stop-color:#f9eeb3"/>
    <stop offset=".966" style="stop-color:#f9f3bf"/>
    <stop offset="1" style="stop-color:#f9f4c3"/>
  </linearGradient>
  <path d="M27 50.6c-12.1 0-21.9-10-21.7-22C5.4 16.8 15 7 27.2 7.1c11.9.1 21.6 9.7 21.6 21.8 0 12-9.9 21.7-21.8 21.7z" style="fill:url(#SVGID_1_)"/>
  <linearGradient id="SVGID_00000135652645797379135540000003058627327498044334_" gradientUnits="userSpaceOnUse" x1=".688" y1="31.149" x2="53.316" y2="31.149" gradientTransform="matrix(1 0 0 -1 0 60)">
    <stop offset="0" style="stop-color:#f3e868"/>
    <stop offset=".125" style="stop-color:#d18420"/>
    <stop offset=".202" style="stop-color:#fac73b"/>
    <stop offset=".232" style="stop-color:#eaab2d"/>
    <stop offset=".27" style="stop-color:#d28319"/>
    <stop offset=".366" style="stop-color:#e7a632"/>
    <stop offset=".446" style="stop-color:#f4bc41"/>
    <stop offset=".497" style="stop-color:#f9c447"/>
    <stop offset=".648" style="stop-color:#fff5c3"/>
    <stop offset=".669" style="stop-color:#fef0b4"/>
    <stop offset=".71" style="stop-color:#fde18c"/>
    <stop offset=".764" style="stop-color:#facb4b"/>
    <stop offset=".791" style="stop-color:#f9bf2a"/>
    <stop offset=".796" style="stop-color:#f9c232"/>
    <stop offset=".83" style="stop-color:#f9d15e"/>
    <stop offset=".865" style="stop-color:#f9de82"/>
    <stop offset=".898" style="stop-color:#f9e79f"/>
    <stop offset=".932" style="stop-color:#f9eeb3"/>
    <stop offset=".966" style="stop-color:#f9f3bf"/>
    <stop offset="1" style="stop-color:#f9f4c3"/>
  </linearGradient>
  <path style="fill:url(#SVGID_00000135652645797379135540000003058627327498044334_)" d="M17.3 52.6c.4.1.9.1 1.3.1 1.5 0 3 .3 4.3 1 .9.4 1.7.8 2.7 1.1.8.3 1.7.4 2.5.1 1-.3 2-.8 2.9-1.2 1-.5 1.9-.9 3-1h.9c.7 0 1.9-.1 1.9-.1.5 0 .9-.1 1.4-.3.1 0 .1 0 .2-.1.7-.1 1.2-.4 1.7-.9.6-.6 1.2-1.3 1.7-2.1.4-.5.7-1 1.1-1.4.6-.7 1.3-1.2 2.1-1.6.9-.5 1.8-1.1 2.7-1.7.8-.6 1.3-1.3 1.6-2.3l.6-3c.1-.6.2-1.2.4-1.8.2-.7.6-1.2.9-1.8.5-.9 1.1-1.8 1.6-2.7.4-.8.6-1.6.4-2.4-.1-.6-.3-1.2-.5-1.8-.3-.8-.6-1.7-.8-2.5-.1-.5-.2-.9-.2-1.4 0-1.1.1-2.2.2-3.3v-1.7c0-.5-.2-1-.5-1.4-.4-.5-.8-1-1.2-1.4l-1.8-1.8c-.6-.5-1-1.2-1.3-1.9-.3-.7-.6-1.4-.9-2-.3-.6-.5-1.2-.9-1.7-.4-.7-.9-1.2-1.6-1.5-.4-.2-.8-.3-1.2-.5-.9-.3-1.9-.6-2.8-.9-.6-.2-1.2-.5-1.7-.8-.4-.3-.9-.7-1.3-1-.8-.6-1.5-1.2-2.3-1.7-.4-.3-.9-.5-1.4-.5-.7 0-1.4.1-2.1.2-.9.2-1.9.4-2.8.5-.4.1-.8.1-1.2.1-.5 0-1-.1-1.5-.2-1-.2-2-.4-3.1-.5-.6-.1-1.3-.1-1.9.2-.4.2-.7.4-1 .6-.9.6-1.7 1.3-2.5 1.9-.7.6-1.5 1.1-2.4 1.4-.8.2-1.6.5-2.4.7-.6.2-1.1.3-1.6.6-.7.1-1.1.4-1.5.8-.3.5-.5 1-.8 1.5-.3.7-.7 1.5-1 2.2-.3.7-.7 1.4-1.2 2-.3.4-.7.7-1 1.1l-2.1 2.1c-.3.4-.7.9-.8 1.4-.1.4-.1.9-.1 1.3v.5c0 .5 0 1 .1 1.5s.1 1 .1 1.5c.1 1-.1 1.9-.4 2.8-.4 1.1-.8 2.3-1 3.5-.1.7-.2 1.4.1 2 .2.4.4.9.6 1.3.5.9 1.1 1.8 1.6 2.6.3.5.5.9.6 1.4.3 1 .4 1.9.6 2.9.1.7.3 1.4.5 2.1.2.4.4.8.7 1.2.5.4 1 .8 1.5 1.1.8.5 1.7 1 2.6 1.5.5.3.9.6 1.3 1 .4.5.9 1.1 1.3 1.6.6.8 1.2 1.5 1.9 2.2.4.4.9.7 1.5.8l1.7.5zM5.8 20.2c.5-1.1 1-2.2 1.6-3.2 1.2-2 2.6-3.7 4.4-5.3.3-.3.6-.5.9-.8l.5-.4c.4-.3.9-.6 1.3-.9 1.5-1 3.1-1.8 4.9-2.4 2.4-.8 4.8-1.2 7.2-1.2h2.1c.9.1 1.9.2 2.8.4 2.7.5 5.1 1.5 7.4 2.9 2.2 1.3 4.2 3 5.8 5.1 2.3 2.8 3.8 5.9 4.6 9.4.5 2.1.7 4.3.5 6.5-.1 1.2-.2 2.3-.5 3.5-.6 2.8-1.7 5.3-3.3 7.7-1.2 1.8-2.6 3.4-4.2 4.8-1.5 1.3-3.1 2.4-4.9 3.2-2.6 1.3-5.4 2-8.3 2.2-1.5.1-2.9.1-4.4-.1-2.2-.3-4.3-.8-6.3-1.7-2.4-1-4.6-2.4-6.5-4.2-1.7-1.6-3.2-3.4-4.4-5.5-1.1-2-1.9-4.1-2.4-6.3-.3-1.1-.4-2.3-.5-3.4-.1-1.5-.1-3 .1-4.6.2-1.7.6-3.4 1.2-5l.4-.7zM28.4 5.8z"/>
  <path d="M23.9 13.8c-1.2 0-2.8.1-2.9.2-.1 0-.2.2-.1.2s.1.3 0 .4v.2c.1.1.1.2.1.7v.6s-.1-.1-.1-.2c-.2-.4-.8-.9-1.3-1-.3-.1-.9-.1-1.1-.1-.9.1-1.8 1-2.1 2.1-.4 1.2-.1 2.8.6 4.1.5 1 1.8 2.3 2.9 3.1.4.3.6.4 1.7 1 .2.1.4.2.5.4.2.2.3.4.1.2-.3-.3-1-.1-1.1.3-.3.6.3 1.2 1 1.1.4-.1.6-.3.7-.7 0-.2 0-.2.1-.2 0 .1.2.4.4.9.3.6.4.8.4 1v.6c-.1.5-.1.6.1.8.1.1.3.2.4.2.1.1.3.2.4.3.4.3.5.6.2.6-.2 0-.3.2-.3.4 0 .3.2.5.8 1.2.7.7.7.8.8 1.4v.4h-.3c-.6.1-.9.3-1.1.7-.4.3-.4.3-.5.3-.8.2-1.1.3-1.2.8-.1.3-.1.3-.5.4-.4.1-.7.3-.8.4-.1.2-.3 1-.4 1.6 0 .3-.1.9-.1 1.2-.1.9-.1.9-.7 1.1-.7.3-1 .5-1.2 1-.3.7 0 1.1 1.1 1.5.9.3 2 .5 3.7.6.9.1 1.5.1 2.9.1 1.8 0 2.7 0 4.2-.2 1.6-.2 2.8-.6 3.2-.9.3-.2.3-.6.1-1-.2-.5-.6-.8-1.3-1.1-.4-.1-.5-.2-.5-.5 0-.1-.1-.6-.1-1.2-.1-1.2-.1-1.5-.3-1.9-.2-.5-.3-.6-1-.8l-.4-.1.1-.2c0-.1-.1-.3-.2-.4-.1-.1-.5-.3-.8-.4h-.4l-.2-.3c-.2-.4-.5-.6-1-.7h-.3v-.4c0-.6.1-.8.9-1.5.7-.7.9-1 .7-1.2 0-.1-.1-.2-.3-.2-.2-.1-.2-.1-.2-.2 0-.2.2-.3.7-.7.7-.4.7-.4.6-1v-.7c0-.1 0-.3.4-1.1.1-.2.2-.4.2-.5s.1-.2.1-.2 0 .1.1.2c0 .4.3.6.6.6.7.1 1.3-.5 1-1.1-.1-.3-.5-.5-.8-.5-.1 0-.2 0-.4.2l-.1.1.1-.1c.2-.2.4-.4 1.1-.8 1.2-.7 1.8-1.1 2.6-2 1.1-1.1 1.6-1.8 1.9-2.8.2-.7.3-1.1.3-1.8 0-.6 0-.7-.1-1.1-.3-.9-.9-1.7-1.6-2-.6-.3-1.4-.3-2.1 0-.4.2-.7.4-.9.8l-.1.3v-.6c0-.5 0-.6.1-.7.1 0 .1-.1 0-.2s-.1-.2 0-.4-.1-.3-2-.3c-.8-.2-5.7-.3-7-.3zm-4.7 2c.1 0 .4.1.5.2.2.1.6.5.8.8.2.3.3.8.3 1.2v.3l-.2-.1c-.2-.2-.5-.3-.7-.2-.4.1-.6.5-.5.9.1.4.3.6.7.6.4 0 .6-.1.7-.5.1-.1.1-.3.1-.3v-.1s.1.2.1.5c0 .4.1 1.2.2 1.8.3 2.2.5 3.2.9 4.3l-.3-.3c-.2-.2-.6-.5-1.1-.8-.9-.6-1.2-.9-1.8-1.5-1.2-1.2-1.9-2.8-1.9-4.1 0-1.1.8-2.5 1.5-2.7.3-.1.4-.1.7 0zm16.3.1c.3.1.7.6 1 1.2.6 1.2.4 2.5-.6 4.2-.7 1.1-1.5 1.9-3 2.9-.3.2-.6.5-.8.6-.1.2-.3.3-.3.2 0 0 0-.2.1-.3.3-.8.8-3.8 1-5.6 0-.2 0-.4.1-.5v-.2l.1.3c.1.5.4.7.8.7s.7-.2.7-.7c.1-.7-.7-1.1-1.2-.6l-.1.1v-.4c0-.2.1-.5.1-.6.2-.4.5-.9.8-1.1.4-.3 1-.4 1.3-.2zm-15.2 2.3c.1 0 .2.1.2.3 0 .1.1.1.1.2.1.1.1.1.1.2s-.3.2-.5.2c-.4 0-.6-.4-.5-.7.1-.1.3-.3.4-.2h.2zm13.9.1c.1.1.1.3 0 .5 0 .2-.1.2-.4.2-.2 0-.2 0-.4-.1l-.1-.1.1-.1c.1-.1.1-.1.1-.2.1-.3.5-.4.7-.2zm-12.3 7.6c.2.2.2.3 0 .5-.1.1-.3.2-.5 0-.1-.1-.1-.6 0-.6.1-.1.4 0 .5.1zm10.7-.1s.1.1.1.3c0 .2 0 .3-.1.4-.3.2-.7-.1-.5-.4 0-.3.3-.4.5-.3z" style="fill:#b28029"/>
  <path d="M9.9 31.6c-.1.2-.3.5-.6 1s-.6.8-.7.9c-.1.1-.2.1-.3.1-.1 0-.3-.1-.5-.2s-.3-.3-.3-.5c0-.1.5-.9 1.5-2.3.5-.8 1-1.6 1.4-2.3.9-1.6 1.4-2.5 1.6-2.7s.4-.4.6-.4c.3 0 .5.1.7.2.1.1.1.2.1.4v.4c.7 2.1 1.2 3.6 1.6 4.4.4.9.8 1.5 1.2 1.9l.4.4c0 .1.1.2.1.3 0 .2-.1.4-.2.5-.2.1-.3.2-.5.2-.3 0-.6-.2-.9-.5-.6-.4-.8-.8-1.1-1.4-.3-.6-.4-.9-.4-1-.2 0-.7.1-1.4.2s-1.3.3-1.7.4c-.1 0-.2.1-.3.1-.1 0-.2-.1-.3-.1zm3.3-1.8c-.1-.2-.4-1-.8-2.4 0-.1-.1-.2-.1-.2l-1.6 3c.2 0 .5-.1.7-.1.2 0 .6-.1 1.3-.2.1 0 .3 0 .5-.1zm8.4 0c0 .1-.3.7-.9 1.8 0 .1-.1.2-.1.2-.6 1.3-1.1 1.9-1.5 1.9-.5 0-1-.7-1.4-2-.4-1.3-.6-2.5-.6-3.3 0-.3.1-.6.2-.8.2-.2.4-.3.6-.3.2 0 .3.1.5.2.1.2.2.3.2.4l-.1.7v.7c0 .4.1.9.2 1.6.2.7.3 1 .3 1s.2-.3.6-1c.4-.9.8-1.5 1-2 .4-.7.7-1.2 1-1.4.2 0 .4.1.6.2.1.1.2.3.2.4v.5c0 1.1.3 2.2.9 3.1 0 0 .1 0 .1-.1s.1-.4.2-.8c.2-.9.5-1.6.8-2.3.3-.6.5-1 .7-1.2.2-.2.4-.2.6-.2.1 0 .3.1.4.2.1.1.2.2.2.4s0 .3-.1.4c-.5.6-.9 1.5-1.3 2.7-.4 1.2-.7 1.9-.8 2.2-.2.3-.3.4-.4.4-.3 0-.6-.1-.9-.2-.2-.1-.4-.4-.6-.7.1-.5-.1-1-.2-1.5-.2-.5-.3-.9-.4-1.2zm9.5 1.7c-1 1.3-1.9 2-2.9 2-.3 0-.6-.1-.9-.4-.2-.3-.4-.6-.4-1 0-1 .4-2.1 1.3-3.2s1.8-1.7 2.7-1.7c.5 0 .8.2.9.7.4 0 .6.2.6.5 0 .2 0 .4-.1.9-.2.8-.2 1.4-.2 1.9s0 .8.1 1c.1.2.1.3.1.4 0 .1.1.1.3.2.2.1.2.2.2.3 0 .2-.1.4-.3.5-.2.1-.4.2-.6.2-.6-.2-.9-.9-.8-2.3zm-.4-3.1c-.4 0-.9.4-1.5 1.3-.6.8-.9 1.5-.9 2.1 0 .3.1.5.2.5.4 0 1-.4 1.6-1.2.6-.8 1-1.5 1-2.1 0-.2 0-.3-.1-.4-.1-.2-.1-.2-.3-.2zm4.7 2.2.1-.2c.5-.9.9-1.7 1.5-2.2.5-.6 1-.9 1.5-.9.4 0 .7.1.9.3.2.2.4.5.4.7 0 .2 0 .3-.1.5-.1.1-.2.2-.3.2-.2 0-.4-.1-.6-.3-.1-.1-.2-.2-.3-.2-.3 0-.8.4-1.4 1.3-.7.9-1.1 1.9-1.2 2.9 0 .3-.1.5-.3.7-.1.1-.3.2-.6.2s-.4-.1-.6-.4-.2-.8-.2-1.4v-1.1c0-.4.1-1 .1-1.6v-.4c0-.4.1-.6.1-.8 0-.1.1-.3.3-.4s.3-.2.5-.2.4.1.5.2c.1.1.2.2.2.4s-.1.5-.3 1.1c-.1.2-.1.4-.2.7v.9zm8.4.9c-1 1.4-1.9 2.1-2.9 2.1-.4 0-.7-.2-1-.5-.2-.3-.4-.7-.4-1.2 0-1 .4-2 1.2-2.9.8-1 1.6-1.5 2.4-1.5.5 0 .8.1 1 .4.3-1.2.4-2 .5-2.3.1-.6.2-.9.3-1.1s.2-.3.3-.4c.2-.1.3-.2.4-.2.2 0 .3.1.4.2.1.2.2.4.2.6 0 .1-.1.4-.2.9-.3.8-.5 1.8-.8 2.9-.2 1.1-.3 2.1-.3 2.7 0 .6.1 1 .4 1 .1 0 .3 0 .5-.1s.3-.1.3-.1c.2 0 .3.1.3.3 0 .3-.2.5-.6.8-.4.3-.7.4-1.1.4-.4 0-.6-.2-.8-.6-.1-.4-.2-.8-.1-1.4zm-.6-2.9c-.5 0-1 .4-1.5 1.1-.5.7-.8 1.4-.8 2.1 0 .4.1.5.4.5.5 0 1-.4 1.6-1.2.6-.8 1-1.5 1-1.9 0-.1-.1-.3-.2-.4-.2-.1-.3-.2-.5-.2z" style="stroke:#231f20;stroke-width:.25;stroke-miterlimit:10;fill:#fff"/>
</svg>
