<svg viewBox="0 0 18 16" xmlns="http://www.w3.org/2000/svg">
  <g transform="translate(-3.000000, -4.000000)">
    <path d="M9.992476,19.9999619 C10.8065305,19.9999619 11.2952988,19.067469 10.8018613,18.419979 C10.2893503,17.7474648 9.98466352,16.9087217 9.98466352,15.9999714 C9.98466352,15.6527737 10.0352921,15.3190343 10.1224806,14.9999738 L10.9999809,14.9999738 C12.7081067,14.9999738 14.3837314,15.5877714 15.7181093,16.6546634 L18.3752685,18.7806044 C18.5462886,18.9174449 18.7638479,18.9997506 18.9996567,18.9999642 C19.7784024,18.9999642 19.9996543,18.2880824 19.9996543,17.9999666 L19.9996543,13.2227868 C20.5949593,12.8762301 20.9996521,12.2387194 20.9996521,11.5002873 C20.9999571,10.76155 20.5952644,10.1240394 19.9999595,9.77748256 L19.9999595,5.00030279 C19.9999595,4.72686594 19.7818203,4 19.000267,4 L18.9999619,4 C18.7774587,4 18.556512,4.07437116 18.3755737,4.21935983 L15.7184145,6.3453008 C14.3837314,7.41219279 12.7081067,8 10.9999809,8 L5,8 C3.89532257,8 3,8.89531304 3,9.99998569 L3,12.9999785 C3,14.1046512 3.89532257,14.9999738 5,14.9999738 L4.98498062,15.9999714 C4.98498062,17.2427663 5.27437812,18.4171409 5.7837458,19.4668516 C5.94591583,19.8008962 6.29997993,19.9999619 6.6712559,19.9999619 L9.992476,19.9999619 Z M18.499963,16.9593502 L16.6549662,15.4830964 C15.3174755,14.4137325 13.6927846,13.7527844 11.9999785,13.5627824 L11.9999785,9.43718186 C13.6927846,9.24717987 15.3174755,8.58623174 16.6552714,7.51656266 L18.499963,6.04061403 L18.499963,16.9593502 Z M10.4999821,13.4999869 L4.99999642,13.4999869 C4.72436112,13.4999869 4.49999642,13.2756127 4.49999642,12.9999869 L4.49999642,9.99998689 C4.49999642,9.72435159 4.72436112,9.49998689 4.99999642,9.49998689 L10.4999821,9.49998689 L10.4999821,13.4999869 Z M9.08497695,18.4999738 L6.99156763,18.4999738 C6.65529524,17.7046487 6.48497704,16.8652953 6.48497704,15.9999738 C6.48497704,15.555606 6.53874889,15.2081032 6.56624516,14.9999738 L8.59468271,14.9999738 C8.52937524,15.3343541 8.4846671,15.6690396 8.4846671,15.9999738 C8.4846671,16.8818357 8.69029405,17.7312295 9.08497695,18.4999738 Z" />
  </g>
</svg>
