<svg viewBox="0 0 24 24" xmlns="http://www.w3.org/2000/svg">
    <path d="M7.275,18.78125 C7.15833311,18.9270831 6.99791689,19 6.79375,19 C6.58958311,19 6.42916689,18.9270831 6.3125,18.78125 L5.21875,17.6875 C5.07291689,17.5708331 5,17.4104169 5,17.20625 C5,17.0020831 5.07291689,16.8416669 5.21875,16.725 L16.725,5.21875 C16.8416669,5.07291689 17.0020831,5 17.20625,5 C17.4104169,5 17.5708331,5.07291689 17.6875,5.21875 L18.78125,6.3125 C18.9270831,6.42916689 19,6.58958311 19,6.79375 C19,6.99791689 18.9270831,7.15833311 18.78125,7.275 L7.275,18.78125 Z" transform="translate(12.000000, 12.000000) rotate(-315.000000) translate(-12.000000, -12.000000) "/>
</svg>