<svg viewBox="20 20 40 28" xmlns="http://www.w3.org/2000/svg">
<g filter="url(#filter0_d_2808_50787)">
<rect x="20" y="20" width="40" height="28" rx="14" fill="white"/>
<path fill-rule="evenodd" clip-rule="evenodd" d="M31.3142 37.7812H29.5363C29.4146 37.7812 29.3112 37.8715 29.2922 37.9941L28.5732 42.648C28.5589 42.7398 28.6285 42.8226 28.7198 42.8226H29.5685C29.6902 42.8226 29.7937 42.7324 29.8126 42.6095L30.0066 41.3543C30.0253 41.2314 30.129 41.1413 30.2504 41.1413H30.8132C31.9844 41.1413 32.6602 40.5627 32.8368 39.4163C32.9163 38.9148 32.8402 38.5207 32.61 38.2446C32.3574 37.9416 31.9092 37.7812 31.3142 37.7812ZM31.5193 39.481C31.4221 40.1323 30.9346 40.1323 30.4633 40.1323H30.195L30.3833 38.916C30.3944 38.8426 30.4568 38.7884 30.5296 38.7884H30.6526C30.9736 38.7884 31.2765 38.7884 31.433 38.9752C31.5262 39.0867 31.5549 39.2522 31.5193 39.481ZM36.6286 39.4601H35.7772C35.7047 39.4601 35.642 39.5143 35.6308 39.5879L35.5931 39.8309L35.5336 39.7429C35.3493 39.4697 34.9383 39.3785 34.5281 39.3785C33.5872 39.3785 32.7838 40.1059 32.6272 41.1263C32.5459 41.6352 32.6615 42.1219 32.9444 42.4613C33.2038 42.7734 33.5751 42.9034 34.0167 42.9034C34.7747 42.9034 35.1952 42.4058 35.1952 42.4058L35.1572 42.6474C35.1429 42.7397 35.2125 42.8225 35.3032 42.8225H36.0701C36.1921 42.8225 36.295 42.7322 36.3142 42.6094L36.7744 39.6348C36.7889 39.5433 36.7195 39.4601 36.6286 39.4601ZM35.4418 41.1517C35.3596 41.6482 34.9736 41.9815 34.4813 41.9815C34.2341 41.9815 34.0364 41.9006 33.9096 41.7472C33.7838 41.5949 33.7359 41.378 33.776 41.1366C33.8527 40.6443 34.2453 40.3002 34.7301 40.3002C34.9718 40.3002 35.1684 40.3821 35.2978 40.5368C35.4275 40.6931 35.479 40.9112 35.4418 41.1517ZM40.3073 39.46H41.1628C41.2827 39.46 41.3526 39.5972 41.2845 39.6975L38.439 43.8904C38.3929 43.9583 38.317 43.9987 38.2359 43.9987H37.3814C37.2611 43.9987 37.1909 43.8605 37.2605 43.7599L38.1465 42.4832L37.2042 39.6601C37.1716 39.562 37.2426 39.46 37.3448 39.46H38.1855C38.2947 39.46 38.3911 39.5332 38.4226 39.6399L38.9227 41.345L40.1027 39.5707C40.1489 39.5014 40.2257 39.46 40.3073 39.46Z" fill="#253B80"/>
<path fill-rule="evenodd" clip-rule="evenodd" d="M49.5835 42.648L50.3131 37.909C50.3243 37.8354 50.3867 37.7813 50.4593 37.781H51.2807C51.3714 37.781 51.441 37.864 51.4267 37.9559L50.7072 42.6095C50.6884 42.7324 50.585 42.8226 50.4631 42.8226H49.7295C49.6388 42.8226 49.5692 42.7398 49.5835 42.648ZM43.9956 37.7813H42.2174C42.0961 37.7813 41.9926 37.8715 41.9736 37.9941L41.2546 42.648C41.2402 42.7398 41.3099 42.8226 41.4007 42.8226H42.3131C42.3979 42.8226 42.4704 42.7595 42.4837 42.6735L42.6877 41.3543C42.7065 41.2314 42.8102 41.1413 42.9316 41.1413H43.4941C44.6655 41.1413 45.3412 40.5627 45.5179 39.4163C45.5977 38.9148 45.521 38.5207 45.291 38.2446C45.0385 37.9416 44.5906 37.7813 43.9956 37.7813ZM44.2007 39.481C44.1038 40.1323 43.6163 40.1323 43.1447 40.1323H42.8767L43.0652 38.916C43.0764 38.8426 43.1382 38.7884 43.2113 38.7884H43.3342C43.655 38.7884 43.9582 38.7884 44.1146 38.9752C44.2079 39.0867 44.2363 39.2522 44.2007 39.481ZM49.3096 39.4602H48.4588C48.3856 39.4602 48.3236 39.5143 48.3126 39.5879L48.275 39.8309L48.2152 39.7429C48.0309 39.4697 47.6202 39.3785 47.2099 39.3785C46.2691 39.3785 45.4658 40.1059 45.3093 41.1263C45.2282 41.6352 45.3433 42.1219 45.6262 42.4613C45.8861 42.7734 46.2569 42.9034 46.6985 42.9034C47.4566 42.9034 47.8769 42.4058 47.8769 42.4058L47.839 42.6474C47.8247 42.7397 47.8943 42.8225 47.9856 42.8225H48.7522C48.8736 42.8225 48.977 42.7322 48.996 42.6094L49.4564 39.6348C49.4705 39.5433 49.4009 39.4602 49.3096 39.4602ZM48.1229 41.1517C48.0412 41.6482 47.6547 41.9815 47.1623 41.9815C46.9156 41.9815 46.7175 41.9006 46.5906 41.7472C46.4648 41.5949 46.4175 41.378 46.4571 41.1366C46.5342 40.6443 46.9263 40.3002 47.4111 40.3002C47.6529 40.3002 47.8493 40.3821 47.9789 40.5368C48.1091 40.6931 48.1606 40.9112 48.1229 41.1517Z" fill="#179BD7"/>
<path d="M37.8931 36.1164L38.1117 34.6992L37.6249 34.6876H35.3L36.9157 24.2298C36.9206 24.1982 36.937 24.1688 36.9608 24.1479C36.9846 24.127 37.0152 24.1155 37.0469 24.1155H40.967C42.2684 24.1155 43.1664 24.3919 43.6353 24.9376C43.8551 25.1936 43.9952 25.461 44.0629 25.7554C44.1339 26.0643 44.1352 26.4333 44.0658 26.8834L44.0607 26.9163V27.2046L44.2806 27.3318C44.4658 27.432 44.6128 27.5468 44.7256 27.6782C44.9138 27.8971 45.0354 28.1752 45.0868 28.505C45.1398 28.8442 45.1223 29.2477 45.0354 29.7047C44.9351 30.2303 44.7729 30.688 44.554 31.0626C44.3525 31.4077 44.0959 31.6939 43.7913 31.9159C43.5004 32.1266 43.1547 32.2866 42.764 32.389C42.3853 32.4896 41.9537 32.5405 41.4802 32.5405H41.1751C40.957 32.5405 40.745 32.6206 40.5787 32.7645C40.412 32.9112 40.3016 33.1116 40.2678 33.331L40.2448 33.4586L39.8586 35.9563L39.8411 36.0481C39.8365 36.0772 39.8285 36.0917 39.8169 36.1015C39.8064 36.1103 39.7914 36.1164 39.7767 36.1164H37.8931Z" fill="#253B80"/>
<path d="M44.4893 26.9495C44.4776 27.0258 44.4643 27.1039 44.4492 27.1841C43.9322 29.8936 42.1636 30.8296 39.9047 30.8296H38.7547C38.4784 30.8296 38.2457 31.0344 38.2026 31.3125L37.6137 35.1249L37.447 36.2054C37.419 36.3881 37.5569 36.5527 37.7374 36.5527H39.7773C40.0189 36.5527 40.224 36.3736 40.262 36.1304L40.2821 36.0246L40.6662 33.5365L40.6909 33.4C40.7284 33.156 40.934 32.9768 41.1756 32.9768H41.4807C43.457 32.9768 45.0042 32.1577 45.4564 29.7874C45.6453 28.7972 45.5475 27.9704 45.0476 27.3889C44.8964 27.2135 44.7087 27.0681 44.4893 26.9495Z" fill="#179BD7"/>
<path d="M43.9483 26.7297C43.8694 26.7062 43.7878 26.6849 43.7042 26.6657C43.6203 26.6469 43.5341 26.6303 43.4456 26.6158C43.1355 26.5646 42.7957 26.5403 42.4317 26.5403H39.3592C39.2835 26.5403 39.2117 26.5578 39.1474 26.5893C39.0056 26.6589 38.9004 26.7958 38.8749 26.9635L38.2212 31.1896L38.2024 31.3129C38.2455 31.0347 38.4782 30.83 38.7545 30.83H39.9045C42.1634 30.83 43.9321 29.8935 44.449 27.1845C44.4644 27.1043 44.4774 27.0262 44.4891 26.9498C44.3583 26.879 44.2166 26.8184 44.0641 26.7668C44.0265 26.754 43.9877 26.7417 43.9483 26.7297Z" fill="#222D65"/>
<path d="M38.8747 26.9633C38.9002 26.7956 39.0056 26.6587 39.1472 26.5896C39.212 26.558 39.2835 26.5405 39.3591 26.5405H42.4317C42.7957 26.5405 43.1354 26.5648 43.4454 26.616C43.5341 26.6305 43.6202 26.6471 43.7042 26.6659C43.7878 26.6851 43.8693 26.7065 43.9483 26.7299C43.9875 26.7419 44.0264 26.7542 44.0644 26.7666C44.2169 26.8182 44.3586 26.8792 44.4894 26.9496C44.6433 25.9483 44.4882 25.2666 43.9579 24.6493C43.3733 23.9697 42.318 23.6787 40.9677 23.6787H37.0476C36.7717 23.6787 36.5366 23.8835 36.4938 24.1621L34.8611 34.7274C34.8289 34.9364 34.9868 35.125 35.1933 35.125H37.6135L38.2211 31.1894L38.8747 26.9633Z" fill="#253B80"/>
</g>
<defs>
<filter id="filter0_d_2808_50787" x="0" y="0" width="80" height="68" filterUnits="userSpaceOnUse" color-interpolation-filters="sRGB">
<feFlood flood-opacity="0" result="BackgroundImageFix"/>
<feColorMatrix in="SourceAlpha" type="matrix" values="0 0 0 0 0 0 0 0 0 0 0 0 0 0 0 0 0 0 127 0" result="hardAlpha"/>
<feOffset/>
<feGaussianBlur stdDeviation="10"/>
<feComposite in2="hardAlpha" operator="out"/>
<feColorMatrix type="matrix" values="0 0 0 0 0 0 0 0 0 0 0 0 0 0 0 0 0 0 0.07 0"/>
<feBlend mode="normal" in2="BackgroundImageFix" result="effect1_dropShadow_2808_50787"/>
<feBlend mode="normal" in="SourceGraphic" in2="effect1_dropShadow_2808_50787" result="shape"/>
</filter>
</defs>
</svg>
