<svg viewBox="0 0 18 18" xmlns="http://www.w3.org/2000/svg">
  <g transform="translate(-3.000000, -3.000000)">
    <path d="M14.1,12 L18.78125,16.725 C18.9270831,16.8416669 19,17.0020831 19,17.20625 C19,17.4104169 18.9270831,17.5708331 18.78125,17.6875 L17.6875,18.78125 C17.5708331,18.9270831 17.4104169,19 17.20625,19 C17.0020831,19 16.8416669,18.9270831 16.725,18.78125 L12,14.1 L7.275,18.78125 C7.15833311,18.9270831 6.99791689,19 6.79375,19 C6.58958311,19 6.42916689,18.9270831 6.3125,18.78125 L5.21875,17.6875 C5.07291689,17.5708331 5,17.4104169 5,17.20625 C5,17.0020831 5.07291689,16.8416669 5.21875,16.725 L9.90001168,12 L5.21875,7.275 C5.07291689,7.15833311 5,6.99791689 5,6.79375 C5,6.58958311 5.07291689,6.42916689 5.21875,6.3125 L6.3125,5.21875 C6.42916689,5.07291689 6.58958311,5 6.79375,5 C6.99791689,5 7.15833311,5.07291689 7.275,5.21875 L12,9.90001168 L16.725,5.21875 C16.8416669,5.07291689 17.0020831,5 17.20625,5 C17.4104169,5 17.5708331,5.07291689 17.6875,5.21875 L18.78125,6.3125 C18.9270831,6.42916689 19,6.58958311 19,6.79375 C19,6.99791689 18.9270831,7.15833311 18.78125,7.275 L14.1,12 Z" id="t" transform="translate(12.000000, 12.000000) rotate(-315.000000) translate(-12.000000, -12.000000) "></path>
  </g>
</svg>
