<svg width="28" height="28" viewBox="0 0 28 28" xmlns="http://www.w3.org/2000/svg">
<path d="M23.1 5.22062C18.7393 5.22062 14.2865 2.29042 14.2428 2.26102C14.0962 2.16259 13.9037 2.16259 13.7572 2.26102C13.7123 2.29055 9.25979 5.22062 4.89991 5.22062C4.78397 5.22062 4.67241 5.26765 4.59037 5.34969C4.50833 5.43172 4.4624 5.54219 4.4624 5.65813V11.7241C4.4624 20.987 13.7111 25.7185 13.804 25.7655V25.7666C13.9276 25.8278 14.072 25.8278 14.1956 25.7666C14.2886 25.7196 23.5372 20.9881 23.5372 11.7251V5.65811C23.5372 5.54217 23.4913 5.4317 23.4093 5.34966C23.3272 5.26653 23.2157 5.2206 23.0997 5.2206L23.1 5.22062ZM19.4315 10.4771L13.3644 16.5441C13.2004 16.7082 12.9772 16.8 12.7454 16.8C12.5135 16.8 12.2904 16.7082 12.1263 16.5441L9.09336 13.5111V13.5101C8.7521 13.1688 8.7521 12.6143 9.09336 12.273C9.43462 11.9317 9.98914 11.9317 10.3304 12.273L12.7454 14.688L18.1934 9.24005C18.5357 8.90209 19.087 8.90318 19.4271 9.24333C19.7672 9.58348 19.7694 10.1347 19.4315 10.4771Z"></path>
</svg>