<svg xmlns="http://www.w3.org/2000/svg" viewBox="0 0 20 20">
  <path fill-rule="evenodd" d="M10 3.22580645c.8907589 0 1.6129032-.72214434 1.6129032-1.61290322C11.6129032.72214434 10.8907589 0 10 0c-.8907589 0-1.6129032.72214434-1.6129032 1.61290323 0 .89075888.7221443 1.61290322 1.6129032 1.61290322zM4.06943044 5.68233367c.89075889 0 1.61290323-.72214434 1.61290323-1.61290323 0-.89079826-.72214434-1.61290322-1.61290323-1.61290322-.89075888 0-1.61290322.72214434-1.61290322 1.61290322 0 .89075889.72214434 1.61290323 1.61290322 1.61290323zM18.3870968 11.6129032C19.2778557 11.6129032 20 10.8907589 20 10c0-.8907589-.7221443-1.6129032-1.6129032-1.6129032-.8907589 0-1.6129033.7221443-1.6129033 1.6129032 0 .8907589.7221444 1.6129032 1.6129033 1.6129032zm-16.77419357 0c.89075888 0 1.61290322-.7221443 1.61290322-1.6129032 0-.8907589-.72214434-1.6129032-1.61290322-1.6129032C.72214434 8.3870968 0 9.1092411 0 10c0 .8907589.72214434 1.6129032 1.61290323 1.6129032zm14.31766637 5.9305696c.8907982 0 1.6129032-.7221444 1.6129032-1.6129032 0-.8907589-.722105-1.6129033-1.6129032-1.6129033-.8907589 0-1.6129033.7221444-1.6129033 1.6129033 0 .8907588.7221444 1.6129032 1.6129033 1.6129032zm-11.86113916 0c.89075889 0 1.61290323-.7221444 1.61290323-1.6129032 0-.8907589-.72214434-1.6129033-1.61290323-1.6129033-.89075888 0-1.61290322.7221444-1.61290322 1.6129033 0 .8907588.72214434 1.6129032 1.61290322 1.6129032zM10 20c.8907589 0 1.6129032-.7221443 1.6129032-1.6129032 0-.8907589-.7221443-1.6129033-1.6129032-1.6129033-.8907589 0-1.6129032.7221444-1.6129032 1.6129033C8.3870968 19.2778557 9.1092411 20 10 20z"/>
</svg>
