<svg xmlns="http://www.w3.org/2000/svg" viewBox="0 0 25 18" fill="var(--white)" height="24" width="24">
  <path d="M12.5 9.8c-.5 0-12 0-12 3.1 0 2.4 7 2.9 10 3l-1 1c-.3.3-.3.7 0 .9.3.3.7.3.9 0l1.9-1.9c.3-.3.3-.7 0-1-.5-.6-1.2-1.5-1.7-2-.2-.3-.7-.3-.9-.1-.3.2-.3.7-.1.9l.7.8c-4.2-.2-6.9-.8-7.9-1.3-.3-.2-.3-.6 0-.7 1.3-.6 4.8-1.4 10.1-1.4s8.8.7 10.1 1.4c.3.2.3.6 0 .7-1.1.5-4 1.2-8.5 1.3-.4 0-.7.3-.6.7 0 .4.3.7.7.6 2.8-.1 10.4-.6 10.4-3-.1-3-11.6-3-12.1-3zM2.3 8.7V7.4h.1c.8.4 1.4.6 2 .6.5 0 .9-.1 1.1-.3.3-.2.5-.5.5-.9 0-.3-.1-.5-.3-.7-.3-.2-.7-.3-1.4-.3h-.4v-1h.4c1 0 1.5-.3 1.5-.9 0-.3-.1-.5-.3-.6-.2-.2-.5-.3-.9-.3-.6 0-1.2.2-1.9.6h-.2V2.3c.8-.3 1.5-.4 2.3-.4.9 0 1.5.2 1.9.5.4.3.7.7.7 1.2 0 .4-.1.7-.4 1-.2.3-.6.5-1 .6v.1c.5.1.8.3 1.1.5.3.3.4.6.4 1.1 0 .7-.3 1.2-.8 1.6s-1.2.6-2 .6c-.9 0-1.7-.1-2.4-.4zM13.5 2v1.2h-.1C13 3 12.7 3 12.3 3c-1.3 0-2 .7-2.1 2 .6-.4 1.2-.5 1.6-.5.7 0 1.2.2 1.6.6.4.4.6.9.6 1.6 0 .7-.2 1.3-.7 1.8-.5.5-1.1.7-1.9.7-.9 0-1.6-.3-2.1-.8-.4-.7-.7-1.5-.7-2.5 0-1.3.3-2.3.9-3 .6-.7 1.5-1 2.7-1 .6 0 .9 0 1.3.1zm-3.3 3.7v.4c0 1.3.4 1.9 1.3 1.9.3 0 .6-.1.8-.4.2-.2.3-.6.3-1 0-.8-.4-1.3-1.3-1.3-.4.1-.8.2-1.1.4zM17.7 9.1c-.9 0-1.6-.3-2.1-.9-.4-.6-.7-1.5-.7-2.8 0-1.3.2-2.2.7-2.7.4-.6 1.1-.9 2.1-.9.9 0 1.6.3 2.1.9.4.6.7 1.5.7 2.7 0 1.3-.2 2.2-.7 2.8-.5.6-1.2.9-2.1.9zm0-6.1c-.4 0-.7.2-.9.6-.2.4-.3 1-.3 1.9 0 .9.1 1.5.3 1.9.2.4.5.6.9.6s.7-.2.9-.6c.2-.4.3-1.1.3-1.9 0-.9-.1-1.5-.3-1.9-.2-.4-.5-.6-.9-.6z"></path>
  <circle cx="21.9" cy="1.9" r="1.5"></circle>
</svg>