<svg viewBox="0 0 57 56" xmlns="http://www.w3.org/2000/svg">
<path d="M49.6616 25.7783C47.853 23.9697 45.5432 22.8644 42.9806 22.7148C45.8945 22.0115 48.0549 19.3986 48.0549 16.2844C48.0529 12.6673 45.0904 9.70287 41.4227 9.70287C38.3592 9.70287 35.7972 11.8126 35.043 14.6255C34.5398 11.4104 31.7774 9 28.4129 9C25.0968 9 22.385 11.4108 21.8334 14.5248C21.0777 11.7118 18.5154 9.70329 15.5527 9.70329C11.9355 9.70329 8.97322 12.6678 8.97322 16.2828C8.97322 19.3969 11.1334 22.0098 14.0475 22.7131C8.61971 23.0647 4.40039 27.5367 4.40039 32.9624V43.4118C4.50141 45.1699 6.00697 46.5259 7.76698 46.5259C8.1186 46.5259 8.47022 46.4754 8.82183 46.3258V46.3744C8.82183 46.9766 9.32499 47.4798 9.9272 47.4798C10.4789 47.4798 11.0326 46.9766 11.0326 46.3744V33.8151C11.0326 33.2129 10.5294 32.7097 9.9272 32.7097C9.37551 32.7097 8.77131 33.1623 8.77131 33.8151V43.2098C8.77131 43.812 8.31867 44.2646 7.71646 44.2646C7.11425 44.2646 6.56057 43.7615 6.56057 43.2098V33.0107C6.56057 28.5406 10.1778 24.9235 14.6478 24.9235H17.3597C18.164 24.9235 18.8672 25.0245 19.5705 25.2246C17.6608 27.1342 16.606 29.7452 16.606 32.5078V43.1574C16.6565 44.9155 18.164 46.3725 19.9221 46.3725C20.3242 46.3725 20.6759 46.322 21.0275 46.1724V46.423C21.0275 47.0252 21.5306 47.5283 22.1328 47.5283C22.6845 47.5283 23.2382 47.0252 23.2382 46.423V33.4633C23.2382 32.8611 22.7351 32.3579 22.1328 32.3579C21.5812 32.3579 21.0275 32.8611 21.0275 33.4633V42.9571C21.0275 43.5593 20.4758 44.113 19.9221 44.113C19.3199 44.113 18.8167 43.5613 18.8167 42.9571L18.8187 32.4591C18.8187 27.9385 22.5369 24.2207 27.0571 24.2207H29.8701C34.3907 24.2207 38.1086 27.9389 38.1086 32.4591V42.9086C38.1086 43.4603 37.5063 44.0645 36.9022 44.0645C36.3 44.0645 35.7463 43.5128 35.7463 42.9086V33.4637C35.7463 32.8615 35.2431 32.3584 34.6409 32.3584C34.0892 32.3584 33.5356 32.8615 33.5356 33.4637V46.3745C33.5356 46.9767 34.0387 47.4799 34.6409 47.4799C35.1926 47.4799 35.7463 46.9767 35.7463 46.3745V46.0734C36.0979 46.2249 36.5001 46.2735 36.9022 46.2735C38.6603 46.2735 40.2183 44.8165 40.3173 43.0584V32.4597C40.3173 29.6973 39.212 27.0842 37.3024 25.1264C37.9551 24.9263 38.6583 24.8253 39.3616 24.8253H42.0735C46.5436 24.8253 50.1607 28.4425 50.1607 32.9125V43.1597C50.1607 43.7114 49.609 44.2146 49.0048 44.2146C48.4026 44.2146 47.95 43.7619 47.95 43.1597L47.9539 33.8657C47.9539 33.2635 47.4507 32.7603 46.8485 32.7603C46.2968 32.7603 45.7431 33.2635 45.7431 33.8657V46.4751C45.7431 47.0774 46.2463 47.5805 46.8485 47.5805C47.4002 47.5805 47.9539 47.0774 47.9539 46.4751V46.3741C48.3055 46.4751 48.6571 46.5742 49.0087 46.5742C50.7668 46.5742 52.2743 45.1677 52.3753 43.4601V33.0107C52.5754 30.2987 51.5691 27.7366 49.6615 25.778L49.6616 25.7783ZM11.1312 16.2845C11.1312 13.8737 13.0893 11.9135 15.5022 11.9135C17.913 11.9135 19.8732 13.8717 19.8732 16.2845C19.8732 18.6954 17.915 20.6555 15.5022 20.6555C13.0913 20.6536 11.1312 18.6954 11.1312 16.2845ZM22.0332 17.4889C22.6354 19.6492 24.343 21.4073 26.5032 22.0601C24.7451 22.1611 23.0881 22.7128 21.6817 23.6181C20.3763 23.0159 18.9193 22.6643 17.4624 22.6643H17.2118C19.6712 22.0096 21.5807 20.0009 22.0333 17.4893L22.0332 17.4889ZM41.4227 20.6535C39.0119 20.6535 37.0517 18.6953 37.0517 16.2825C37.0517 13.8717 39.0099 11.9115 41.4227 11.9115C43.8335 11.9115 45.7937 13.8697 45.7937 16.2825C45.7937 18.6953 43.8336 20.6535 41.4227 20.6535ZM39.7657 22.6642H39.5151C38.0076 22.6642 36.6011 22.9653 35.3967 23.5675C33.8892 22.6642 32.1816 22.1105 30.4235 22.06C32.6342 21.3567 34.2913 19.5987 34.8935 17.3881C35.3442 19.9505 37.2538 22.0098 39.7656 22.6642L39.7657 22.6642ZM28.4617 20.1018C26.0003 20.1018 23.9916 18.0931 23.9916 15.6318C23.9916 13.1704 26.0003 11.1617 28.4617 11.1617C30.923 11.1617 32.9317 13.1704 32.9317 15.6318C32.9336 18.0912 30.923 20.1018 28.4617 20.1018Z" />
</svg>
