<svg viewBox="0 0 24 24" xmlns="http://www.w3.org/2000/svg">
  <path d="M13.3296987,20.5057108 L20.5057108,13.3296987 C21.1646829,12.6706923 21.1646829,11.6022057 20.5057108,10.9432336 L13.0567235,3.49424626 C12.7839198,3.22144265 12.2493333,3 11.8635081,3 L4.68749598,3 C3.75551425,3 3,3.75551425 3,4.68749598 L3,11.8635081 C3,12.2493676 3.22144265,12.7839198 3.49424626,13.0567235 L10.9432336,20.5057108 C11.6022057,21.1646829 12.6706923,21.1647173 13.3296987,20.5057108 Z M12.1365863,19.3123238 L4.68749598,11.8635081 L4.68749598,4.68749598 L11.8635081,4.68749598 L19.3124611,12.136449 L12.1365863,19.3123238 Z M8.06248793,9.74998391 C8.99446966,9.74998391 9.74998391,8.99446966 9.74998391,8.06248793 C9.74998391,7.1305062 8.99446966,6.37499195 8.06248793,6.37499195 C7.1305062,6.37499195 6.37499195,7.1305062 6.37499195,8.06248793 C6.37499195,8.99446966 7.1305062,9.74998391 8.06248793,9.74998391 Z" />
</svg>
