<svg width="24" height="24" xmlns="http://www.w3.org/2000/svg"><rect width="24" height="24" rx="12" fill="#fff"/><path fill-rule="evenodd" clip-rule="evenodd" d="M14.56 10.335a4.72 4.72 0 0 0 2.753.873V9.253c-.194.001-.387-.02-.576-.061v1.557a4.717 4.717 0 0 1-2.756-.883v4.02a3.655 3.655 0 0 1-5.675 3.033 3.655 3.655 0 0 0 6.255-2.554v-4.03Zm.714-1.994a2.733 2.733 0 0 1-.713-1.609v-.254h-.548a2.762 2.762 0 0 0 1.26 1.863Zm-5.7 7.03a1.668 1.668 0 0 1 1.338-2.68c.172 0 .344.025.508.077v-2.02a3.864 3.864 0 0 0-.58-.032v1.57a1.67 1.67 0 0 0-1.257 3.085h-.01Z" fill="#EE1D52"/><path fill-rule="evenodd" clip-rule="evenodd" d="M13.98 9.853a4.718 4.718 0 0 0 2.756.883V9.179a2.749 2.749 0 0 1-1.462-.838 2.763 2.763 0 0 1-1.261-1.863h-1.44v7.887a1.67 1.67 0 0 1-3 1.006 1.671 1.671 0 0 1 1.257-3.085v-1.57a3.652 3.652 0 0 0-2.524 6.203 3.654 3.654 0 0 0 5.684-3.033l-.01-4.033Z" fill="#000"/><path fill-rule="evenodd" clip-rule="evenodd" d="M16.736 9.178v-.42a2.733 2.733 0 0 1-1.462-.417c.387.427.899.72 1.462.838Zm-2.723-2.7c0-.075-.023-.153-.033-.228v-.254h-1.987v7.89a1.668 1.668 0 0 1-1.67 1.661 1.649 1.649 0 0 1-.75-.176 1.671 1.671 0 0 0 3-1.006V6.478h1.44Zm-3.183 4.235v-.446a3.652 3.652 0 0 0-2.524 6.652 3.652 3.652 0 0 1 2.534-6.19l-.01-.016Z" fill="#69C9D0"/></svg>