<svg viewBox="0 0 57 56" xmlns="http://www.w3.org/2000/svg">
<path d="M31.5539 8.00011C25.6197 8.00087 19.9908 10.6418 16.1935 15.2012V15.2009C15.923 15.5134 15.7897 15.9215 15.8235 16.3333C15.8571 16.7453 16.0551 17.1263 16.3727 17.3906C16.6903 17.655 17.101 17.7805 17.5119 17.7387C17.9231 17.697 18.3003 17.4919 18.5583 17.1692C21.7728 13.3097 26.532 11.0777 31.5539 11.0769C40.9185 11.0757 48.4772 18.6356 48.4772 28.0001C48.4772 37.3647 40.9178 44.9273 31.5539 44.9234C26.5348 44.9211 21.779 42.6838 18.5674 38.8237V38.8235C18.3091 38.5008 17.932 38.2957 17.521 38.2539C17.1098 38.2122 16.6991 38.3377 16.3815 38.6021C16.064 38.8665 15.866 39.2474 15.8324 39.6594C15.7988 40.0711 15.9321 40.4793 16.2026 40.7918C19.9958 45.3511 25.6212 47.9974 31.5539 48C42.5822 48.0059 51.5539 39.0277 51.5539 28C51.5539 16.9723 42.5816 7.99805 31.5539 8L31.5539 8.00011Z" />
<path d="M6.93918 26.4604C6.38952 26.4604 5.88162 26.7539 5.60651 27.2299C5.33168 27.7061 5.33168 28.2926 5.60651 28.7687C5.8816 29.2448 6.38955 29.5382 6.93918 29.5382H19.2443C19.794 29.5382 20.3019 29.2448 20.577 28.7687C20.8518 28.2926 20.8518 27.7061 20.577 27.2299C20.3019 26.7538 19.7939 26.4604 19.2443 26.4604H6.93918Z" />
<path d="M11.5544 20.3057C11.0048 20.3057 10.4966 20.5988 10.2217 21.075C9.94692 21.5511 9.94692 22.1376 10.2217 22.6137C10.4966 23.0898 11.0048 23.3832 11.5544 23.3832H19.2428C19.7924 23.3832 20.3003 23.0898 20.5754 22.6137C20.8502 22.1376 20.8502 21.5511 20.5754 21.075C20.3003 20.5988 19.7924 20.3057 19.2428 20.3057H11.5544Z" />
<path d="M11.5544 32.616C11.0048 32.616 10.4966 32.9094 10.2217 33.3855C9.94692 33.8616 9.94692 34.4481 10.2217 34.9242C10.4966 35.4004 11.0048 35.6937 11.5544 35.6937H19.2428C19.7924 35.6937 20.3006 35.4003 20.5754 34.9242C20.8503 34.4482 20.8502 33.8616 20.5754 33.3855C20.3006 32.9093 19.7924 32.616 19.2428 32.616H11.5544Z" />
<path d="M31.532 15.6714C31.1238 15.6772 30.7347 15.8452 30.4504 16.1381C30.1659 16.431 30.0097 16.8249 30.0158 17.2331V27.9995C30.0148 28.4079 30.1761 28.8003 30.4644 29.0897L36.6198 35.2394V35.2392C36.9048 35.543 37.3008 35.7183 37.7174 35.7249C38.1339 35.7316 38.5352 35.5692 38.8299 35.2745C39.1243 34.9799 39.2869 34.5785 39.2803 34.162C39.2737 33.7454 39.0984 33.3494 38.7945 33.0644L33.0933 27.3633V17.2333L33.0936 17.2335C33.0997 16.8175 32.9371 16.4164 32.6429 16.1223C32.3488 15.8281 31.948 15.6655 31.5319 15.6718L31.532 15.6714Z" />
</svg>
