<svg viewBox="0 0 12 12"  xmlns="http://www.w3.org/2000/svg" >
    <g transform="translate(-1017.000000, -468.000000)">
        <g  transform="translate(272.000000, 448.000000)">
            <g  transform="translate(257.000000, 16.000000)">
                <g  transform="translate(486.000000, 0.000000)">
                    <g  transform="translate(0.000000, 2.000000)">
                        <path d="M8,14 C11.3145161,14 14,11.3145161 14,8 C14,4.68548387 11.3145161,2 8,2 C4.68548387,2 2,4.68548387 2,8 C2,11.3145161 4.68548387,14 8,14 Z M8,12.8387097 C5.3266129,12.8387097 3.16129032,10.6733871 3.16129032,8 C3.16129032,5.3266129 5.3266129,3.16129032 8,3.16129032 C10.6733871,3.16129032 12.8387097,5.3266129 12.8387097,8 C12.8387097,10.6733871 10.6733871,12.8387097 8,12.8387097 Z M9.91613376,10.4628985 L10.4628985,9.91613376 C10.5766129,9.80241935 10.5766129,9.61855784 10.4628985,9.50484343 L8.95805507,8 L10.4628985,6.49515657 C10.5766129,6.38144216 10.5766129,6.19758065 10.4628985,6.08386624 L9.91613376,5.5371015 C9.80241935,5.4233871 9.61855784,5.4233871 9.50484343,5.5371015 L8,7.04194493 L6.49515657,5.5371015 C6.38144216,5.4233871 6.19758065,5.4233871 6.08386624,5.5371015 L5.5371015,6.08386624 C5.4233871,6.19758065 5.4233871,6.38144216 5.5371015,6.49515657 L7.04194493,8 L5.5371015,9.50484343 C5.4233871,9.61855784 5.4233871,9.80241935 5.5371015,9.91613376 L6.08386624,10.4628985 C6.19758065,10.5766129 6.38144216,10.5766129 6.49515657,10.4628985 L8,8.95805507 L9.50484343,10.4628985 C9.61855784,10.5766129 9.80241935,10.5766129 9.91613376,10.4628985 Z"></path>
                    </g>
                </g>
            </g>
        </g>
    </g>
</svg>
