<svg viewBox="0 0 100 100" xmlns="http://www.w3.org/2000/svg">
  <path clip-rule="evenodd" d="M68.75 80.833a11.25 11.25 0 0 0 11.25 -11.25h5.625c1.029 0 1.875 -0.846 1.875 -1.875v-1.875a1.879 1.879 0 0 0 -1.875 -1.875h-1.875v-13.604a8.5 8.5 0 0 0 -2.471 -5.967l-9.833 -9.833a8.508 8.508 0 0 0 -5.967 -2.471H61.25V27.396c0 -3.625 -2.942 -6.563 -6.563 -6.563h-35.625C15.438 20.833 12.5 23.775 12.5 27.396v35.625c0 3.625 2.942 6.563 6.563 6.563H20a11.25 11.25 0 0 0 22.5 0h15a11.25 11.25 0 0 0 11.25 11.25ZM21.558 63.958h-2.496a0.942 0.942 0 0 1 -0.938 -0.938v-35.625c0 -0.517 0.421 -0.938 0.938 -0.938h35.625c0.517 0 0.938 0.421 0.938 0.938v36.563H40.942A11.188 11.188 0 0 0 31.25 58.333c-4.158 0 -7.746 2.275 -9.692 5.625Zm54.471 -16.875H61.25V37.708h4.229c0.742 0 1.467 0.304 1.992 0.821l8.558 8.554Zm2.096 16.3A11.25 11.25 0 0 0 68.75 58.333c-2.896 0 -5.508 1.125 -7.5 2.917v-8.542h16.875v10.675ZM31.25 75.208a5.625 5.625 0 1 1 0 -11.25 5.625 5.625 0 0 1 0 11.25Zm37.5 0a5.625 5.625 0 1 1 0 -11.25 5.625 5.625 0 0 1 0 11.25Z"/>
</svg>
