<svg viewBox="20 20 40 28" xmlns="http://www.w3.org/2000/svg">
<rect x="20" y="20" width="40" height="28" rx="14" fill="white"/>
<path fill-rule="evenodd" clip-rule="evenodd" d="M32.1434 38.9681H29.7201L27.903 31.8913C27.8168 31.5657 27.6336 31.2779 27.3643 31.1423C26.692 30.8014 25.9512 30.5301 25.1431 30.3933V30.1209H29.0467C29.5854 30.1209 29.9895 30.5301 30.0569 31.0055L30.9997 36.1102L33.4217 30.1209H35.7776L32.1434 38.9681ZM37.1248 38.9681H34.8363L36.7207 30.1209H39.0093L37.1248 38.9681ZM41.9696 32.5717C42.037 32.0952 42.4411 31.8228 42.9125 31.8228C43.6533 31.7544 44.4602 31.8912 45.1337 32.2309L45.5377 30.326C44.8643 30.0536 44.1235 29.9167 43.4512 29.9167C41.23 29.9167 39.6138 31.1422 39.6138 32.843C39.6138 34.1369 40.7586 34.8163 41.5668 35.2256C42.4411 35.6337 42.7778 35.9061 42.7104 36.3142C42.7104 36.9264 42.037 37.1988 41.3647 37.1988C40.5566 37.1988 39.7485 36.9948 39.0088 36.6539L38.6048 38.5599C39.4129 38.8996 40.2872 39.0365 41.0953 39.0365C43.5859 39.1037 45.1337 37.8794 45.1337 36.0418C45.1337 33.7276 41.9696 33.592 41.9696 32.5717ZM53.1429 38.9681L51.3258 30.1209H49.374C48.9699 30.1209 48.5658 30.3933 48.4311 30.8014L45.0663 38.9681H47.4221L47.8924 37.6754H50.787L51.0564 38.9681H53.1429ZM49.7111 32.5035L50.3833 35.8379H48.4989L49.7111 32.5035Z" fill="#172B85"/>
</svg>
