<svg xmlns="http://www.w3.org/2000/svg" viewBox="0 0 54 58" xml:space="preserve">
  <g fill="#A16F88">
    <path d="M16.2 4.02c.19-1 .63-1.88 1.2-2.69.27-.38.77-.37 1.19-.42.79-.09 1.54.12 2.31.27.91.17 1.83.3 2.74.48.7.13 1.39.31 2.09.44.59.12 1.18.23 1.78.3.47.05.95.17 1.42.27.59.12 1.18.16 1.77.25.83.12 1.65.26 2.48.35.63.07 1.27.06 1.9.08.79.03 1.58.02 2.37.07 1.28.08 2.44.47 3.38 1.38.5.48.96.98 1.43 1.48.4.42.92.55 1.46.62.73.1 1.45.24 2.16.41.53.13.7.61.91 1.04.25.51.41 1.07.9 1.44.67.5 1.4.82 2.25.87.62.03 1.23.07 1.81.37.82.42 1.16 1.45 1.02 2.23-.1.55-.22 1.09-.28 1.64-.08.8.23 1.5.62 2.18.3.52.28 1.13-.11 1.6-.47.56-.94 1.11-1.32 1.74-.12.19-.23.39-.34.58-.26.47-.29.96-.16 1.48.18.68.34 1.37.5 2.06.15.62.02 1.2-.34 1.72-.64.94-1.58 1.55-2.5 2.18-.33.23-.65.46-.82.83-.31.67-.01.9.58 1.01.58.11 1.16.03 1.74.06.15.01.28.04.41.12.43.26.45.65.03.9-.35.21-.72.38-1.14.43-.63.08-1.23.28-1.77.6-.2.12-.38.36-.53.58-.56.82-.8 1.75-.98 2.71-.12.65-.06 1.3-.03 1.95.07 1.32.21 2.66-.43 3.9-.42.81-1.06 1.42-1.96 1.66-.59.16-1.22.17-1.82.29-.82.17-1.53.6-2.22 1.07-.71.48-1.35 1.04-2.01 1.58-.72.59-1.45 1.16-2.24 1.65-1.07.67-2.25 1.03-3.47 1.29-.47.1-.95.03-1.42.13-.36.08-.74.07-1.09.17-.35.1-.63.33-.8.67-.29.57-.38 1.19-.51 1.8-.13.64-.09 1.29-.05 1.93.03.51.08 1.02.08 1.53 0 .54-.14 1.04-.42 1.5-.25.41-.65.4-.86-.03-.48-.97-.72-2.01-.93-3.06-.21-1.06-.51-2.08-1.1-2.99-.59-.92-1.47-1.31-2.5-1.11-.96.19-1.83.62-2.53 1.36-.58.62-1.22 1.18-1.73 1.86-.05.06-.11.14-.21.11-.09-.03-.04-.13-.06-.19-.22-.69.19-1.26.35-1.88.11-.44.23-.88.07-1.34-.05-.15-.13-.21-.29-.2-.7.05-1.36.26-1.99.56-.42.2-.85.37-1.34.37a.91.91 0 0 1-.73-.34c-.63-.75-.94-1.64-1.07-2.59-.16-1.16-.74-2.04-1.68-2.72a10.22 10.22 0 0 0-4.17-1.79c-1.11-.21-2.24-.35-3.33-.65-.37-.1-.76-.01-1.14-.08-.88-.17-1.29-.72-1.11-1.57.24-1.14.53-2.27.93-3.36.24-.67.45-1.35.6-2.05.12-.56.24-1.12.18-1.7-.11-1-.39-1.97-.77-2.91-.26-.63-.49-1.28-.51-1.98-.02-.64.26-1.16.69-1.62.1-.11.21-.22.31-.34.56-.63 1.32-.74 2.09-.84h.03c.65-.09.77-.3.41-.84-.54-.83-.72-1.76-.85-2.71-.04-.28-.08-.57-.13-.85-.05-.29.01-.59.08-.86.17-.64-.09-1.06-.57-1.42-.48-.36-.93-.77-1.29-1.26a2.28 2.28 0 0 1-.41-.96c-.12-.64.22-1.04.72-1.35.18-.11.36-.21.56-.27.43-.13.72-.42.91-.8.31-.61.72-1.16 1.11-1.72.51-.73.8-1.53.77-2.45 0-.6.37-1.04.86-1.4.46-.34.99-.52 1.51-.72.54-.19.96-.53 1.15-1.06.15-.4.24-.83.3-1.27.09-.59.21-1.17.45-1.72.34-.79 1.05-1.07 1.79-1.32.68-.23 1.28.03 1.85.33.56.29 1.1.62 1.66.91.06.01.1.03.15.04z"/>
    <path d="M19.86 54.19c.03-1.08.7-1.74 1.53-2.29.04-.03.09-.05.14-.08.32-.17.67-.36 1.03-.17.54.28.96.69 1.06 1.34.21 1.35-.37 2.36-1.43 3.11-.7.5-1.31.4-1.79-.25a2.77 2.77 0 0 1-.54-1.66zm25.75-49.9c-.01.98-.31 1.37-1.06 1.59-.13.04-.27.05-.4.01-.77-.25-1.37-.73-1.83-1.39-.25-.36-.23-.78-.03-1.15.51-.95 1.36-1.46 2.35-.68.59.46.93 1.05.97 1.62zM3.8 23.38c.03.52-.19.97-.56 1.36-.29.31-.76.4-1.14.22-.55-.27-.93-.68-1.21-1.24-.44-.89-.1-1.6.43-2.27.19-.24.49-.18.73-.13.76.12 1.78.95 1.75 2.06z"/>
  </g>
  <path d="m6.28 39.02-.19.4c-.17.36-.33.65-.48.87-.14.22-.28.38-.4.47s-.25.14-.39.14-.26-.06-.37-.18c-.21-.24-.38-.7-.52-1.37-.11-.54-.16-1.01-.16-1.4 0-.31.04-.55.11-.74.07-.18.18-.32.33-.4.15-.09.34-.13.59-.13.13 0 .22.02.27.07.06.04.1.13.12.26s.03.33.03.6c0 .49.02.95.07 1.38.01.02.02.14.04.35h.02c.02-.04.04-.08.05-.11s.02-.05.04-.08.02-.05.03-.07c.01-.02.02-.05.04-.09.16-.35.32-.76.49-1.21.2-.53.33-.85.4-.96.02-.03.05-.06.08-.09.14-.1.34-.15.6-.15.14 0 .24.03.31.08s.11.14.14.26c.02.12.04.32.05.59 0 .22.03.53.08.92a15.494 15.494 0 0 0 .3 1.65h.02c.06-.19.11-.34.13-.45.08-.37.13-.91.13-1.61v-.2c0-.21.02-.38.06-.5s.11-.24.2-.34c.1-.1.22-.19.36-.25.14-.07.25-.1.36-.1.12 0 .21.05.26.14.05.09.08.25.08.46 0 .48-.1 1.08-.3 1.8-.17.61-.4 1.18-.68 1.69-.09.16-.18.29-.26.4s-.17.17-.26.22c-.09.04-.2.06-.31.06-.42 0-.76-.27-1.02-.8-.08-.16-.15-.35-.21-.56a7.94 7.94 0 0 1-.16-.72c-.01-.05-.03-.14-.04-.29h-.04zm4.25 1.87a.566.566 0 0 1-.36-.18.949.949 0 0 1-.23-.38c-.05-.14-.07-.31-.07-.53 0-.48.09-1.03.27-1.64.18-.61.38-1.05.61-1.32.09-.11.22-.17.38-.17.17 0 .31.08.41.23s.16.36.16.61c0 .37-.05.81-.16 1.31s-.26 1.02-.45 1.56c-.08.22-.17.36-.28.44-.08.05-.17.07-.28.07zm.53-4.42c-.28-.01-.41-.17-.41-.5 0-.16.04-.35.12-.56.08-.21.17-.37.27-.47.05-.06.11-.1.16-.12s.12-.04.21-.04c.15 0 .25.04.32.11s.1.19.1.36c0 .21-.04.41-.11.59-.07.19-.17.34-.29.45-.12.12-.24.17-.37.17zm2.96 2.06.27-.31c.27-.3.48-.52.64-.66s.3-.25.42-.32.25-.1.38-.1c.21 0 .35.06.44.17.09.11.13.3.13.58 0 .11-.01.28-.04.51-.04.3-.05.58-.05.84 0 .29.01.53.04.71.02.11.05.22.09.33.03.11.04.18.04.21 0 .05-.02.08-.05.11-.09.08-.21.15-.36.21s-.28.09-.38.09c-.17 0-.32-.06-.46-.17-.14-.11-.24-.27-.32-.47-.07-.2-.11-.43-.11-.69 0-.17.02-.37.05-.6l-.02-.02c-.13.14-.23.25-.31.33s-.15.16-.22.23c-.33.38-.61.71-.84 1.02-.09.12-.17.22-.24.31-.09.11-.21.16-.35.16-.19 0-.34-.07-.46-.21a.8.8 0 0 1-.18-.54c0-.14.02-.31.05-.51.03-.2.08-.41.13-.64.05-.23.12-.46.19-.7s.16-.47.24-.69c.14-.36.3-.64.49-.84.13-.13.29-.2.48-.2.31 0 .46.2.46.59 0 .29-.06.71-.18 1.25l.03.02zm4.24 1.09c.03.18.15.26.34.26.22 0 .51-.13.86-.39.21-.15.34-.22.41-.22.09 0 .17.02.25.07.08.05.11.09.11.15 0 .05-.04.12-.13.21-.16.16-.33.31-.54.46-.2.15-.4.27-.59.37-.19.1-.38.18-.56.23-.19.06-.36.09-.5.09-.37 0-.66-.1-.88-.31-.22-.21-.33-.49-.33-.84 0-.27.06-.57.17-.9.12-.34.27-.65.47-.94.23-.34.52-.63.85-.86.42-.28.82-.41 1.2-.41.28 0 .49.09.65.26.16.17.24.42.24.72 0 .24-.06.49-.19.74-.12.26-.31.51-.55.74-.2.2-.4.36-.59.47-.19.11-.36.17-.5.17-.06-.02-.13-.04-.19-.07zm-.01-.14c.13-.09.24-.18.31-.27.16-.19.28-.41.36-.66.07-.16.12-.34.16-.54.04-.2.06-.39.06-.56 0-.16-.03-.24-.1-.24-.09 0-.24.21-.43.62-.11.25-.21.5-.28.75-.07.25-.11.46-.11.64-.01.06 0 .14.03.26zm6.82-1.52.14-.26c.13-.23.25-.42.36-.57.11-.15.21-.26.29-.33.08-.07.19-.13.3-.17.1-.04.2-.06.32-.06.22 0 .42.07.59.2.17.13.3.32.4.57.09.25.14.53.14.85 0 .46-.1.9-.31 1.33s-.48.77-.81 1.03c-.34.26-.68.39-1.04.39-.21 0-.38-.04-.52-.13s-.27-.24-.39-.45l-.03.07-.03.1c-.19.61-.34 1.06-.46 1.35s-.21.47-.29.53a.31.31 0 0 1-.22.09c-.17 0-.3-.08-.39-.25-.09-.17-.14-.4-.14-.69 0-.32.04-.71.11-1.16.07-.45.17-.91.29-1.38.12-.47.26-.9.42-1.28.1-.23.21-.44.33-.62s.23-.3.34-.38c.08-.05.16-.07.25-.07.13 0 .24.04.31.11s.11.18.11.31c0 .12-.01.24-.04.38-.02.14-.03.29-.05.47l.02.02zm-.34 1.88c.08.24.24.36.47.36.16 0 .31-.07.45-.22.14-.14.25-.34.33-.59s.13-.51.13-.78c0-.22-.02-.41-.05-.56s-.07-.24-.11-.24c-.03 0-.1.08-.22.23-.12.16-.24.34-.36.54-.25.4-.43.75-.56 1.06-.04.08-.06.15-.08.2zm6.23-.27v.02l-.02-.02c-.27.32-.52.58-.75.79s-.44.36-.63.46c-.19.1-.37.15-.53.15-.33 0-.6-.11-.81-.33-.21-.22-.32-.5-.32-.84 0-.21.05-.45.16-.74.11-.28.25-.56.44-.84.31-.45.7-.82 1.16-1.13.48-.32.94-.48 1.39-.48.38 0 .68.08.93.23.24.15.36.35.36.58 0 .17-.06.36-.18.55.16 0 .26.02.3.05.04.03.06.11.06.24 0-.01-.01.05-.02.18-.02.29-.03.56-.03.81v.3c0 .07.01.15.02.23s.02.16.03.21c.02.14.06.27.11.41-.18.17-.34.3-.51.38-.16.08-.33.12-.49.12-.45 0-.68-.38-.68-1.14 0-.07 0-.14.01-.19zm.26-1.01-.08.03c-.21.06-.36.09-.46.09-.11 0-.17-.03-.17-.09 0-.02.02-.08.07-.16.16-.25.25-.48.25-.7 0-.13-.02-.24-.07-.35-.04-.1-.09-.16-.14-.16-.05 0-.12.05-.22.15-.27.3-.49.6-.65.91-.16.31-.24.59-.24.83 0 .16.03.29.1.4s.15.16.25.16c.08 0 .24-.09.48-.27.23-.18.5-.42.79-.72l.12-.1-.03-.02zm3.76-.03.27-.31c.27-.3.48-.52.64-.66.16-.15.3-.25.42-.32.12-.06.25-.1.38-.1.21 0 .35.06.44.17s.13.3.13.58c0 .11-.01.28-.04.51-.04.3-.05.58-.05.84 0 .29.01.53.04.71.02.11.05.22.09.33.03.11.04.18.04.21 0 .05-.02.08-.05.11-.09.08-.21.15-.36.21s-.28.09-.38.09c-.17 0-.32-.06-.46-.17s-.24-.27-.32-.47c-.07-.2-.11-.43-.11-.69 0-.17.02-.37.05-.6l-.02-.02c-.13.14-.23.25-.31.33-.08.08-.15.16-.22.23-.33.38-.61.71-.84 1.02-.09.12-.17.22-.24.31-.08.11-.21.16-.35.16-.19 0-.34-.07-.46-.21a.8.8 0 0 1-.18-.54c0-.14.02-.31.05-.51.03-.2.08-.41.13-.64.05-.23.12-.46.19-.7.07-.24.16-.47.24-.69.13-.36.3-.64.49-.84.13-.13.29-.2.48-.2.3 0 .46.2.46.59 0 .29-.06.71-.18 1.25l.03.02zm4.24 1.09c.03.18.15.26.34.26.22 0 .51-.13.86-.39.21-.15.34-.22.41-.22.09 0 .17.02.25.07s.11.09.11.15c0 .05-.04.12-.13.21-.16.16-.33.31-.54.46-.2.15-.4.27-.58.37-.19.1-.38.18-.56.23-.19.06-.36.09-.5.09-.37 0-.66-.1-.88-.31-.22-.21-.33-.49-.33-.84 0-.27.06-.57.17-.9.12-.34.27-.65.47-.94.23-.34.52-.63.85-.86.42-.28.82-.41 1.2-.41.28 0 .49.09.65.26.16.17.24.42.24.72 0 .24-.06.49-.19.74-.12.26-.31.51-.55.74-.2.2-.39.36-.59.47s-.36.17-.5.17c-.07-.02-.14-.04-.2-.07zm-.01-.14c.13-.09.24-.18.31-.27.16-.19.28-.41.36-.66.07-.16.12-.34.16-.54.04-.2.06-.39.06-.56 0-.16-.03-.24-.1-.24-.09 0-.24.21-.43.62-.12.25-.21.5-.28.75-.07.25-.11.46-.11.64-.01.06 0 .14.03.26zm4.7-1.92c.12-.33.22-.68.29-1.04.08-.36.12-.64.12-.83 0-.05-.01-.08-.04-.08-.05 0-.13.11-.25.32-.12.21-.22.42-.29.64-.17.48-.3.88-.39 1.19-.09.32-.16.58-.19.79-.04.21-.05.43-.05.66 0 .19.02.33.06.42.04.09.11.13.2.13.16 0 .34-.07.54-.21.2-.14.38-.33.54-.56.13-.17.22-.26.29-.26.09 0 .14.07.14.22 0 .31-.1.62-.29.92-.2.3-.45.54-.76.73s-.62.28-.95.28c-.4 0-.72-.12-.97-.37s-.37-.58-.37-.98c0-.33.07-.71.21-1.16s.33-.89.57-1.33.5-.85.78-1.22c.28-.36.56-.64.84-.84a.91.91 0 0 1 .57-.19c.16 0 .3.05.43.15.13.1.23.24.3.41.07.18.11.37.11.58 0 .46-.09.91-.27 1.35-.18.44-.43.82-.75 1.14-.15.16-.3.28-.44.37s-.26.13-.37.13c-.1 0-.15-.04-.15-.12 0-.04.04-.13.12-.25.1-.16.22-.41.36-.73.01-.03.03-.07.04-.1-.01-.05 0-.1.02-.16zm-28.25 8.91v1.41h-.82v-3.99h1.56c.3 0 .56.05.79.16.23.11.4.26.52.47.12.2.18.43.18.69 0 .39-.13.7-.4.92-.27.23-.64.34-1.11.34h-.72zm0-.66h.73c.22 0 .38-.05.5-.15.11-.1.17-.25.17-.44 0-.2-.06-.35-.17-.47-.11-.12-.27-.18-.48-.19h-.75v1.25zm6.08.16c0 .39-.07.74-.21 1.03-.14.3-.34.52-.6.68-.26.16-.55.24-.89.24-.33 0-.63-.08-.88-.24a1.59 1.59 0 0 1-.6-.68c-.14-.29-.21-.63-.22-1.02v-.2c0-.39.07-.74.21-1.04.14-.3.34-.53.6-.69.26-.16.55-.24.89-.24s.63.08.89.24c.26.16.46.39.6.69.14.3.21.64.21 1.03v.2zm-.84-.18c0-.42-.08-.74-.22-.95a.725.725 0 0 0-.64-.33.74.74 0 0 0-.64.32c-.15.21-.23.53-.23.94v.19c0 .41.07.72.22.95.15.22.36.34.65.34.28 0 .49-.11.64-.32.15-.22.22-.53.22-.95v-.19zm2.31 2.09h-.82v-3.99h.82v3.99zm4 0h-.82l-1.6-2.62v2.62h-.82v-3.99h.82l1.6 2.63v-2.63h.82v3.99zm3.72-3.33h-1.22v3.32h-.82v-3.32h-1.21v-.67h3.25v.67zm2.49 2.28c0-.16-.05-.27-.16-.36s-.31-.17-.59-.26c-.29-.09-.51-.18-.68-.27-.45-.24-.68-.57-.68-.99 0-.22.06-.41.18-.58.12-.17.3-.3.52-.4.23-.09.48-.14.77-.14.28 0 .54.05.76.16.22.1.4.25.52.44s.18.4.18.64h-.82a.58.58 0 0 0-.17-.43c-.12-.1-.28-.15-.48-.15-.2 0-.36.04-.47.13s-.17.2-.17.34c0 .13.07.24.2.33.13.09.32.17.58.25.47.14.81.31 1.02.52.21.21.32.47.32.78 0 .34-.13.62-.39.81-.26.2-.61.29-1.05.29-.31 0-.59-.06-.84-.17s-.44-.27-.58-.46c-.13-.2-.2-.42-.2-.68h.82c0 .44.26.66.79.66.2 0 .35-.04.46-.12.11-.09.16-.2.16-.34z" fill="#FFF"/>
</svg>
