<svg xmlns="http://www.w3.org/2000/svg" viewBox="0 0 54 58" xml:space="preserve">
  <path d="m6.28 39.02-.19.4c-.17.36-.33.65-.48.87-.14.22-.28.38-.4.47s-.25.14-.39.14-.26-.06-.37-.18c-.21-.24-.38-.7-.52-1.37-.11-.54-.16-1.01-.16-1.4 0-.31.04-.55.11-.74.07-.18.18-.32.33-.4.15-.09.34-.13.59-.13.13 0 .22.02.27.07.06.04.1.13.12.26s.03.33.03.6c0 .49.02.95.07 1.38.01.02.02.14.04.35h.02c.02-.04.04-.08.05-.11s.02-.05.04-.08.02-.05.03-.07.02-.05.04-.09c.16-.35.32-.76.49-1.21.2-.53.33-.85.4-.96.02-.03.05-.06.08-.09.14-.1.34-.15.6-.15.14 0 .24.03.31.08s.11.14.14.26c.02.12.04.32.05.59 0 .22.03.53.08.92a15.494 15.494 0 0 0 .3 1.65h.02c.06-.19.11-.34.13-.45.08-.37.13-.91.13-1.61v-.2c0-.21.02-.38.06-.5s.11-.24.2-.34c.1-.1.22-.19.36-.25.14-.07.25-.1.36-.1.12 0 .21.05.26.14s.08.25.08.46c0 .48-.1 1.08-.3 1.8-.17.61-.4 1.18-.68 1.69-.09.16-.18.29-.26.4s-.17.17-.26.22c-.09.04-.2.06-.31.06-.42 0-.76-.27-1.02-.8-.08-.16-.15-.35-.21-.56a7.94 7.94 0 0 1-.16-.72c-.01-.05-.03-.14-.04-.29l-.04-.01zm4.25 1.87a.566.566 0 0 1-.36-.18.949.949 0 0 1-.23-.38c-.05-.14-.07-.31-.07-.53 0-.48.09-1.03.27-1.64s.38-1.05.61-1.32c.09-.11.22-.17.38-.17.17 0 .31.08.41.23s.16.36.16.61c0 .37-.05.81-.16 1.31s-.26 1.02-.45 1.56c-.08.22-.17.36-.28.44-.08.05-.17.07-.28.07zm.53-4.42c-.28-.01-.41-.17-.41-.5 0-.16.04-.35.12-.56.08-.21.17-.37.27-.47.05-.06.11-.1.16-.12s.12-.04.21-.04c.15 0 .25.04.32.11s.1.19.1.36c0 .21-.04.41-.11.59-.07.19-.17.34-.29.45-.12.12-.24.17-.37.17v.01zm2.96 2.06.27-.31c.27-.3.48-.52.64-.66s.3-.25.42-.32.25-.1.38-.1c.21 0 .35.06.44.17.09.11.13.3.13.58 0 .11-.01.28-.04.51-.04.3-.05.58-.05.84 0 .29.01.53.04.71.02.11.05.22.09.33.03.11.04.18.04.21 0 .05-.02.08-.05.11-.09.08-.21.15-.36.21s-.28.09-.38.09c-.17 0-.32-.06-.46-.17-.14-.11-.24-.27-.32-.47-.07-.2-.11-.43-.11-.69 0-.17.02-.37.05-.6l-.02-.02c-.13.14-.23.25-.31.33s-.15.16-.22.23c-.33.38-.61.71-.84 1.02-.09.12-.17.22-.24.31-.09.11-.21.16-.35.16-.19 0-.34-.07-.46-.21s-.18-.32-.18-.54c0-.14.02-.31.05-.51.03-.2.08-.41.13-.64s.12-.46.19-.7.16-.47.24-.69c.14-.36.3-.64.49-.84.13-.13.29-.2.48-.2.31 0 .46.2.46.59 0 .29-.06.71-.18 1.25l.03.02zm4.24 1.09c.03.18.15.26.34.26.22 0 .51-.13.86-.39.21-.15.34-.22.41-.22.09 0 .17.02.25.07s.11.09.11.15c0 .05-.04.12-.13.21-.16.16-.33.31-.54.46-.2.15-.4.27-.59.37s-.38.18-.56.23c-.19.06-.36.09-.5.09-.37 0-.66-.1-.88-.31-.22-.21-.33-.49-.33-.84 0-.27.06-.57.17-.9.12-.34.27-.65.47-.94.23-.34.52-.63.85-.86.42-.28.82-.41 1.2-.41.28 0 .49.09.65.26s.24.42.24.72c0 .24-.06.49-.19.74-.12.26-.31.51-.55.74-.2.2-.4.36-.59.47s-.36.17-.5.17c-.06-.02-.13-.04-.19-.07zm-.01-.14c.13-.09.24-.18.31-.27.16-.19.28-.41.36-.66.07-.16.12-.34.16-.54.04-.2.06-.39.06-.56 0-.16-.03-.24-.1-.24-.09 0-.24.21-.43.62-.11.25-.21.5-.28.75-.07.25-.11.46-.11.64-.01.06 0 .14.03.26zm6.82-1.52.14-.26c.13-.23.25-.42.36-.57s.21-.26.29-.33c.08-.07.19-.13.3-.17.1-.04.2-.06.32-.06.22 0 .42.07.59.2s.3.32.4.57c.09.25.14.53.14.85 0 .46-.1.9-.31 1.33s-.48.77-.81 1.03c-.34.26-.68.39-1.04.39-.21 0-.38-.04-.52-.13s-.27-.24-.39-.45l-.03.07-.03.1c-.19.61-.34 1.06-.46 1.35s-.21.47-.29.53a.31.31 0 0 1-.22.09c-.17 0-.3-.08-.39-.25s-.14-.4-.14-.69c0-.32.04-.71.11-1.16s.17-.91.29-1.38.26-.9.42-1.28c.1-.23.21-.44.33-.62s.23-.3.34-.38c.08-.05.16-.07.25-.07.13 0 .24.04.31.11s.11.18.11.31c0 .12-.01.24-.04.38-.02.14-.03.29-.05.47l.02.02zm-.34 1.88c.08.24.24.36.47.36.16 0 .31-.07.45-.22.14-.14.25-.34.33-.59s.13-.51.13-.78c0-.22-.02-.41-.05-.56s-.07-.24-.11-.24c-.03 0-.1.08-.22.23-.12.16-.24.34-.36.54-.25.4-.43.75-.56 1.06-.04.08-.06.15-.08.2zm6.23-.27v.02l-.02-.02c-.27.32-.52.58-.75.79s-.44.36-.63.46c-.19.1-.37.15-.53.15-.33 0-.6-.11-.81-.33s-.32-.5-.32-.84c0-.21.05-.45.16-.74.11-.28.25-.56.44-.84.31-.45.7-.82 1.16-1.13.48-.32.94-.48 1.39-.48.38 0 .68.08.93.23.24.15.36.35.36.58 0 .17-.06.36-.18.55.16 0 .26.02.3.05s.06.11.06.24c0-.01-.01.05-.02.18-.02.29-.03.56-.03.81v.3c0 .07.01.15.02.23s.02.16.03.21c.02.14.06.27.11.41-.18.17-.34.3-.51.38-.16.08-.33.12-.49.12-.45 0-.68-.38-.68-1.14 0-.07 0-.14.01-.19zm.26-1.01-.08.03c-.21.06-.36.09-.46.09-.11 0-.17-.03-.17-.09 0-.02.02-.08.07-.16.16-.25.25-.48.25-.7 0-.13-.02-.24-.07-.35-.04-.1-.09-.16-.14-.16s-.12.05-.22.15c-.27.3-.49.6-.65.91s-.24.59-.24.83c0 .16.03.29.1.4s.15.16.25.16c.08 0 .24-.09.48-.27.23-.18.5-.42.79-.72l.12-.1-.03-.02zm3.76-.03.27-.31c.27-.3.48-.52.64-.66.16-.15.3-.25.42-.32.12-.06.25-.1.38-.1.21 0 .35.06.44.17s.13.3.13.58c0 .11-.01.28-.04.51-.04.3-.05.58-.05.84 0 .29.01.53.04.71.02.11.05.22.09.33.03.11.04.18.04.21 0 .05-.02.08-.05.11-.09.08-.21.15-.36.21s-.28.09-.38.09c-.17 0-.32-.06-.46-.17s-.24-.27-.32-.47c-.07-.2-.11-.43-.11-.69 0-.17.02-.37.05-.6l-.02-.02c-.13.14-.23.25-.31.33s-.15.16-.22.23c-.33.38-.61.71-.84 1.02-.09.12-.17.22-.24.31-.08.11-.21.16-.35.16-.19 0-.34-.07-.46-.21s-.18-.32-.18-.54c0-.14.02-.31.05-.51.03-.2.08-.41.13-.64s.12-.46.19-.7.16-.47.24-.69c.13-.36.3-.64.49-.84.13-.13.29-.2.48-.2.3 0 .46.2.46.59 0 .29-.06.71-.18 1.25l.03.02zm4.24 1.09c.03.18.15.26.34.26.22 0 .51-.13.86-.39.21-.15.34-.22.41-.22.09 0 .17.02.25.07s.11.09.11.15c0 .05-.04.12-.13.21-.16.16-.33.31-.54.46-.2.15-.4.27-.58.37-.19.1-.38.18-.56.23-.19.06-.36.09-.5.09-.37 0-.66-.1-.88-.31-.22-.21-.33-.49-.33-.84 0-.27.06-.57.17-.9.12-.34.27-.65.47-.94.23-.34.52-.63.85-.86.42-.28.82-.41 1.2-.41.28 0 .49.09.65.26s.24.42.24.72c0 .24-.06.49-.19.74-.12.26-.31.51-.55.74-.2.2-.39.36-.59.47s-.36.17-.5.17c-.07-.02-.14-.04-.2-.07zm-.01-.14c.13-.09.24-.18.31-.27.16-.19.28-.41.36-.66.07-.16.12-.34.16-.54s.06-.39.06-.56c0-.16-.03-.24-.1-.24-.09 0-.24.21-.43.62-.12.25-.21.5-.28.75s-.11.46-.11.64c-.01.06 0 .14.03.26zm4.7-1.92c.12-.33.22-.68.29-1.04.08-.36.12-.64.12-.83 0-.05-.01-.08-.04-.08-.05 0-.13.11-.25.32s-.22.42-.29.64c-.17.48-.3.88-.39 1.19-.09.32-.16.58-.19.79-.04.21-.05.43-.05.66 0 .19.02.33.06.42.04.09.11.13.2.13.16 0 .34-.07.54-.21s.38-.33.54-.56c.13-.17.22-.26.29-.26.09 0 .14.07.14.22 0 .31-.1.62-.29.92-.2.3-.45.54-.76.73s-.62.28-.95.28c-.4 0-.72-.12-.97-.37s-.37-.58-.37-.98c0-.33.07-.71.21-1.16s.33-.89.57-1.33.5-.85.78-1.22c.28-.36.56-.64.84-.84a.91.91 0 0 1 .57-.19c.16 0 .3.05.43.15.13.1.23.24.3.41.07.18.11.37.11.58 0 .46-.09.91-.27 1.35s-.43.82-.75 1.14c-.15.16-.3.28-.44.37s-.26.13-.37.13c-.1 0-.15-.04-.15-.12 0-.04.04-.13.12-.25.1-.16.22-.41.36-.73.01-.03.03-.07.04-.1-.01-.05 0-.1.02-.16zm-28.25 8.91v1.41h-.82v-3.99h1.56c.3 0 .56.05.79.16.23.11.4.26.52.47.12.2.18.43.18.69 0 .39-.13.7-.4.92-.27.23-.64.34-1.11.34h-.72zm0-.66h.73c.22 0 .38-.05.5-.15.11-.1.17-.25.17-.44 0-.2-.06-.35-.17-.47-.11-.12-.27-.18-.48-.19h-.75v1.25zm6.08.16c0 .39-.07.74-.21 1.03-.14.3-.34.52-.6.68s-.55.24-.89.24c-.33 0-.63-.08-.88-.24a1.59 1.59 0 0 1-.6-.68c-.14-.29-.21-.63-.22-1.02v-.2c0-.39.07-.74.21-1.04s.34-.53.6-.69.55-.24.89-.24.63.08.89.24.46.39.6.69c.14.3.21.64.21 1.03v.2zm-.84-.18c0-.42-.08-.74-.22-.95a.725.725 0 0 0-.64-.33c-.28 0-.49.11-.64.32s-.23.53-.23.94v.19c0 .41.07.72.22.95.15.22.36.34.65.34.28 0 .49-.11.64-.32.15-.22.22-.53.22-.95v-.19zm2.31 2.09h-.82v-3.99h.82v3.99zm4 0h-.82l-1.6-2.62v2.62h-.82v-3.99h.82l1.6 2.63v-2.63h.82v3.99zm3.72-3.33h-1.22v3.32h-.82v-3.32h-1.21v-.67h3.25v.67zm2.49 2.28c0-.16-.05-.27-.16-.36s-.31-.17-.59-.26c-.29-.09-.51-.18-.68-.27-.45-.24-.68-.57-.68-.99 0-.22.06-.41.18-.58.12-.17.3-.3.52-.4.23-.09.48-.14.77-.14.28 0 .54.05.76.16.22.1.4.25.52.44s.18.4.18.64h-.82a.58.58 0 0 0-.17-.43c-.12-.1-.28-.15-.48-.15s-.36.04-.47.13-.17.2-.17.34c0 .13.07.24.2.33s.32.17.58.25c.47.14.81.31 1.02.52s.32.47.32.78c0 .34-.13.62-.39.81-.26.2-.61.29-1.05.29-.31 0-.59-.06-.84-.17s-.44-.27-.58-.46c-.13-.2-.2-.42-.2-.68h.82c0 .44.26.66.79.66.2 0 .35-.04.46-.12.11-.09.16-.2.16-.34z" fill="#FFF"/>
  <g transform="translate(0 496.75)">
    <path fill="#636466" d="M47.53-450.74c-.48.59-1.6.31-2.12.86-.53.56-.18 1.66-.75 2.17-.57.51-1.63.05-2.23.52-.61.47-.44 1.61-1.08 2.03-.64.42-1.61-.2-2.28.16-.67.37-.68 1.52-1.38 1.83-.7.31-1.56-.45-2.28-.2-.72.26-.91 1.4-1.65 1.59-.74.2-1.47-.69-2.22-.55-.75.14-1.12 1.24-1.88 1.32-.76.08-1.35-.92-2.11-.9-.76.02-1.3 1.04-2.06 1-.76-.04-1.19-1.12-1.94-1.22-.76-.1-1.44.83-2.19.67-.75-.16-1-1.29-1.73-1.51-.73-.22-1.56.59-2.27.32-.71-.28-.78-1.43-1.47-1.76-.69-.33-1.63.34-2.29-.04-.66-.38-.55-1.54-1.18-1.97-.63-.43-1.66.08-2.25-.4-.59-.48-.31-1.6-.86-2.13-.55-.53-1.65-.18-2.16-.75-.51-.57-.05-1.63-.52-2.24-.46-.61-1.61-.44-2.02-1.08-.42-.64.2-1.62-.16-2.29-.36-.67-1.52-.69-1.83-1.39-.31-.7.45-1.57.2-2.29s-1.39-.92-1.59-1.66c-.2-.74.69-1.48.55-2.23-.14-.75-1.23-1.12-1.31-1.89-.08-.76.91-1.35.89-2.12-.02-.77-1.04-1.3-1-2.07.04-.76 1.11-1.19 1.21-1.95.1-.76-.83-1.45-.67-2.2.16-.75 1.28-1 1.5-1.74.22-.74-.59-1.56-.32-2.28.27-.71 1.42-.79 1.75-1.48.33-.69-.34-1.63.04-2.3.38-.66 1.53-.56 1.96-1.19.43-.63-.08-1.67.4-2.26.48-.59 1.6-.31 2.12-.86.53-.56.18-1.66.75-2.17.57-.51 1.63-.05 2.23-.52.61-.47.44-1.61 1.08-2.03.64-.42 1.61.2 2.28-.16.67-.37.68-1.52 1.38-1.83.7-.31 1.56.45 2.28.2.72-.26.91-1.4 1.65-1.59.74-.2 1.47.69 2.22.55.75-.14 1.12-1.24 1.88-1.32.76-.08 1.35.92 2.11.9.76-.02 1.3-1.04 2.06-1 .76.04 1.19 1.12 1.94 1.22.76.1 1.44-.83 2.19-.67.75.16 1 1.29 1.73 1.51.73.22 1.56-.59 2.27-.32.71.28.78 1.43 1.47 1.76.69.33 1.63-.34 2.29.04.66.38.55 1.54 1.18 1.97.63.43 1.66-.08 2.25.4.59.48.31 1.6.86 2.13.55.53 1.65.18 2.16.75.51.57.05 1.63.52 2.24.46.61 1.61.44 2.02 1.08.42.64-.2 1.62.16 2.29.36.67 1.52.69 1.83 1.39.31.7-.45 1.57-.2 2.29s1.39.92 1.59 1.66c.2.74-.69 1.48-.55 2.23.14.75 1.23 1.12 1.31 1.89.08.76-.91 1.35-.89 2.12.02.77 1.04 1.3 1 2.07-.04.76-1.11 1.19-1.21 1.95-.1.76.83 1.45.67 2.2-.16.75-1.28 1-1.5 1.74-.22.74.59 1.56.32 2.28-.27.71-1.42.79-1.75 1.48-.33.69.34 1.63-.04 2.3-.38.66-1.53.56-1.96 1.19-.43.62.09 1.66-.4 2.26z"/>
    <path fill="#424344" d="M26.88-491.35c-13.13 0-23.8 10.67-23.8 23.8s10.67 23.8 23.8 23.8 23.8-10.67 23.8-23.8-10.67-23.8-23.8-23.8zm0 2.08c12.01 0 21.72 9.71 21.72 21.72s-9.71 21.72-21.72 21.72-21.72-9.71-21.72-21.72 9.71-21.72 21.72-21.72z"/>
    <linearGradient id="a" gradientUnits="userSpaceOnUse" x1="11.556" y1="-473.777" x2="42.482" y2="-442.851">
      <stop offset="0" style="stop-color:#f3e868"/>
      <stop offset=".125" style="stop-color:#d18420"/>
      <stop offset=".202" style="stop-color:#fac73b"/>
      <stop offset=".232" style="stop-color:#eaab2d"/>
      <stop offset=".27" style="stop-color:#d28319"/>
      <stop offset=".366" style="stop-color:#e7a632"/>
      <stop offset=".446" style="stop-color:#f4bc41"/>
      <stop offset=".497" style="stop-color:#f9c447"/>
      <stop offset=".648" style="stop-color:#fff5c3"/>
      <stop offset=".669" style="stop-color:#fef0b4"/>
      <stop offset=".71" style="stop-color:#fde18c"/>
      <stop offset=".764" style="stop-color:#facb4b"/>
      <stop offset=".791" style="stop-color:#f9bf2a"/>
      <stop offset=".796" style="stop-color:#f9c232"/>
      <stop offset=".83" style="stop-color:#f9d15e"/>
      <stop offset=".865" style="stop-color:#f9de82"/>
      <stop offset=".898" style="stop-color:#f9e79f"/>
      <stop offset=".932" style="stop-color:#f9eeb3"/>
      <stop offset=".966" style="stop-color:#f9f3bf"/>
      <stop offset="1" style="stop-color:#f9f4c3"/>
    </linearGradient>
    <path fill="url(#a)" d="M.48-462.7h53.08v8.77H.48z"/>
  </g>
  <path d="m10.45 39.71.8-3.9h.89l-1.2 5.18h-.86L9.1 37.2l-1.01 3.78h-.86l-1.2-5.18h.89l.8 3.89.99-3.89h.75l.99 3.91zm3.3 1.28h-.9v-5.18h.9v5.18zm5.22 0h-.9l-2.31-3.68v3.68h-.9v-5.18h.9l2.32 3.69v-3.69h.89v5.18zm4.09-2.32h-2.13v1.59h2.49v.72h-3.39V35.8h3.36v.73h-2.46v1.43h2.13v.71zm6.86.63c-.05.55-.26.98-.61 1.29-.36.31-.83.46-1.42.46-.41 0-.78-.1-1.09-.29-.31-.2-.56-.47-.73-.83-.17-.36-.26-.78-.27-1.26v-.48c0-.49.09-.92.26-1.29s.42-.66.75-.86c.32-.2.7-.3 1.12-.3.57 0 1.03.15 1.38.46.35.31.55.75.61 1.31h-.9c-.04-.37-.15-.64-.33-.81-.17-.16-.43-.25-.77-.25-.39 0-.69.14-.9.43-.21.29-.32.71-.32 1.26v.46c0 .56.1.99.3 1.28.2.29.49.44.88.44.35 0 .62-.08.8-.24.18-.16.29-.42.34-.79h.9zm2.71-.31h-1v1.99h-.9V35.8h1.82c.6 0 1.06.13 1.38.4.32.27.49.66.49 1.16 0 .35-.08.64-.25.87-.17.23-.4.41-.7.54l1.16 2.16v.05h-.96l-1.04-1.99zm-1.01-.72h.93c.3 0 .54-.08.71-.23.17-.15.26-.36.26-.63 0-.28-.08-.49-.24-.64-.16-.15-.39-.23-.71-.23h-.95v1.73zm4.6 2.72h-.9v-5.18h.9v5.18zm4.85-4.46h-1.62v4.45h-.89v-4.45h-1.6v-.73h4.11v.73zm1.63 4.46h-.9v-5.18h.9v5.18zm5.06-1.69c-.05.55-.26.98-.61 1.29-.36.31-.83.46-1.42.46-.41 0-.78-.1-1.09-.29-.31-.2-.56-.47-.73-.83-.17-.36-.26-.78-.27-1.26v-.48c0-.49.09-.92.26-1.29s.42-.66.75-.86c.32-.2.7-.3 1.12-.3.57 0 1.03.15 1.38.46.35.31.55.75.61 1.31h-.9c-.04-.37-.15-.64-.33-.81-.17-.16-.43-.25-.77-.25-.39 0-.69.14-.9.43-.21.29-.32.71-.32 1.26v.46c0 .56.1.99.3 1.28.2.29.49.44.88.44.35 0 .62-.08.8-.24.18-.16.29-.42.34-.79h.9z"/>
  <path d="M18.42 46.66v1.52h-.51V44.3h1.43c.42 0 .76.11 1 .32.24.22.36.5.36.86 0 .38-.12.67-.35.87-.23.2-.57.3-1.01.3h-.92zm0-.42h.92c.27 0 .48-.06.63-.19.15-.13.22-.31.22-.56 0-.23-.07-.42-.22-.55-.15-.14-.34-.21-.6-.22h-.95v1.52zm5.9.12c0 .38-.06.71-.19.99s-.31.5-.54.65c-.23.15-.51.22-.82.22-.3 0-.58-.07-.81-.22-.24-.15-.42-.36-.55-.64-.13-.28-.2-.6-.2-.96v-.28c0-.37.06-.7.19-.99.13-.29.31-.5.55-.66.24-.15.51-.23.81-.23.31 0 .58.07.82.22s.42.37.55.65.19.62.19.99v.26zm-.51-.25c0-.46-.09-.81-.28-1.06-.18-.25-.44-.37-.77-.37-.32 0-.58.12-.76.37-.19.25-.28.59-.29 1.02v.28c0 .45.09.79.28 1.05.19.25.44.38.77.38s.59-.12.77-.36c.18-.24.27-.58.28-1.03v-.28zm1.82 2.06h-.51V44.3h.51v3.87zm3.91 0h-.51l-1.95-2.98v2.98h-.51V44.3h.51l1.95 3v-3h.51v3.87zm3.59-3.45h-1.24v3.45h-.51v-3.45h-1.24v-.42h2.99v.42zm1.67 1.73c-.44-.13-.76-.28-.96-.46a.88.88 0 0 1-.3-.68c0-.3.12-.56.37-.76.24-.2.56-.3.95-.3.27 0 .5.05.71.15.21.1.37.24.48.43.11.18.17.38.17.59h-.51c0-.23-.07-.42-.22-.55-.15-.13-.36-.2-.63-.2-.25 0-.45.06-.59.17a.56.56 0 0 0-.21.46c0 .16.07.29.2.4.13.11.36.21.68.3.32.09.57.19.76.3.18.11.32.24.4.38.09.15.13.32.13.51 0 .31-.12.57-.37.75-.24.19-.57.28-.98.28-.27 0-.51-.05-.74-.15-.23-.1-.41-.24-.53-.42-.12-.18-.19-.38-.19-.6h.51c0 .23.09.42.26.55.17.14.4.2.69.2.27 0 .48-.05.62-.16a.55.55 0 0 0 .22-.45c0-.19-.07-.34-.2-.44-.13-.1-.37-.2-.72-.3z" fill="#FFF"/>
</svg>
