<svg width="24" height="24" xmlns="http://www.w3.org/2000/svg"><rect width="24" height="24" rx="12" fill="#fff"/><path d="M18.675 8.7a1.718 1.718 0 0 0-1.21-1.214C16.4 7.2 12.12 7.2 12.12 7.2s-4.276 0-5.345.286a1.718 1.718 0 0 0-1.21 1.213C5.28 9.77 5.28 12 5.28 12s0 2.232.285 3.301c.157.59.62 1.054 1.21 1.213 1.069.286 5.345.286 5.345.286s4.279 0 5.345-.286a1.718 1.718 0 0 0 1.21-1.213c.285-1.069.285-3.3.285-3.3s0-2.233-.285-3.302Z" fill="#FF3000"/><path d="M10.754 14.058 14.307 12l-3.553-2.057v4.115Z" fill="#fff"/></svg>