<svg viewBox="0 0 24 24" xmlns="http://www.w3.org/2000/svg">
  <path d="M11.8749812,13.1249759 C14.6698964,13.1249759 16.9374692,10.8574031 16.9374692,8.06248793 C16.9374692,5.26757272 14.6698964,3 11.8749812,3 C9.08006601,3 6.81249329,5.26757272 6.81249329,8.06248793 C6.81249329,10.8574031 9.08006601,13.1249759 11.8749812,13.1249759 Z M11.8749812,11.4374799 C10.0152063,11.4374799 8.49998927,9.92226285 8.49998927,8.06248793 C8.49998927,6.20271301 10.0152063,4.68749598 11.8749812,4.68749598 C13.7347561,4.68749598 15.2499732,6.20271301 15.2499732,8.06248793 C15.2499732,9.92226285 13.7347561,11.4374799 11.8749812,11.4374799 Z M18.0624665,20.9999571 C18.9941049,20.9999571 19.7499624,20.2440995 19.7499624,19.3124611 L19.7499624,18.412477 C19.7499624,15.8038826 17.6335544,13.6874745 15.02496,13.6874745 C14.0160055,13.6874745 13.5308229,14.2499732 11.8749812,14.2499732 C10.2191395,14.2499732 9.73749319,13.6874745 8.72500247,13.6874745 C6.11640807,13.6874745 4,15.8038826 4,18.412477 L4,19.3124611 C4,20.2440995 4.75585757,20.9999571 5.68749598,20.9999571 L18.0624665,20.9999571 Z M18.0624665,19.3124611 L5.68749598,19.3124611 L5.68749598,18.412477 C5.68749598,16.7390229 7.05154836,15.3749705 8.72500247,15.3749705 C9.23826876,15.3749705 10.0714768,15.9374692 11.8749812,15.9374692 C13.6925619,15.9374692 14.5081918,15.3749705 15.02496,15.3749705 C16.6984141,15.3749705 18.0624665,16.7390229 18.0624665,18.412477 L18.0624665,19.3124611 Z"></path>
</svg>
